<?xml version="1.0" encoding="UTF-8"?>
<svg id="Layer_2" data-name="Layer 2" xmlns="http://www.w3.org/2000/svg" viewBox="0 0 291.35 166.58">
  <defs>
    <style>
      .cls-1 {
        fill: #cddbfe;
        stroke: #609bfa;
      }

      .cls-1, .cls-2 {
        stroke-width: .82px;
      }

      .cls-2, .cls-3, .cls-4, .cls-5 {
        fill: #fff;
      }

      .cls-2, .cls-6 {
        stroke: #575961;
      }

      .cls-7, .cls-8, .cls-6, .cls-9 {
        fill: #e9e9f4;
      }

      .cls-10 {
        fill: #41628f;
      }

      .cls-11 {
        fill: #3c5d89;
      }

      .cls-12 {
        fill: #575961;
      }

      .cls-13 {
        fill: #609bfa;
      }

      .cls-4, .cls-8 {
        stroke-width: .75px;
      }

      .cls-4, .cls-5, .cls-14 {
        stroke: #3c5d89;
      }

      .cls-8, .cls-9 {
        stroke: #41628f;
      }

      .cls-6, .cls-9 {
        stroke-width: .75px;
      }

      .cls-5 {
        stroke-width: 1.28px;
      }

      .cls-14 {
        fill: none;
        stroke-linecap: round;
        stroke-linejoin: round;
        stroke-width: 2px;
      }

      .cls-15 {
        fill: #2f305a;
      }

      .cls-15, .cls-16 {
        fill-rule: evenodd;
      }

      .cls-16 {
        fill: #f39820;
      }
    </style>
  </defs>
  <g id="Layer_1-2" data-name="Layer 1">
    <g>
      <rect class="cls-2" x="58.74" y=".41" width="196.98" height="147.53" rx="2.88" ry="2.88"/>
      <path class="cls-2" d="m58.74,3.3c0-1.59,1.29-2.88,2.88-2.88h191.21c1.59,0,2.88,1.29,2.88,2.88v8.65H58.74V3.3Z"/>
      <circle class="cls-12" cx="77.28" cy="6.18" r="1.65"/>
      <circle class="cls-12" cx="70.69" cy="6.18" r="1.65"/>
      <circle class="cls-12" cx="64.09" cy="6.18" r="1.65"/>
      <path class="cls-6" d="m248.3,5.77c0-.68.55-1.24,1.24-1.24h6.18v7.42h-7.42v-6.18Z"/>
      <path class="cls-12" d="m250.77,7.83h2.47c.23,0,.41.18.41.41h0c0,.23-.18.41-.41.41h-2.47c-.23,0-.41-.18-.41-.41h0c0-.23.18-.41.41-.41Z"/>
      <path class="cls-12" d="m251.59,9.48v-2.47c0-.23.18-.41.41-.41h0c.23,0,.41.18.41.41v2.47c0,.23-.18.41-.41.41h0c-.23,0-.41-.18-.41-.41Z"/>
      <path class="cls-12" d="m85.91,4c.16-.16.42-.16.58,0,.16.16.16.42,0,.58l-2.04,2.04-.58-.58,2.04-2.04Z"/>
      <path class="cls-12" d="m86.5,7.5c.16.16.16.42,0,.58-.16.16-.42.16-.58,0l-2.04-2.04.58-.58,2.04,2.04Z"/>
      <path class="cls-12" d="m92.68,8.08c-.16.16-.42.16-.58,0-.16-.16-.16-.42,0-.58l2.04-2.04.58.58-2.04,2.04Z"/>
      <path class="cls-12" d="m92.09,4.58c-.16-.16-.16-.42,0-.58.16-.16.42-.16.58,0l2.04,2.04-.58.58-2.04-2.04Z"/>
      <g>
        <path class="cls-13" d="m95.35,111.03c-5.45-2.8-5.88-7.79-5.9-8l.91-.07c.02.19.43,4.7,5.41,7.26l-.42.81Z"/>
        <g>
          <path class="cls-16" d="m94.9,64.06c2.09,0,3.78,1.68,3.78,3.76s-1.69,3.76-3.78,3.76-3.78-1.68-3.78-3.76,1.69-3.76,3.78-3.76h0Z"/>
          <path class="cls-15" d="m206.98,62.85c4.86,25.68-.35,56.87-10.49,72.77,8.56-56.06-15.06-79.68-61.26-85.97,20.97-6.11,49.03-1.28,71.75,13.2h0Z"/>
          <path class="cls-16" d="m98.59,64.2c29.97-30.93,51.73-45.61,92.18-33.81,7.6,6.64,12.53,16.69,15.28,28.14-35.33-21.17-74.28-20.01-107.47,5.67h0Z"/>
        </g>
        <circle class="cls-1" cx="88.59" cy="101.11" r="2.65"/>
        <path class="cls-13" d="m98.22,116.02c-2.07,0-3.75-1.68-3.75-3.75s1.68-3.75,3.75-3.75,3.75,1.68,3.75,3.75-1.68,3.75-3.75,3.75Zm0-6.59c-1.56,0-2.84,1.27-2.84,2.84s1.27,2.84,2.84,2.84,2.84-1.27,2.84-2.84-1.27-2.84-2.84-2.84Z"/>
        <circle class="cls-1" cx="110.63" cy="103.07" r="2.65"/>
      </g>
      <rect class="cls-4" x=".37" y="58.73" width="93.29" height="44.61" rx="4.73" ry="4.73"/>
      <rect class="cls-5" x="43.64" y="68.19" width="40.56" height="10.14" rx="2.03" ry="2.03"/>
      <path class="cls-11" d="m43.64,81.71h12.17c.37,0,.68.3.68.68h0c0,.37-.3.68-.68.68h-12.17c-.37,0-.68-.3-.68-.68h0c0-.37.3-.68.68-.68Z"/>
      <circle class="cls-7" cx="21.85" cy="84.52" r="12.97"/>
      <rect class="cls-9" x="35.53" y="91.17" width="93.29" height="44.61" rx="4.73" ry="4.73"/>
      <circle class="cls-11" cx="57.83" cy="113.48" r="13.52"/>
      <path class="cls-11" d="m81.49,108.75h20.28c.37,0,.68.3.68.68h0c0,.37-.3.68-.68.68h-20.28c-.37,0-.68-.3-.68-.68h0c0-.37.3-.68.68-.68Z"/>
      <path class="cls-11" d="m81.49,112.8h20.28c.37,0,.68.3.68.68h0c0,.37-.3.68-.68.68h-20.28c-.37,0-.68-.3-.68-.68h0c0-.37.3-.68.68-.68Z"/>
      <path class="cls-11" d="m81.49,116.86h12.17c.37,0,.68.3.68.68h0c0,.37-.3.68-.68.68h-12.17c-.37,0-.68-.3-.68-.68h0c0-.37.3-.68.68-.68Z"/>
      <circle class="cls-4" cx="258.84" cy="49.8" r="32.14"/>
      <path class="cls-14" d="m231.12,49.8c0-15.02,12.18-27.2,27.2-27.2"/>
      <path class="cls-3" d="m232.77,72.05h14.01c.46,0,.82.37.82.82h0c0,.46-.37.82-.82.82h-14.01c-.46,0-.82-.37-.82-.82h0c0-.46.37-.82.82-.82Z"/>
      <path class="cls-3" d="m235.24,76.99h8.24c.46,0,.82.37.82.82h0c0,.46-.37.82-.82.82h-8.24c-.46,0-.82-.37-.82-.82h0c0-.46.37-.82.82-.82Z"/>
      <path class="cls-11" d="m275.23,69.67h-32.78c-.3,0-.6-.12-.81-.34-.21-.21-.33-.51-.33-.82.03-1.16.06-2.23.07-3.2.17-9.99.63-11.56,11.54-14.22l.49-2.94c-1-1.34-1.71-3.02-2.11-5.01-.79-.57-1.37-1.69-1.57-3.03-.24-1.66.16-3.06,1-3.76-.23-3.18.79-5.19,1.74-6.35,1.42-1.74,3.79-2.77,6.33-2.77,2.83,0,5.34,1.22,6.74,3.26,1.06,1.57,1.52,3.58,1.36,5.88.84.72,1.25,2.13,1,3.74-.19,1.3-.75,2.4-1.51,3-.4,1.98-1.12,3.7-2.13,5.05l.49,2.91c10.91,2.71,11.37,4.28,11.55,14.26.02.98.03,2.04.07,3.2,0,.31-.11.6-.33.82-.21.22-.5.34-.81.34Zm-31.6-2.27h30.44c-.02-.73-.03-1.41-.05-2.06-.16-9.39-.16-9.74-10.53-12.28-.45-.1-.78-.47-.86-.91l-.69-4.14c-.05-.34.04-.67.25-.93,1-1.19,1.7-2.88,2.05-4.9.07-.4.34-.75.73-.88.12-.07.53-.58.68-1.56.14-.98-.11-1.59-.22-1.69-.3-.04-.52-.16-.69-.4-.19-.24-.21-.52-.17-.82.26-2.06-.05-3.83-.92-5.1-.96-1.42-2.78-2.26-4.85-2.26-1.87,0-3.57.72-4.56,1.93-1.05,1.3-1.46,3.17-1.16,5.43.07.61-.34,1.17-.94,1.27-.02.05-.28.66-.14,1.64s.56,1.49.69,1.56c.41.12.7.47.77.89.34,2.01,1.04,3.7,2.04,4.88.21.25.31.59.25.93l-.7,4.17c-.07.45-.41.82-.85.92-10.36,2.48-10.37,2.85-10.53,12.24-.02.65-.02,1.34-.04,2.06Z"/>
      <g>
        <path class="cls-8" d="m219.59,72.01v11.99c0,.9.37,1.72.96,2.31s1.41.96,2.31.96h3c.4,0,.73.33.73.73,0,.12-.04.25-.09.35l-2.81,6.24,9.61-7.18c.13-.09.28-.15.44-.15h16.14c.9,0,1.72-.37,2.31-.96s.96-1.41.96-2.31v-11.98c0-.9-.37-1.72-.96-2.31-.59-.6-1.41-.96-2.31-.96h-27.02c-.9,0-1.72.36-2.31.96-.59.59-.96,1.4-.96,2.31Z"/>
        <g>
          <path class="cls-10" d="m230.83,75.44c-.4,0-.73-.33-.73-.73s.33-.73.73-.73h17.15c.4,0,.73.33.73.73s-.33.73-.73.73h-17.15Z"/>
          <path class="cls-10" d="m224.75,81.78c-.4,0-.73-.33-.73-.73s.33-.73.73-.73h23.24c.4,0,.73.33.73.73s-.33.73-.73.73h-23.24Z"/>
        </g>
      </g>
      <path class="cls-7" d="m64.8,123.36h-13.88c-.13,0-.25-.05-.34-.15-.09-.09-.14-.22-.14-.35.01-.49.02-.94.03-1.36.07-4.23.27-4.9,4.88-6.02l.21-1.25c-.42-.57-.73-1.28-.9-2.12-.33-.24-.58-.71-.66-1.28-.1-.7.07-1.29.42-1.59-.1-1.35.34-2.2.74-2.69.6-.74,1.6-1.17,2.68-1.17,1.2,0,2.26.52,2.85,1.38.45.66.65,1.52.58,2.49.36.31.53.9.42,1.58-.08.55-.32,1.02-.64,1.27-.17.84-.48,1.57-.9,2.14l.21,1.23c4.62,1.15,4.82,1.81,4.89,6.04.01.41.01.86.03,1.36,0,.13-.05.25-.14.35-.09.09-.21.15-.34.15Zm-13.38-.96h12.89c0-.31-.01-.6-.02-.87-.07-3.98-.07-4.12-4.46-5.2-.19-.04-.33-.2-.36-.39l-.29-1.75c-.02-.14.02-.28.11-.39.42-.5.72-1.22.87-2.07.03-.17.15-.32.31-.37.05-.03.23-.25.29-.66.06-.41-.05-.67-.09-.71-.13-.02-.22-.07-.29-.17-.08-.1-.09-.22-.07-.35.11-.87-.02-1.62-.39-2.16-.41-.6-1.18-.96-2.05-.96-.79,0-1.51.31-1.93.82-.44.55-.62,1.34-.49,2.3.03.26-.15.5-.4.54-.01.02-.12.28-.06.69s.24.63.29.66c.17.05.29.2.33.38.14.85.44,1.56.86,2.07.09.11.13.25.11.39l-.29,1.77c-.03.19-.17.35-.36.39-4.39,1.05-4.39,1.21-4.46,5.18,0,.27-.01.57-.02.87Z"/>
      <rect class="cls-4" x="13.89" y="121.59" width="93.29" height="44.61" rx="4.73" ry="4.73"/>
      <circle class="cls-7" cx="34.74" cy="144.81" r="12.97"/>
      <path class="cls-11" d="m59.86,139.17h20.28c.37,0,.68.3.68.68h0c0,.37-.3.68-.68.68h-20.28c-.37,0-.68-.3-.68-.68h0c0-.37.3-.68.68-.68Z"/>
      <path class="cls-11" d="m59.86,143.22h20.28c.37,0,.68.3.68.68h0c0,.37-.3.68-.68.68h-20.28c-.37,0-.68-.3-.68-.68h0c0-.37.3-.68.68-.68Z"/>
      <path class="cls-11" d="m59.86,147.28h12.17c.37,0,.68.3.68.68h0c0,.37-.3.68-.68.68h-12.17c-.37,0-.68-.3-.68-.68h0c0-.37.3-.68.68-.68Z"/>
      <path class="cls-11" d="m41.41,153.08h-13.31c-.12,0-.24-.05-.33-.14-.09-.09-.13-.21-.13-.33.01-.47.02-.91.03-1.3.07-4.06.26-4.69,4.68-5.78l.2-1.19c-.41-.55-.7-1.23-.86-2.04-.32-.23-.56-.69-.64-1.23-.1-.67.07-1.24.41-1.53-.09-1.29.32-2.11.71-2.58.58-.71,1.54-1.12,2.57-1.12,1.15,0,2.17.5,2.74,1.32.43.64.62,1.45.55,2.39.34.29.51.87.41,1.52-.08.53-.31.97-.61,1.22-.16.81-.46,1.5-.87,2.05l.2,1.18c4.43,1.1,4.62,1.74,4.69,5.79,0,.4.01.83.03,1.3,0,.13-.04.24-.13.33-.09.09-.2.14-.33.14Zm-12.83-.92h12.36c0-.3-.01-.57-.02-.84-.07-3.81-.07-3.96-4.28-4.99-.18-.04-.32-.19-.35-.37l-.28-1.68c-.02-.14.02-.27.1-.38.41-.48.69-1.17.83-1.99.03-.16.14-.3.3-.36.05-.03.22-.24.28-.63.06-.4-.05-.65-.09-.69-.12-.02-.21-.07-.28-.16-.08-.1-.09-.21-.07-.33.11-.84-.02-1.55-.37-2.07-.39-.58-1.13-.92-1.97-.92-.76,0-1.45.29-1.85.78-.43.53-.59,1.29-.47,2.21.03.25-.14.48-.38.52,0,.02-.11.27-.06.67s.23.61.28.63c.17.05.28.19.31.36.14.82.42,1.5.83,1.98.09.1.13.24.1.38l-.28,1.69c-.03.18-.17.33-.35.37-4.21,1.01-4.21,1.16-4.28,4.97,0,.26,0,.54-.02.84Z"/>
      <path class="cls-11" d="m28.36,92.05h-13.31c-.12,0-.24-.05-.33-.14-.09-.09-.13-.21-.13-.33.01-.47.02-.91.03-1.3.07-4.06.26-4.69,4.68-5.78l.2-1.19c-.41-.55-.7-1.23-.86-2.04-.32-.23-.56-.69-.64-1.23-.1-.67.07-1.24.41-1.53-.09-1.29.32-2.11.71-2.58.58-.71,1.54-1.12,2.57-1.12,1.15,0,2.17.5,2.74,1.32.43.64.62,1.45.55,2.39.34.29.51.87.41,1.52-.08.53-.31.97-.61,1.22-.16.81-.46,1.5-.87,2.05l.2,1.18c4.43,1.1,4.62,1.74,4.69,5.79,0,.4.01.83.03,1.3,0,.13-.04.24-.13.33-.09.09-.2.14-.33.14Zm-12.83-.92h12.36c0-.3-.01-.57-.02-.84-.07-3.81-.07-3.96-4.28-4.99-.18-.04-.32-.19-.35-.37l-.28-1.68c-.02-.14.02-.27.1-.38.41-.48.69-1.17.83-1.99.03-.16.14-.3.3-.36.05-.03.22-.24.28-.63.06-.4-.05-.65-.09-.69-.12-.02-.21-.07-.28-.16-.08-.1-.09-.21-.07-.33.11-.84-.02-1.55-.37-2.07-.39-.58-1.13-.92-1.97-.92-.76,0-1.45.29-1.85.78-.43.53-.59,1.29-.47,2.21.03.25-.14.48-.38.52,0,.02-.11.27-.06.67s.23.61.28.63c.17.05.28.19.31.36.14.82.42,1.5.83,1.98.09.1.13.24.1.38l-.28,1.69c-.03.18-.17.33-.35.37-4.21,1.01-4.21,1.16-4.28,4.97,0,.26,0,.54-.02.84Z"/>
    </g>
  </g>
</svg>