<?xml version="1.0" encoding="UTF-8"?>
<svg id="Layer_2" data-name="Layer 2" xmlns="http://www.w3.org/2000/svg" viewBox="0 0 294.23 188.82">
  <defs>
    <style>
      .cls-1 {
        stroke: #575961;
      }

      .cls-1, .cls-2 {
        stroke-width: .85px;
      }

      .cls-1, .cls-3, .cls-4 {
        fill: #e9e9f4;
      }

      .cls-2 {
        stroke: #555961;
      }

      .cls-2, .cls-5, .cls-6, .cls-7 {
        fill: #fff;
      }

      .cls-5 {
        stroke-width: .69px;
      }

      .cls-5, .cls-6, .cls-8, .cls-3, .cls-9, .cls-7, .cls-4 {
        stroke: #41628f;
      }

      .cls-10, .cls-11 {
        fill: #41628f;
      }

      .cls-12 {
        fill: #555961;
      }

      .cls-6 {
        stroke-width: .65px;
      }

      .cls-6, .cls-3, .cls-13, .cls-11, .cls-14, .cls-15 {
        fill-rule: evenodd;
      }

      .cls-8, .cls-9 {
        fill: none;
        stroke-linecap: round;
        stroke-linejoin: round;
      }

      .cls-8, .cls-7 {
        stroke-width: 1.03px;
      }

      .cls-3 {
        stroke-width: .75px;
      }

      .cls-13 {
        fill: #344f70;
      }

      .cls-14 {
        fill: #d7d7e0;
      }

      .cls-15 {
        fill: #f5f8ff;
      }

      .cls-9 {
        stroke-width: .86px;
      }

      .cls-4 {
        stroke-width: .79px;
      }
    </style>
  </defs>
  <g id="Layer_1-2" data-name="Layer 1">
    <g>
      <g>
        <g>
          <rect class="cls-2" x="43.38" y=".43" width="203.19" height="152.18" rx="2.98" ry="2.98"/>
          <path class="cls-2" d="m43.38,3.4c0-1.65,1.33-2.98,2.98-2.98h197.24c1.65,0,2.98,1.33,2.98,2.98v8.93H43.38V3.4Z"/>
          <circle class="cls-12" cx="62.51" cy="6.38" r="1.7"/>
          <circle class="cls-12" cx="55.71" cy="6.38" r="1.7"/>
          <circle class="cls-12" cx="48.91" cy="6.38" r="1.7"/>
          <path class="cls-1" d="m238.92,5.95c0-.71.57-1.28,1.28-1.28h6.38v7.65h-7.65v-6.38Z"/>
          <path class="cls-12" d="m241.47,8.08h2.55c.23,0,.43.19.43.43h0c0,.23-.19.43-.43.43h-2.55c-.23,0-.43-.19-.43-.43h0c0-.23.19-.43.43-.43Z"/>
          <path class="cls-12" d="m242.32,9.78v-2.55c0-.23.19-.43.43-.43h0c.23,0,.43.19.43.43v2.55c0,.23-.19.43-.43.43h0c-.23,0-.43-.19-.43-.43Z"/>
          <path class="cls-12" d="m71.41,4.13c.17-.17.43-.17.6,0s.17.43,0,.6l-2.1,2.1-.6-.6,2.1-2.1Z"/>
          <path class="cls-12" d="m72.01,7.73c.17.17.17.44,0,.6s-.43.17-.6,0l-2.1-2.1.6-.6,2.1,2.1Z"/>
          <path class="cls-12" d="m78.39,8.34c-.17.17-.43.17-.6,0-.17-.17-.17-.44,0-.6l2.1-2.1.6.6-2.1,2.1Z"/>
          <path class="cls-12" d="m77.79,4.73c-.17-.17-.17-.43,0-.6.17-.17.43-.17.6,0l2.1,2.1-.6.6-2.1-2.1Z"/>
        </g>
        <line class="cls-7" x1="78.08" y1="96.26" x2="78.08" y2="112.22"/>
        <line class="cls-9" x1="245.49" y1="111.98" x2="44.2" y2="111.98"/>
        <line class="cls-7" x1="88.42" y1="80.69" x2="88.42" y2="112.22"/>
        <line class="cls-7" x1="98.76" y1="85.86" x2="98.76" y2="112.22"/>
        <line class="cls-7" x1="109.1" y1="91.85" x2="109.1" y2="112.22"/>
        <line class="cls-7" x1="119.43" y1="98.26" x2="119.43" y2="112.22"/>
        <line class="cls-7" x1="129.77" y1="81.45" x2="129.77" y2="112.22"/>
        <line class="cls-7" x1="140.11" y1="63.29" x2="140.11" y2="112.22"/>
        <line class="cls-7" x1="150.44" y1="47.09" x2="150.44" y2="112.22"/>
        <line class="cls-7" x1="160.78" y1="55.72" x2="160.78" y2="112.22"/>
        <line class="cls-7" x1="171.12" y1="65.06" x2="171.12" y2="112.22"/>
        <line class="cls-7" x1="181.45" y1="73.52" x2="181.45" y2="112.22"/>
        <line class="cls-7" x1="191.79" y1="56.42" x2="191.79" y2="112.22"/>
        <line class="cls-7" x1="202.13" y1="37.91" x2="202.13" y2="112.22"/>
        <line class="cls-7" x1="212.46" y1="46.2" x2="212.46" y2="112.22"/>
        <line class="cls-7" x1="222.8" y1="54.31" x2="222.8" y2="112.22"/>
        <path class="cls-8" d="m67.49,112.22l21.19-32.3,30.75,18.09,31.01-51.43,31.01,27.47,20.67-35.96,19.9,14.98"/>
        <circle class="cls-5" cx="88.42" cy="80.69" r="2.07"/>
        <circle class="cls-5" cx="119.43" cy="97.74" r="2.07"/>
        <circle class="cls-5" cx="181.45" cy="73.27" r="2.07"/>
        <circle class="cls-4" cx="202.13" cy="38.15" r="2.07"/>
        <circle class="cls-5" cx="222.8" cy="53.21" r="2.07"/>
        <circle class="cls-4" cx="150.44" cy="46.58" r="2.07"/>
        <circle class="cls-5" cx="67.75" cy="111.7" r="2.07"/>
        <g>
          <path class="cls-11" d="m282.76,65.56c6.85,7.04,11.47,16.86,11.47,27.46,0,6.35-1.61,12.79-4.3,18.08l-32.24-18.72,25.07-26.82Z"/>
          <path class="cls-13" d="m253.64,92.07c0,.62.34,1.22.92,1.55l33.5,18.93c-6.82,10.83-18.88,18.04-32.63,18.04-21.27,0-38.53-17.25-38.53-38.53s16.18-37.44,36.54-38.48l.2,38.48h0Z"/>
          <path class="cls-11" d="m255.62,53.57c9.99.41,19.1,4.21,26.21,10.29l-26.01,27.76-.2-38.05Z"/>
          <polygon class="cls-11" points="288.58 112.06 289.92 111.1 289.77 108.56 287 105.91 288.58 112.06"/>
          <path class="cls-11" d="m253.44,53.58l-1.4,2.1-10.89,13.21-16.01,11.96-3.12-7.99c6.34-11.01,17.97-18.59,31.42-19.28Z"/>
          <polygon class="cls-11" points="254 93.14 252.49 95.07 250.58 102.4 258.82 112.91 287.02 114.69 288.44 112.55 254.37 93.5 254 93.14"/>
          <path class="cls-6" d="m252.24,94.17c0,.62.33,1.22.92,1.55l33.5,18.93c-6.82,10.83-18.88,18.04-32.63,18.04-21.28,0-38.53-17.25-38.53-38.53s16.18-37.44,36.54-38.48l.2,38.48h0Z"/>
          <path class="cls-3" d="m281.65,67.3c6.75,6.94,10.91,16.41,10.91,26.86,0,6.25-1.49,12.16-4.13,17.38l-31.53-17.82,24.76-26.42Z"/>
          <polygon class="cls-13" points="281.83 63.86 279.03 64.85 261.47 75.3 255.79 89.66 255.82 91.62 281.83 63.86"/>
          <path class="cls-11" d="m255.62,55.67c8.93.36,17.06,3.76,23.42,9.18l-23.24,24.8-.18-33.98Z"/>
          <path class="cls-10" d="m290.85,81.55c1.28,3.83,1.98,7.94,1.98,12.22,0,3.16-.38,6.24-1.1,9.18-.74,3.03-1.79,5.83-3.21,8.54l-.09.06-.32-.18c1.39-2.67,2.46-5.52,3.2-8.52.71-2.9,1.09-5.94,1.09-9.07,0-4.23-.68-8.3-1.95-12.08-1.32-3.93-3.26-7.58-5.71-10.81,2.83,2.81,5.68,9.32,6.13,10.67Z"/>
          <path class="cls-10" d="m279.25,64.78l-.21.08-.15.17c-3.27-2.8-6.96-5.07-10.98-6.67-3.81-1.52-8.23-2.24-12.27-2.67,9.9.53,16.14,3.29,23.62,9.1Z"/>
          <path class="cls-10" d="m227.05,66.67c3.28-3.31,7.18-5.98,11.48-7.92,4.16-1.89,8.86-2.96,13.65-3.25l-.14.19v.16c-9.09.55-18.3,4.68-24.99,10.82Z"/>
        </g>
      </g>
      <g>
        <polygon class="cls-11" points="0 163.06 0 166.89 24.87 188.82 25 184.77 12.75 170.47 0 163.06"/>
        <polygon class="cls-11" points="24.87 188.82 104.58 164.89 104.45 161.93 76.4 166.71 26.4 181.95 25 184.77 24.87 188.82"/>
        <polygon class="cls-14" points="8.54 161.34 0 163.06 25 184.77 104.45 161.93 95.14 156.04 17.47 159.72 8.54 161.34"/>
        <polygon class="cls-14" points="25.25 174.64 59.39 174.88 104.45 161.93 95.86 156.5 65.68 153.19 36.86 159.43 27.42 167.93 25.25 174.64"/>
        <polygon class="cls-3" points="46.42 169.52 46.42 104.03 42.35 101.43 38.78 166.56 43.36 167.77 46.1 169.79 46.42 169.52"/>
        <polygon class="cls-11" points="22.58 77.07 6.2 71.86 26.27 70.75 43.75 76.21 22.58 77.07"/>
        <polygon class="cls-11" points="42.77 102.45 46.42 104.03 64.87 101.92 46.14 94.27 41.77 94.29 41.07 98.42 42.77 102.45"/>
        <polygon class="cls-6" points="96.8 140.79 95.78 157.87 83.03 161.04 82.16 142.77 84.94 141.39 96.8 140.79"/>
        <polygon class="cls-3" points="83.28 143.5 83.03 160.79 82.72 161 79.33 158.67 77.8 140.8 79.84 140.06 81.31 142.23 83.28 143.5"/>
        <polygon class="cls-11" points="80.99 134.24 97.15 140.45 83.28 143.51 81.31 142.24 78.18 138.74 77.8 130.73 80.99 134.24"/>
        <polygon class="cls-3" points="5.81 72.2 8.54 161.34 24.95 174.57 25.27 174.35 22.19 77.42 5.81 72.2"/>
        <path class="cls-13" d="m81.54,134.46l3.41,1.42-1.72,7.64s-.08-.04-.84-.5c-.76-.45-1.59-.8-1.59-.8l-1.22-2.48-.38-4.69,2.34-.59Z"/>
        <g>
          <polygon class="cls-11" points="83.02 143.35 83.03 160.91 83.26 143.42 83.02 143.35"/>
          <polygon class="cls-11" points="83.02 143.35 77.67 140.35 83.08 143.58 83.02 143.35"/>
          <polygon class="cls-11" points="83.26 143.42 88.73 142.41 83.2 143.62 83.26 143.42"/>
        </g>
        <polygon class="cls-3" points="63.43 163.1 66.15 164.99 66.5 164.82 66.76 125.22 59.81 121.56 55.73 151.36 63.43 163.1"/>
        <polygon class="cls-6" points="66.57 125.24 81.88 123.25 80.73 161.21 66.45 165 66.57 125.24"/>
        <polygon class="cls-11" points="63.43 116.05 65.02 115.96 82.2 122.92 66.66 125.24 61.24 122.44 55.3 116.84 61.6 112.72 63.43 116.05"/>
        <path class="cls-13" d="m62.49,116.12l2.38-.18,3.18,1.33-1.65,7.76s-.86-.27-1.99-.96-1.41-1.68-1.41-1.68l-.8-3.76.29-2.51Z"/>
        <g>
          <polygon class="cls-11" points="66.15 124.96 66.46 163.38 66.65 125.11 66.15 124.96"/>
          <polygon class="cls-11" points="66.15 124.96 51.14 117.39 66.27 125.46 66.15 124.96"/>
          <polygon class="cls-11" points="66.65 125.11 77.99 123.76 66.52 125.53 66.65 125.11"/>
        </g>
        <polygon class="cls-13" points="46.16 94.26 44.31 103.12 42.82 102.13 37.93 95.13 39.97 93.62 43.1 94.29 46.16 94.26"/>
        <polygon class="cls-6" points="46.42 169.84 63.38 165.34 64.53 102.26 45.97 103.78 46.42 169.84"/>
        <g>
          <polygon class="cls-11" points="45.69 103.59 46.24 142.09 46.19 103.74 45.69 103.59"/>
          <polygon class="cls-11" points="45.69 103.59 30.48 95.84 45.81 104.09 45.69 103.59"/>
          <polygon class="cls-11" points="46.19 103.74 57.64 102.82 46.06 104.16 46.19 103.74"/>
        </g>
        <polygon class="cls-6" points="43.36 76.56 43.36 170.32 25.25 174.64 22.19 77.42 43.36 76.56"/>
        <polygon class="cls-11" points="21.94 77.27 23.41 116.01 22.43 77.41 21.94 77.27"/>
        <polygon class="cls-11" points="21.94 77.27 5.81 72.2 22.06 77.77 21.94 77.27"/>
        <polygon class="cls-11" points="22.43 77.41 33.76 76.95 22.32 77.84 22.43 77.41"/>
        <polygon class="cls-15" points="25 184.77 11.78 173.3 24.87 185.37 24.87 188.82 25.25 185.35 38.18 180.99 25 184.77"/>
      </g>
    </g>
  </g>
</svg>