<?xml version="1.0" encoding="UTF-8"?>
<svg id="Layer_2" data-name="Layer 2" xmlns="http://www.w3.org/2000/svg" viewBox="0 0 298.86 187.37">
  <defs>
    <style>
      .cls-1, .cls-2, .cls-3 {
        fill: none;
      }

      .cls-4 {
        stroke: #575961;
      }

      .cls-4, .cls-5 {
        stroke-width: .85px;
      }

      .cls-4, .cls-6, .cls-7, .cls-8 {
        fill: #e9e9f4;
      }

      .cls-5 {
        stroke: #555961;
      }

      .cls-5, .cls-9, .cls-10, .cls-11, .cls-12 {
        fill: #fff;
      }

      .cls-9 {
        stroke-width: .69px;
      }

      .cls-9, .cls-6, .cls-11, .cls-2, .cls-8 {
        stroke: #41628f;
      }

      .cls-13 {
        fill: #f89c2b;
      }

      .cls-14 {
        fill: #f0f0f0;
      }

      .cls-15, .cls-16 {
        fill: #f39820;
      }

      .cls-17 {
        fill: #fcf67e;
      }

      .cls-18 {
        fill: #8dcc81;
      }

      .cls-19 {
        fill: #dbdbdb;
      }

      .cls-20 {
        fill: #41628f;
      }

      .cls-21 {
        fill: #555961;
      }

      .cls-22, .cls-23 {
        fill: #2f305a;
      }

      .cls-24 {
        fill: #4b6499;
      }

      .cls-25 {
        fill: #525988;
      }

      .cls-6 {
        stroke-width: .75px;
      }

      .cls-11 {
        stroke-width: .65px;
      }

      .cls-23, .cls-16, .cls-12 {
        fill-rule: evenodd;
      }

      .cls-7 {
        stroke-miterlimit: 10;
        stroke-width: .1px;
      }

      .cls-7, .cls-3 {
        stroke: #525988;
      }

      .cls-2 {
        stroke-width: .86px;
      }

      .cls-2, .cls-3 {
        stroke-linecap: round;
        stroke-linejoin: round;
      }

      .cls-3 {
        stroke-width: .1px;
      }

      .cls-8 {
        stroke-width: .79px;
      }
    </style>
  </defs>
  <g id="Layer_1-2" data-name="Layer 1">
    <g>
      <g>
        <g>
          <rect class="cls-5" x="61.53" y=".43" width="203.19" height="152.18" rx="2.98" ry="2.98"/>
          <path class="cls-5" d="m61.53,3.4c0-1.65,1.33-2.98,2.98-2.98h197.24c1.65,0,2.98,1.33,2.98,2.98v8.93H61.53V3.4Z"/>
          <circle class="cls-21" cx="80.66" cy="6.38" r="1.7"/>
          <circle class="cls-21" cx="73.86" cy="6.38" r="1.7"/>
          <circle class="cls-21" cx="67.06" cy="6.38" r="1.7"/>
          <path class="cls-4" d="m257.07,5.95c0-.71.57-1.28,1.28-1.28h6.38v7.65h-7.65v-6.38Z"/>
          <path class="cls-21" d="m259.62,8.08h2.55c.23,0,.43.19.43.43h0c0,.23-.19.43-.43.43h-2.55c-.23,0-.43-.19-.43-.43h0c0-.23.19-.43.43-.43Z"/>
          <path class="cls-21" d="m260.47,9.78v-2.55c0-.23.19-.43.43-.43h0c.23,0,.43.19.43.43v2.55c0,.23-.19.43-.43.43h0c-.23,0-.43-.19-.43-.43Z"/>
          <path class="cls-21" d="m89.57,4.13c.17-.17.43-.17.6,0s.17.43,0,.6l-2.1,2.1-.6-.6,2.1-2.1Z"/>
          <path class="cls-21" d="m90.17,7.73c.17.17.17.44,0,.6s-.43.17-.6,0l-2.1-2.1.6-.6,2.1,2.1Z"/>
          <path class="cls-21" d="m96.54,8.34c-.17.17-.43.17-.6,0-.17-.17-.17-.44,0-.6l2.1-2.1.6.6-2.1,2.1Z"/>
          <path class="cls-21" d="m95.94,4.73c-.17-.17-.17-.43,0-.6.17-.17.43-.17.6,0l2.1,2.1-.6.6-2.1-2.1Z"/>
        </g>
        <g>
          <rect class="cls-14" x="81.92" y="28.66" width="162.46" height="14.46"/>
          <rect class="cls-24" x="81.57" y="125.2" width="163.12" height="7.85"/>
          <g>
            <polygon class="cls-12" points="162.3 127.44 163.46 128.13 165.1 129.16 165.37 129.37 163.28 130.76 162.38 131.3 162.33 130.9 162.27 129.26 162.27 127.61 162.3 127.44 162.3 127.44"/>
            <polygon class="cls-12" points="173.81 127.64 175.59 128.68 175.59 127.64 178.41 129.29 175.59 130.94 175.59 129.9 173.81 130.94 173.81 127.64 173.81 127.64"/>
            <polygon class="cls-12" points="153.83 127.51 152.05 128.56 152.05 127.51 149.23 129.16 152.05 130.82 152.05 129.77 153.83 130.82 153.83 127.51 153.83 127.51"/>
          </g>
          <rect class="cls-25" x="135.28" y="34.47" width="55.74" height="3.01"/>
          <g>
            <path class="cls-22" d="m99.8,36.16c-.03-.4-.35-.52-.6-.52-.33,0-.61.2-.61.55,0,.27.2.39.46.47.32.11.46.17.46.34,0,.15-.13.27-.3.27-.13,0-.31-.07-.32-.29h-.34c.02.41.37.57.66.57.36,0,.65-.24.64-.59-.01-.39-.31-.47-.59-.54-.19-.05-.32-.12-.33-.26,0-.12.09-.23.26-.23.18,0,.26.1.26.24h.34Z"/>
            <path class="cls-22" d="m97.55,37.49h.35v-.97c0-.36.17-.54.49-.54h.02v-.34c-.25,0-.44.11-.54.32v-.26h-.33v1.8h0Z"/>
            <path class="cls-22" d="m97.21,36.7c.03-.3-.06-.58-.27-.8-.17-.17-.41-.26-.67-.26-.55,0-.95.44-.95.96,0,.48.37.95.96.95.18,0,.36-.05.51-.15.15-.1.28-.25.37-.45h-.36c-.1.19-.28.3-.52.3-.27,0-.59-.19-.61-.55h1.54Zm-1.54-.27c.02-.24.25-.5.6-.5.34,0,.58.26.6.5h-1.2Z"/>
            <polygon class="cls-22" points="94.64 37.49 94.99 37.49 94.99 35.69 94.64 35.69 94.64 37.49 94.64 37.49"/>
            <path class="cls-22" d="m93.51,37.49h.35v-.97c0-.36.17-.54.49-.54h.02v-.34c-.25,0-.44.11-.54.32v-.26h-.33v1.8h0Z"/>
            <path class="cls-22" d="m92.39,37.49h.35v-.97c0-.36.17-.54.49-.54h.02v-.34c-.25,0-.44.11-.54.32v-.26h-.33v1.8h0Z"/>
            <path class="cls-22" d="m91.94,35.69h-.35v.32c-.08-.17-.31-.37-.67-.37-.52,0-.93.4-.93.95,0,.5.35.95.93.95.29,0,.54-.13.67-.37v.31h.35v-1.8h0Zm-1.6.9c0-.34.25-.63.62-.63.29,0,.49.16.58.37.04.08.06.18.05.27,0,.09-.02.19-.06.27-.09.2-.29.36-.56.36-.44,0-.63-.36-.63-.62h0Z"/>
            <path class="cls-22" d="m89.41,36.86c-.07.18-.26.36-.56.36-.35,0-.62-.26-.62-.63,0-.18.07-.35.18-.46.13-.12.26-.18.44-.18.25,0,.47.14.56.38h.36c-.11-.43-.5-.7-.93-.7-.54,0-.95.42-.95.95,0,.5.38.95.97.95.45,0,.81-.29.92-.68h-.36Z"/>
            <path class="cls-15" d="m102.29,39.45h1.37v-.55h-.77v-.42h.74v-.55h-.74v-.38h.77v-.55h-1.37v2.45h0Zm1.73,0h.86c.94,0,1.27-.56,1.27-1.23,0-.27-.06-.53-.23-.76-.32-.46-.81-.46-1.09-.46h-.82v2.45h0Zm.63-1.9h.27c.28,0,.41.12.48.23.09.14.12.31.12.45,0,.35-.13.67-.6.67h-.27v-1.35h0Zm2.93.51v.5h.74c-.07.24-.28.39-.59.39s-.68-.22-.68-.74c0-.48.36-.71.67-.71.27,0,.45.15.54.32h.71c-.14-.47-.64-.87-1.23-.87-.73,0-1.32.53-1.32,1.26s.56,1.29,1.31,1.29c.68,0,1.32-.49,1.32-1.32,0-.05,0-.09,0-.13h-1.46Zm1.79,1.4h1.37v-.55h-.77v-.42h.74v-.55h-.74v-.38h.77v-.55h-1.37v2.45h0Z"/>
            <path class="cls-16" d="m94.82,34.99c.13,0,.24.1.24.23s-.11.23-.24.23-.24-.1-.24-.23.11-.23.24-.23h0Z"/>
            <path class="cls-23" d="m101.8,34.92c.3,1.6-.02,3.54-.65,4.53.53-3.49-.94-4.96-3.81-5.35,1.31-.38,3.05-.08,4.47.82h0Z"/>
            <path class="cls-16" d="m95.05,35c1.87-1.93,3.22-2.84,5.74-2.11.47.41.78,1.04.95,1.75-2.2-1.32-4.63-1.25-6.69.35h0Z"/>
            <path class="cls-22" d="m111.48,36.29c.14,0,.26.06.35.15.09.09.15.22.15.35s-.06.26-.15.35c-.09.09-.22.15-.35.15s-.26-.06-.35-.15c-.09-.09-.15-.22-.15-.35s.06-.26.15-.35c.09-.09.22-.15.35-.15h0Zm.29.2c-.08-.08-.18-.12-.29-.12s-.22.05-.29.12-.12.18-.12.29.05.22.12.29c.08.08.18.12.29.12s.22-.05.29-.12.12-.18.12-.29-.05-.22-.12-.29h0Z"/>
            <path class="cls-22" d="m111.26,37.04v-.5h.21c.05,0,.09,0,.12.01.02,0,.04.02.06.05.01.02.02.05.02.08,0,.04-.01.07-.03.09-.02.02-.05.04-.1.05.02.01.04.03.05.04.01.02.03.04.06.08l.06.1h-.12l-.07-.11s-.04-.06-.05-.07c0,0-.02-.02-.03-.02-.01,0-.03,0-.05,0h-.02v.21h-.1Zm.1-.29h.07s.08,0,.09,0c.01,0,.02-.01.03-.02,0,0,.01-.02.01-.04,0-.02,0-.03-.01-.04,0-.01-.02-.02-.04-.02,0,0-.03,0-.07,0h-.08v.13h0Z"/>
          </g>
          <g>
            <path class="cls-25" d="m235.81,37.45s-.04,0-.05-.02c-.03-.03-.03-.08,0-.11l2.81-2.81s.08-.03.11,0,.03.08,0,.11l-2.81,2.81s-.03.02-.05.02Z"/>
            <path class="cls-25" d="m238.62,37.45s-.04,0-.05-.02l-2.81-2.81s-.03-.08,0-.11.08-.03.11,0l2.81,2.81s.03.08,0,.11c-.02.02-.03.02-.05.02Z"/>
          </g>
          <g>
            <rect class="cls-1" x="89.1" y="67.12" width="39.97" height="36.64"/>
            <rect class="cls-7" x="88.82" y="67.01" width="40.2" height="35.55"/>
            <g>
              <path class="cls-17" d="m114.21,84.67c-2.24-.88-3.82-3.06-3.82-5.61,0-3.33,2.7-6.03,6.03-6.03s6.03,2.7,6.03,6.03c0,2.56-1.6,4.75-3.85,5.62"/>
              <polygon class="cls-18" points="128.37 101.79 116.4 80.84 108.17 95.24 101.43 86.82 89.46 101.79 104.43 101.79 104.43 101.79 128.37 101.79"/>
            </g>
            <rect class="cls-7" x="143" y="67.01" width="40.2" height="35.55"/>
            <g>
              <path class="cls-17" d="m168.4,84.67c-2.24-.88-3.82-3.06-3.82-5.61,0-3.33,2.7-6.03,6.03-6.03s6.03,2.7,6.03,6.03c0,2.56-1.6,4.75-3.85,5.62"/>
              <polygon class="cls-18" points="182.56 101.79 170.59 80.84 162.36 95.24 155.62 86.82 143.65 101.79 158.61 101.79 158.61 101.79 182.56 101.79"/>
            </g>
            <rect class="cls-7" x="197.19" y="67.01" width="40.2" height="35.55"/>
            <g>
              <path class="cls-17" d="m222.58,84.67c-2.24-.88-3.82-3.06-3.82-5.61,0-3.33,2.7-6.03,6.03-6.03s6.03,2.7,6.03,6.03c0,2.56-1.6,4.75-3.85,5.62"/>
              <polygon class="cls-18" points="236.74 101.79 224.77 80.84 216.54 95.24 209.8 86.82 197.83 101.79 212.8 101.79 212.8 101.79 236.74 101.79"/>
            </g>
          </g>
          <rect class="cls-19" x="88.22" y="50.99" width="149.81" height="1.58"/>
          <rect class="cls-19" x="88.22" y="53.31" width="149.81" height="1.58"/>
          <rect class="cls-19" x="88.22" y="55.63" width="149.81" height="1.58"/>
          <rect class="cls-19" x="88.22" y="57.96" width="149.81" height="1.58"/>
          <rect class="cls-19" x="88.22" y="60.28" width="41.81" height="1.58"/>
          <g>
            <path class="cls-3" d="m133.26,109.09h-2.48c-1.51,0-2.73,1.22-2.73,2.73v5.27h70.21v-8h-65"/>
            <rect class="cls-19" x="134.92" y="111.06" width="61.13" height="1.58"/>
            <rect class="cls-19" x="134.92" y="114.01" width="61.13" height="1.58"/>
            <path class="cls-13" d="m130.73,109.04h2.54v8.1h-5.28v-5.37c0-1.51,1.22-2.73,2.73-2.73Z"/>
          </g>
        </g>
      </g>
      <g>
        <path class="cls-6" d="m297.81,41.82h-.32v-2.45c0-1.89-1.53-3.42-3.42-3.42h-37.28c-1.89,0-3.42,1.53-3.42,3.42v4.34h-.78c-.41.02-.74.34-.73.73l.04,5.52c0,.39.34.71.75.71h.72v67.48c0,1.89,1.53,3.42,3.42,3.42h37.28c1.89,0,3.42-1.53,3.42-3.42v-62.24h.32c.37,0,.67-.32.67-.71v-12.67c0-.39-.3-.71-.67-.71Z"/>
        <rect class="cls-11" x="255.12" y="39.44" width="40.63" height="79.1" rx="2.99" ry="2.99"/>
        <circle class="cls-20" cx="276.03" cy="77.66" r="12.51"/>
        <path class="cls-10" d="m282.31,84.93h-12.84c-.12,0-.23-.05-.32-.13-.08-.08-.13-.2-.13-.32.01-.46.02-.87.03-1.26.07-3.91.25-4.53,4.52-5.57l.19-1.15c-.39-.53-.67-1.18-.83-1.97-.31-.22-.54-.66-.61-1.19-.09-.65.06-1.2.39-1.47-.09-1.25.31-2.04.68-2.49.56-.68,1.48-1.09,2.48-1.09,1.11,0,2.09.48,2.64,1.28.41.61.6,1.4.53,2.31.33.28.49.83.39,1.46-.07.51-.3.94-.59,1.18-.16.78-.44,1.45-.83,1.98l.19,1.14c4.28,1.06,4.46,1.68,4.52,5.59,0,.38.01.8.03,1.26,0,.12-.04.23-.13.32-.08.09-.2.13-.32.13Zm-12.39-.89h11.93c0-.29-.01-.55-.02-.81-.06-3.68-.06-3.82-4.13-4.81-.18-.04-.31-.18-.34-.36l-.27-1.62c-.02-.13.02-.26.1-.36.39-.47.67-1.13.8-1.92.03-.16.13-.29.29-.34.05-.03.21-.23.27-.61.05-.38-.04-.62-.09-.66-.12-.02-.2-.06-.27-.16-.07-.09-.08-.2-.07-.32.1-.81-.02-1.5-.36-2-.38-.56-1.09-.89-1.9-.89-.73,0-1.4.28-1.79.75-.41.51-.57,1.24-.46,2.13.03.24-.13.46-.37.5,0,.02-.11.26-.05.64s.22.58.27.61c.16.05.27.18.3.35.13.79.41,1.45.8,1.91.08.1.12.23.1.36l-.27,1.63c-.03.18-.16.32-.33.36-4.06.97-4.06,1.12-4.13,4.8,0,.25,0,.52-.02.81Z"/>
        <path class="cls-2" d="m285.78,115.68l7.33-7.33"/>
        <path class="cls-2" d="m288.8,115.9l4.1-4.1"/>
      </g>
      <g>
        <rect class="cls-9" x=".34" y="104.04" width="82.99" height="82.99" rx="5.93" ry="5.93"/>
        <rect class="cls-9" x="66.98" y="126.02" width="7.18" height="7.18" rx=".9" ry=".9"/>
        <rect class="cls-9" x="66.98" y="140.87" width="7.18" height="7.18" rx=".9" ry=".9"/>
        <rect class="cls-9" x="52.61" y="126.02" width="7.18" height="7.18" rx=".9" ry=".9"/>
        <rect class="cls-9" x="52.61" y="140.87" width="7.18" height="7.18" rx=".9" ry=".9"/>
        <rect class="cls-9" x="38.25" y="126.02" width="7.18" height="7.18" rx=".9" ry=".9"/>
        <rect class="cls-9" x="38.25" y="140.87" width="7.18" height="7.18" rx=".9" ry=".9"/>
        <rect class="cls-9" x="23.88" y="126.02" width="7.18" height="7.18" rx=".9" ry=".9"/>
        <rect class="cls-9" x="23.88" y="140.87" width="7.18" height="7.18" rx=".9" ry=".9"/>
        <rect class="cls-8" x="9.51" y="126.02" width="7.18" height="7.18" rx=".9" ry=".9"/>
        <rect class="cls-9" x="9.51" y="140.87" width="7.18" height="7.18" rx=".9" ry=".9"/>
        <rect class="cls-9" x="66.98" y="153.99" width="7.18" height="7.18" rx=".9" ry=".9"/>
        <rect class="cls-9" x="66.98" y="168.84" width="7.18" height="7.18" rx=".9" ry=".9"/>
        <rect class="cls-9" x="52.61" y="153.99" width="7.18" height="7.18" rx=".9" ry=".9"/>
        <rect class="cls-9" x="52.61" y="168.84" width="7.18" height="7.18" rx=".9" ry=".9"/>
        <rect class="cls-9" x="38.25" y="153.99" width="7.18" height="7.18" rx=".9" ry=".9"/>
        <rect class="cls-9" x="38.25" y="168.84" width="7.18" height="7.18" rx=".9" ry=".9"/>
        <rect class="cls-9" x="23.88" y="153.99" width="7.18" height="7.18" rx=".9" ry=".9"/>
        <rect class="cls-9" x="23.88" y="168.84" width="7.18" height="7.18" rx=".9" ry=".9"/>
        <rect class="cls-9" x="9.51" y="153.99" width="7.18" height="7.18" rx=".9" ry=".9"/>
        <rect class="cls-9" x="9.51" y="168.84" width="7.18" height="7.18" rx=".9" ry=".9"/>
        <g>
          <rect class="cls-9" x="22.81" y="96.19" width="6.49" height="15.57" rx="1.29" ry="1.29"/>
          <rect class="cls-9" x="54.38" y="96.19" width="6.49" height="15.57" rx="1.29" ry="1.29"/>
        </g>
      </g>
    </g>
  </g>
</svg>