<?xml version="1.0" encoding="UTF-8"?>
<svg id="images-icons" xmlns="http://www.w3.org/2000/svg" xmlns:xlink="http://www.w3.org/1999/xlink" viewBox="0 0 800 809.44">
  <defs>
    <style>
      .cls-1 {
        fill: url(#linear-gradient);
      }

      .cls-2 {
        fill: #f2f2f2;
      }

      .cls-3, .cls-4, .cls-5 {
        fill: #fff;
      }

      .cls-6 {
        fill: #ff3645;
      }

      .cls-7 {
        fill: #333;
      }

      .cls-8, .cls-9 {
        fill: #0792ff;
      }

      .cls-10 {
        fill: #18b2fa;
      }

      .cls-11 {
        fill: #386292;
      }

      .cls-12 {
        fill: #52ef6c;
      }

      .cls-13 {
        fill: #4d4d4d;
      }

      .cls-9 {
        opacity: .2;
      }

      .cls-4 {
        opacity: .9;
      }

      .cls-5 {
        opacity: .7;
      }
    </style>
    <linearGradient id="linear-gradient" x1="115.99" y1="673.83" x2="673.08" y2="116.74" gradientTransform="translate(-.75 789.83) rotate(-90)" gradientUnits="userSpaceOnUse">
      <stop offset="0" stop-color="#2bc2db"/>
      <stop offset=".97" stop-color="#2b89db"/>
      <stop offset="1" stop-color="#2b88db"/>
    </linearGradient>
  </defs>
  <ellipse class="cls-9" cx="393.34" cy="459.97" rx="321.04" ry="313.92"/>
  <path class="cls-8" d="m396.33,809.44v-1.91c3.56-.03,7.18-.11,10.75-.24l.07,1.91c-3.58.13-7.22.21-10.82.24Zm-10.83-.07c-3.6-.08-7.25-.21-10.82-.39l.1-1.9c3.56.18,7.18.31,10.77.38l-.04,1.91Zm32.46-.73l-.13-1.9c3.56-.24,7.18-.53,10.74-.87l.18,1.9c-3.58.34-7.21.64-10.79.88Zm-54.09-.36c-3.59-.29-7.22-.63-10.78-1.02l.21-1.9c3.54.39,7.15.73,10.72,1.02l-.15,1.9Zm75.65-1.72l-.24-1.89c3.55-.45,7.14-.96,10.67-1.51l.29,1.88c-3.55.55-7.15,1.06-10.72,1.51Zm-97.17-.64c-3.58-.5-7.18-1.06-10.7-1.66l.32-1.88c3.51.6,7.09,1.15,10.65,1.65l-.26,1.89Zm118.57-2.71l-.35-1.87c3.52-.66,7.08-1.38,10.56-2.14l.41,1.86c-3.5.76-7.07,1.49-10.61,2.15Zm-139.92-.93c-3.52-.71-7.09-1.48-10.58-2.29l.43-1.86c3.48.81,7.02,1.58,10.53,2.28l-.38,1.87Zm161.08-3.69l-.46-1.85c3.47-.87,6.97-1.8,10.41-2.77l.52,1.83c-3.46.98-6.98,1.91-10.47,2.78Zm-182.17-1.21c-3.49-.92-6.99-1.9-10.43-2.92l.54-1.83c3.42,1.01,6.91,1.99,10.37,2.91l-.49,1.84Zm203.02-4.67l-.57-1.82c3.4-1.07,6.84-2.21,10.23-3.39l.63,1.8c-3.4,1.18-6.86,2.33-10.28,3.41Zm-223.78-1.49c-3.41-1.12-6.86-2.32-10.23-3.54l.65-1.79c3.36,1.22,6.79,2.41,10.18,3.53l-.6,1.81Zm244.23-5.63l-.68-1.78c3.34-1.27,6.7-2.62,10-4l.73,1.76c-3.32,1.39-6.7,2.74-10.06,4.02Zm-264.62-1.78c-3.36-1.34-6.73-2.74-10.03-4.17l.76-1.75c3.28,1.42,6.64,2.82,9.98,4.15l-.71,1.77Zm284.61-6.56l-.79-1.74c3.25-1.47,6.52-3.01,9.71-4.58l.84,1.71c-3.21,1.57-6.5,3.12-9.77,4.6Zm-304.55-2.08c-3.27-1.53-6.55-3.14-9.76-4.76l.86-1.7c3.19,1.62,6.45,3.21,9.71,4.74l-.81,1.73Zm323.94-7.41l-.89-1.69c3.16-1.67,6.33-3.4,9.43-5.15l.94,1.66c-3.11,1.76-6.3,3.51-9.48,5.18Zm-343.3-2.41c-3.17-1.73-6.35-3.53-9.45-5.34l.96-1.64c3.08,1.8,6.24,3.59,9.4,5.31l-.91,1.67Zm362.1-8.24l-.99-1.63c3.06-1.86,6.12-3.78,9.1-5.72l1.04,1.6c-3,1.95-6.08,3.88-9.15,5.75Zm-380.83-2.73c-3.04-1.9-6.1-3.89-9.1-5.9l1.06-1.58c2.99,2,6.03,3.98,9.06,5.87l-1.01,1.61Zm398.96-9.04l-1.09-1.57c2.94-2.04,5.88-4.14,8.75-6.26l1.13,1.53c-2.88,2.12-5.84,4.24-8.79,6.29Zm-416.98-3.03c-2.93-2.09-5.87-4.26-8.73-6.44l1.16-1.52c2.85,2.17,5.77,4.32,8.68,6.4l-1.11,1.55Zm434.38-9.81l-1.18-1.5c2.81-2.21,5.62-4.49,8.36-6.77l1.22,1.46c-2.75,2.3-5.58,4.59-8.4,6.81Zm-451.63-3.33c-2.8-2.27-5.59-4.61-8.32-6.95l1.24-1.44c2.71,2.34,5.49,4.66,8.27,6.92l-1.2,1.48Zm468.22-10.54l-1.27-1.42c2.67-2.38,5.34-4.82,7.93-7.27l1.31,1.39c-2.61,2.46-5.29,4.92-7.98,7.31Zm-484.65-3.61c-2.65-2.43-5.3-4.93-7.88-7.44l1.33-1.37c2.56,2.49,5.2,4.98,7.84,7.4l-1.29,1.41Zm500.37-11.25l-1.35-1.35c2.52-2.53,5.03-5.13,7.48-7.74l1.39,1.3c-2.46,2.62-4.99,5.24-7.52,7.78Zm-515.9-3.87c-2.49-2.58-4.98-5.24-7.41-7.91l1.41-1.28c2.41,2.66,4.89,5.3,7.37,7.86l-1.37,1.32Zm530.7-11.92l-1.43-1.26c2.37-2.69,4.72-5.44,6.99-8.19l1.47,1.22c-2.29,2.76-4.65,5.53-7.03,8.23Zm-545.27-4.11c-2.33-2.73-4.66-5.54-6.91-8.34l1.49-1.19c2.24,2.79,4.55,5.58,6.87,8.3l-1.45,1.24Zm559.08-12.57l-1.51-1.17c2.2-2.82,4.38-5.72,6.48-8.61l1.54,1.12c-2.12,2.9-4.31,5.81-6.52,8.65Zm-572.63-4.32c-2.17-2.88-4.31-5.82-6.38-8.75l1.56-1.1c2.05,2.91,4.19,5.84,6.34,8.7l-1.52,1.15Zm585.39-13.18l-1.57-1.07c2.02-2.96,4.02-5.98,5.94-8.99l1.61,1.03c-1.93,3.03-3.94,6.07-5.97,9.04Zm-597.87-4.5c-1.97-2.99-3.93-6.06-5.82-9.12l1.62-1c1.88,3.04,3.83,6.1,5.79,9.07l-1.59,1.05Zm609.53-13.77l-1.64-.98c1.83-3.07,3.63-6.21,5.37-9.35l1.67.92c-1.75,3.15-3.56,6.32-5.4,9.4Zm-620.89-4.65c-1.79-3.12-3.55-6.3-5.24-9.46l1.68-.9c1.68,3.14,3.43,6.3,5.21,9.41l-1.65.95Zm631.39-14.32l-1.7-.87c1.63-3.18,3.24-6.44,4.78-9.67l1.72.82c-1.54,3.25-3.16,6.52-4.8,9.73Zm-641.57-4.75c-1.6-3.23-3.15-6.51-4.63-9.76l1.74-.79c1.47,3.23,3.02,6.5,4.61,9.71l-1.71.84Zm650.86-14.85l-1.75-.76c1.43-3.29,2.83-6.64,4.16-9.96l1.77.71c-1.33,3.34-2.74,6.71-4.18,10.02Zm-659.82-4.81c-1.38-3.31-2.73-6.68-4.01-10.03l1.78-.68c1.27,3.33,2.61,6.68,3.99,9.97l-1.76.74Zm667.87-15.35l-1.79-.65c1.22-3.37,2.41-6.81,3.52-10.21l1.81.59c-1.12,3.42-2.31,6.88-3.54,10.27Zm-675.56-4.82c-1.18-3.41-2.31-6.87-3.38-10.29l1.82-.56c1.06,3.4,2.19,6.85,3.36,10.23l-1.8.62Zm682.31-15.82l-1.83-.53c1-3.42,1.96-6.92,2.86-10.38l1.85.48c-.9,3.49-1.86,7-2.87,10.44Zm-688.74-4.86c-.95-3.46-1.87-6.98-2.72-10.48l1.85-.45c.84,3.48,1.75,6.99,2.7,10.43l-1.84.51Zm694.15-16.11l-1.86-.42c.78-3.49,1.52-7.04,2.19-10.55l1.87.36c-.67,3.53-1.41,7.09-2.2,10.61Zm-699.24-4.94c-.73-3.51-1.42-7.09-2.04-10.64l1.88-.33c.62,3.53,1.3,7.09,2.03,10.58l-1.87.39Zm703.31-16.33l-1.88-.3c.56-3.52,1.07-7.11,1.52-10.66l1.89.24c-.45,3.57-.96,7.18-1.53,10.72Zm-707.06-5c-.51-3.55-.97-7.16-1.37-10.74l1.9-.21c.4,3.56.85,7.16,1.36,10.68l-1.89.27Zm709.77-16.49l-1.9-.18c.33-3.55.62-7.16.84-10.74l1.9.12c-.22,3.6-.51,7.23-.85,10.8Zm-712.16-5.03c-.28-3.57-.51-7.21-.69-10.81l1.9-.09c.17,3.58.4,7.2.68,10.75l-1.9.15Zm713.51-16.58l-1.91-.06c.11-3.57.17-7.2.17-10.77h1.91c0,3.59-.06,7.24-.17,10.83Zm-714.55-5.05c-.03-1.94-.05-3.88-.05-5.77,0-1.69.01-3.37.04-5.06l1.91.03c-.02,1.67-.04,3.35-.04,5.03,0,1.88.02,3.82.05,5.74l-1.91.03Zm712.81-6.48c0-3.59-.07-7.21-.19-10.77l1.91-.06c.12,3.58.18,7.22.19,10.83h-1.91Zm-710.59-15.09l-1.9-.09c.16-3.6.39-7.24.66-10.81l1.9.15c-.27,3.55-.5,7.17-.66,10.75Zm709.88-6.43c-.23-3.57-.52-7.18-.86-10.74l1.9-.18c.34,3.57.64,7.21.87,10.8l-1.9.12Zm-708.22-15.04l-1.9-.21c.39-3.58.84-7.19,1.34-10.75l1.89.27c-.5,3.54-.95,7.13-1.34,10.69Zm706.16-6.4c-.46-3.55-.97-7.14-1.54-10.66l1.88-.3c.57,3.54,1.09,7.15,1.55,10.72l-1.89.24Zm-703.15-14.93l-1.88-.33c.62-3.55,1.3-7.13,2.02-10.64l1.87.39c-.72,3.49-1.4,7.05-2.01,10.58Zm699.73-6.34c-.68-3.5-1.42-7.05-2.21-10.54l1.86-.42c.8,3.51,1.54,7.08,2.22,10.6l-1.87.36Zm-695.37-14.75l-1.85-.44c.84-3.5,1.75-7.03,2.69-10.49l1.84.5c-.94,3.44-1.84,6.95-2.68,10.43Zm690.62-6.25c-.9-3.46-1.87-6.95-2.88-10.38l1.83-.54c1.01,3.44,1.99,6.96,2.89,10.44l-1.84.48Zm-684.92-14.56l-1.82-.56c1.06-3.44,2.19-6.92,3.37-10.33l1.8.62c-1.17,3.39-2.29,6.85-3.35,10.27Zm678.84-6.11c-1.11-3.38-2.3-6.81-3.53-10.18l1.79-.65c1.24,3.39,2.43,6.83,3.55,10.23l-1.81.6Zm-671.82-14.32l-1.78-.68c1.27-3.35,2.62-6.74,4.01-10.09l1.76.73c-1.38,3.32-2.72,6.7-3.99,10.03Zm664.45-5.88c-1.32-3.3-2.72-6.63-4.15-9.91l1.75-.76c1.44,3.29,2.85,6.64,4.18,9.96l-1.77.71Zm-656.16-14.04l-1.74-.79c1.49-3.28,3.05-6.58,4.64-9.81l1.71.84c-1.58,3.21-3.13,6.49-4.61,9.75Zm647.54-5.63c-1.53-3.22-3.14-6.46-4.77-9.63l1.69-.87c1.64,3.19,3.26,6.45,4.8,9.69l-1.72.82Zm-638.01-13.72l-1.68-.9c1.68-3.17,3.45-6.36,5.24-9.49l1.65.95c-1.78,3.11-3.54,6.29-5.21,9.44Zm628.16-5.39c-1.73-3.12-3.54-6.26-5.37-9.32l1.64-.98c1.84,3.08,3.65,6.23,5.4,9.37l-1.67.93Zm-617.45-13.31l-1.62-1c1.88-3.06,3.84-6.13,5.82-9.14l1.59,1.05c-1.97,2.99-3.92,6.05-5.79,9.09Zm606.42-5.16c-1.93-3.01-3.92-6.03-5.94-8.97l1.57-1.08c2.03,2.96,4.03,6,5.97,9.02l-1.61,1.03Zm-594.56-12.84l-1.56-1.1c2.06-2.93,4.21-5.88,6.37-8.76l1.52,1.15c-2.15,2.87-4.29,5.8-6.34,8.71Zm582.41-4.93c-2.1-2.87-4.28-5.76-6.49-8.59l1.5-1.17c2.22,2.85,4.41,5.75,6.52,8.64l-1.54,1.12Zm-569.46-12.29l-1.49-1.19c2.24-2.8,4.56-5.6,6.9-8.35l1.45,1.24c-2.33,2.73-4.63,5.52-6.86,8.3Zm556.23-4.69c-2.28-2.75-4.64-5.5-7-8.18l1.43-1.26c2.38,2.7,4.75,5.47,7.04,8.23l-1.47,1.22Zm-542.26-11.69l-1.41-1.28c2.41-2.66,4.9-5.32,7.39-7.91l1.37,1.32c-2.48,2.58-4.96,5.22-7.35,7.86Zm528-4.46c-2.45-2.61-4.97-5.21-7.49-7.74l1.35-1.35c2.54,2.55,5.08,5.17,7.54,7.79l-1.39,1.3Zm-513.06-11.04l-1.33-1.36c2.56-2.5,5.21-5,7.86-7.44l1.29,1.4c-2.64,2.42-5.27,4.91-7.82,7.4Zm497.83-4.22c-2.6-2.45-5.28-4.9-7.96-7.28l1.26-1.43c2.69,2.39,5.38,4.85,8,7.32l-1.31,1.39Zm-481.98-10.34l-1.25-1.44c2.71-2.34,5.5-4.68,8.29-6.95l1.2,1.48c-2.77,2.25-5.55,4.58-8.25,6.91Zm465.85-3.97c-2.74-2.29-5.57-4.57-8.39-6.78l1.18-1.5c2.84,2.22,5.67,4.52,8.43,6.82l-1.22,1.46Zm-449.15-9.6l-1.16-1.52c2.84-2.17,5.77-4.33,8.69-6.43l1.11,1.55c-2.91,2.08-5.82,4.24-8.65,6.4Zm432.18-3.71c-2.88-2.12-5.84-4.23-8.78-6.26l1.08-1.57c2.96,2.04,5.93,4.16,8.83,6.3l-1.13,1.54Zm-414.7-8.81l-1.06-1.58c2.97-2,6.02-3.98,9.06-5.89l1.02,1.61c-3.02,1.9-6.06,3.87-9.01,5.86Zm396.94-3.45c-3.01-1.95-6.09-3.87-9.15-5.72l.99-1.63c3.08,1.86,6.17,3.8,9.2,5.75l-1.04,1.6Zm-378.75-8l-.97-1.64c3.09-1.82,6.25-3.61,9.39-5.33l.92,1.67c-3.13,1.71-6.27,3.5-9.34,5.3Zm360.27-3.17c-3.12-1.76-6.31-3.49-9.48-5.16l.89-1.69c3.19,1.68,6.4,3.42,9.53,5.19l-.94,1.66Zm-341.43-7.15l-.87-1.7c3.2-1.63,6.46-3.23,9.69-4.76l.81,1.72c-3.22,1.52-6.46,3.11-9.64,4.73Zm322.31-2.88c-3.22-1.57-6.51-3.11-9.78-4.58l.78-1.74c3.29,1.48,6.6,3.03,9.84,4.61l-.84,1.71Zm-302.9-6.29l-.76-1.75c3.3-1.44,6.66-2.84,9.99-4.18l.71,1.77c-3.32,1.33-6.66,2.73-9.94,4.16Zm283.19-2.58c-3.31-1.37-6.69-2.71-10.05-3.99l.68-1.78c3.37,1.28,6.77,2.63,10.1,4.01l-.73,1.76Zm-263.2-5.43l-.66-1.79c3.37-1.23,6.81-2.43,10.22-3.57l.6,1.81c-3.4,1.13-6.82,2.32-10.17,3.55Zm243.02-2.22c-3.38-1.17-6.82-2.3-10.23-3.36l.57-1.82c3.43,1.07,6.89,2.21,10.29,3.38l-.62,1.8Zm-222.58-4.57l-.55-1.83c3.44-1.03,6.94-2.02,10.42-2.95l.49,1.84c-3.46.92-6.94,1.91-10.37,2.93Zm202.01-1.84c-3.45-.96-6.95-1.88-10.42-2.74l.46-1.85c3.49.86,7.01,1.79,10.47,2.76l-.51,1.84Zm-181.2-3.71l-.44-1.86c3.5-.82,7.06-1.6,10.58-2.32l.38,1.87c-3.5.71-7.04,1.49-10.52,2.31Zm160.28-1.46c-3.5-.75-7.05-1.46-10.56-2.11l.35-1.87c3.53.65,7.1,1.37,10.62,2.12l-.4,1.86Zm-139.17-2.84l-.32-1.88c3.54-.61,7.14-1.18,10.7-1.68l.27,1.89c-3.54.5-7.12,1.07-10.64,1.68Zm117.99-1.07c-3.53-.54-7.12-1.04-10.67-1.48l.23-1.89c3.57.44,7.18.94,10.73,1.49l-.29,1.88Zm-96.66-1.96l-.21-1.89c3.57-.4,7.2-.75,10.78-1.05l.16,1.9c-3.56.29-7.17.64-10.72,1.04Zm75.28-.68c-3.56-.33-7.17-.62-10.74-.85l.12-1.9c3.59.23,7.22.52,10.8.85l-.18,1.9Zm-53.81-1.09l-.1-1.9c3.59-.19,7.23-.33,10.82-.41l.04,1.91c-3.58.08-7.2.22-10.77.41Zm32.31-.29c-3.56-.12-7.19-.2-10.77-.22v-1.91c3.61.02,7.26.09,10.84.22l-.07,1.91Z"/>
  <g>
    <g>
      <g>
        <g>
          <path class="cls-11" d="m189.18,166.92v70.47h-3.19c-5.64,0-10.25-4.44-10.29-9.89l-.38-50.52c-.04-5.42,4.48-9.92,10.08-10.03l3.79-.04"/>
          <path class="cls-7" d="m599.42,162.39h-2.95V34.75c0-17.3-14.02-31.32-31.32-31.32H223.93c-17.3,0-31.32,14.02-31.32,31.32v210.87l-7.14.07c-3.75.07-6.75,3-6.72,6.58l.38,50.52c.03,3.59,3.09,6.48,6.87,6.48h6.62v446.55c0,17.3,14.02,31.32,31.32,31.32h341.22c17.3,0,31.32-14.02,31.32-31.32v-464.5h2.95c3.39,0,6.13-2.89,6.13-6.46v-116.02c0-3.56-2.75-6.46-6.13-6.46Z"/>
          <path class="cls-11" d="m565.15,790.57H223.93c-19.16,0-34.75-15.59-34.75-34.75v-443.13h-3.19c-5.64,0-10.25-4.44-10.29-9.89l-.38-50.52c-.04-5.42,4.48-9.92,10.08-10.03l3.79-.04V34.75c0-19.16,15.59-34.75,34.75-34.75h341.22c19.16,0,34.75,15.59,34.75,34.75v124.23c5.05.26,9.08,4.59,9.08,9.87v116.02c0,5.28-4.04,9.61-9.08,9.87v461.09c0,19.16-15.59,34.75-34.75,34.75ZM223.93,6.86c-15.38,0-27.89,12.51-27.89,27.89v214.26l-10.54.1c-1.83.04-3.34,1.44-3.33,3.12l.38,50.52c0,1.7,1.56,3.08,3.44,3.08h10.05v449.98c0,15.38,12.51,27.9,27.89,27.9h341.22c15.38,0,27.89-12.51,27.89-27.9v-467.93h6.38c1.49,0,2.7-1.35,2.7-3.03v-116.02c0-1.67-1.21-3.03-2.7-3.03h-6.38V34.75c0-15.38-12.51-27.89-27.89-27.89H223.93Z"/>
          <path class="cls-7" d="m199.34,173.74l-14.11.1c-1.83.04-3.34,1.44-3.33,3.12l.38,50.52c0,1.7,1.56,3.08,3.44,3.08h15.48l-1.86-56.83Z"/>
        </g>
        <path class="cls-1" d="m35.44,205.73h718.19c11.26,0,20.4,9.14,20.4,20.4v338.33c0,11.26-9.14,20.4-20.4,20.4H35.44c-11.26,0-20.39-9.14-20.39-20.39V226.12c0-11.26,9.14-20.4,20.4-20.4Z" transform="translate(789.83 .75) rotate(90)"/>
        <path class="cls-7" d="m264.27,9.65h256.4v17.17c0,8.72-7.08,15.79-15.79,15.79h-224.81c-8.72,0-15.79-7.08-15.79-15.79V9.65h0Z"/>
      </g>
      <g>
        <path class="cls-3" d="m315.74,155.97l2.94-29.41h30.16v4.6h-25.89l-2.11,20.38c3.23-2.21,7.01-3.31,11.35-3.31,5.44,0,9.78,1.77,13.01,5.3,3.23,3.54,4.85,8.24,4.85,14.13,0,6.35-1.57,11.28-4.72,14.79-3.15,3.51-7.58,5.26-13.3,5.26-5.25,0-9.5-1.46-12.76-4.39-3.26-2.93-5.12-7.03-5.59-12.3h4.76c.47,4.12,1.86,7.23,4.18,9.34,2.32,2.11,5.45,3.17,9.4,3.17,4.31,0,7.56-1.37,9.76-4.1,2.2-2.73,3.29-6.63,3.29-11.68,0-4.42-1.23-8.02-3.69-10.81-2.46-2.79-5.81-4.18-10.07-4.18-2.35,0-4.39.3-6.13.89-1.74.59-3.58,1.75-5.51,3.46l-3.94-1.12Z"/>
        <path class="cls-3" d="m358.99,183.89c0-.97.31-1.79.93-2.47.62-.68,1.48-1.02,2.59-1.02s1.97.34,2.61,1.02c.63.68.95,1.5.95,2.47s-.32,1.76-.95,2.38c-.64.62-1.51.93-2.61.93s-1.97-.31-2.59-.93c-.62-.62-.93-1.42-.93-2.38Zm.08-38.24c0-.97.31-1.79.93-2.46.62-.68,1.48-1.02,2.59-1.02s1.97.34,2.61,1.02c.63.68.95,1.5.95,2.46s-.32,1.76-.95,2.38c-.64.62-1.51.93-2.61.93s-1.97-.31-2.59-.93c-.62-.62-.93-1.42-.93-2.38Z"/>
        <path class="cls-3" d="m413.59,161.73c0,8.51-1.56,14.96-4.68,19.37-3.12,4.41-7.72,6.61-13.8,6.61s-10.54-2.16-13.71-6.48c-3.18-4.32-4.81-10.61-4.89-18.87v-10.81c0-8.48,1.57-14.9,4.72-19.26,3.15-4.36,7.75-6.55,13.8-6.55s10.52,2.11,13.67,6.32c3.15,4.21,4.78,10.42,4.89,18.62v11.06Zm-4.97-10.81c0-6.9-1.13-12.12-3.38-15.66-2.25-3.54-5.66-5.3-10.21-5.3s-7.84,1.73-10.11,5.18c-2.27,3.45-3.43,8.55-3.48,15.29v11.85c0,6.88,1.17,12.14,3.5,15.78,2.33,3.65,5.72,5.47,10.17,5.47s7.77-1.78,10.05-5.34c2.28-3.56,3.43-8.78,3.46-15.66v-11.6Z"/>
        <path class="cls-3" d="m460.61,161.73c0,8.51-1.56,14.96-4.68,19.37-3.12,4.41-7.72,6.61-13.8,6.61s-10.54-2.16-13.71-6.48c-3.18-4.32-4.81-10.61-4.89-18.87v-10.81c0-8.48,1.57-14.9,4.72-19.26,3.15-4.36,7.75-6.55,13.8-6.55s10.52,2.11,13.67,6.32c3.15,4.21,4.78,10.42,4.89,18.62v11.06Zm-4.97-10.81c0-6.9-1.13-12.12-3.38-15.66-2.25-3.54-5.66-5.3-10.21-5.3s-7.84,1.73-10.11,5.18c-2.27,3.45-3.43,8.55-3.48,15.29v11.85c0,6.88,1.17,12.14,3.5,15.78,2.33,3.65,5.72,5.47,10.17,5.47s7.77-1.78,10.05-5.34c2.28-3.56,3.43-8.78,3.46-15.66v-11.6Z"/>
      </g>
      <g>
        <circle class="cls-4" cx="364.16" cy="747.88" r="7.86"/>
        <path class="cls-4" d="m430.93,742.23h-3.61c-.4,0-.78-.19-1.03-.5l-.94-1.21c-.25-.32-.63-.5-1.03-.5h-5.53c-.4,0-.78.19-1.03.5l-.94,1.21c-.25.32-.63.5-1.03.5h-3.61c-1.02,0-1.85.83-1.85,1.85v9.82c0,1.02.83,1.85,1.85,1.85h18.78c1.02,0,1.85-.83,1.85-1.85v-9.82c0-1.02-.83-1.85-1.85-1.85Zm-9.39,10.05c-1.97,0-3.58-1.61-3.58-3.58s1.61-3.58,3.58-3.58,3.58,1.61,3.58,3.58-1.61,3.58-3.58,3.58Zm6.21-7.31c-.37,0-.67-.3-.67-.67s.3-.67.67-.67.67.3.67.67-.3.67-.67.67Z"/>
      </g>
      <g>
        <path class="cls-2" d="m309.43,82.7h8.71v1.75h-6.62v5.38h6.12v1.73h-6.12v7.32h-2.09v-16.18Z"/>
        <path class="cls-2" d="m320.42,90.89c0-1.37-.02-2.54-.1-3.62h1.85l.07,2.28h.1c.53-1.56,1.8-2.54,3.22-2.54.24,0,.41.02.6.07v1.99c-.22-.05-.43-.07-.72-.07-1.49,0-2.54,1.13-2.83,2.71-.05.29-.1.62-.1.98v6.19h-2.09v-7.99Z"/>
        <path class="cls-2" d="m330.71,84c.02.72-.5,1.3-1.34,1.3-.74,0-1.27-.58-1.27-1.3s.55-1.32,1.32-1.32,1.3.58,1.3,1.32Zm-2.35,14.88v-11.62h2.11v11.62h-2.11Z"/>
        <path class="cls-2" d="m344.01,81.84v14.04c0,1.03.02,2.21.1,3h-1.9l-.1-2.02h-.05c-.65,1.3-2.06,2.28-3.96,2.28-2.81,0-4.97-2.38-4.97-5.9-.02-3.86,2.38-6.24,5.21-6.24,1.78,0,2.98.84,3.5,1.78h.05v-6.94h2.11Zm-2.11,10.15c0-.26-.02-.62-.1-.89-.31-1.34-1.46-2.45-3.05-2.45-2.18,0-3.48,1.92-3.48,4.49,0,2.35,1.15,4.3,3.43,4.3,1.42,0,2.71-.94,3.1-2.52.07-.29.1-.58.1-.91v-2.02Z"/>
        <path class="cls-2" d="m353.95,98.88l-.17-1.46h-.07c-.65.91-1.9,1.73-3.55,1.73-2.35,0-3.55-1.66-3.55-3.34,0-2.81,2.5-4.34,6.98-4.32v-.24c0-.96-.26-2.69-2.64-2.69-1.08,0-2.21.34-3.02.86l-.48-1.39c.96-.62,2.35-1.03,3.82-1.03,3.55,0,4.42,2.42,4.42,4.75v4.34c0,1.01.05,1.99.19,2.78h-1.92Zm-.31-5.93c-2.3-.05-4.92.36-4.92,2.62,0,1.37.91,2.02,1.99,2.02,1.51,0,2.47-.96,2.81-1.94.07-.22.12-.46.12-.67v-2.02Z"/>
        <path class="cls-2" d="m359.66,87.26l2.54,6.87c.26.77.55,1.68.74,2.38h.05c.22-.7.46-1.58.74-2.42l2.3-6.82h2.23l-3.17,8.28c-1.51,3.98-2.54,6.02-3.98,7.27-1.03.91-2.06,1.27-2.59,1.37l-.53-1.78c.53-.17,1.22-.5,1.85-1.03.58-.46,1.3-1.27,1.78-2.35.1-.22.17-.38.17-.5s-.05-.29-.14-.55l-4.3-10.71h2.3Z"/>
        <path class="cls-2" d="m367.89,101.83c.53-1.42,1.18-3.98,1.44-5.74l2.35-.24c-.55,2.04-1.61,4.7-2.28,5.83l-1.51.14Z"/>
        <path class="cls-2" d="m382,93.79l-1.68,5.09h-2.16l5.5-16.18h2.52l5.52,16.18h-2.23l-1.73-5.09h-5.74Zm5.3-1.63l-1.58-4.66c-.36-1.06-.6-2.02-.84-2.95h-.05c-.24.96-.5,1.94-.82,2.93l-1.58,4.68h4.87Z"/>
        <path class="cls-2" d="m403.43,95.71c0,1.2.02,2.26.1,3.17h-1.87l-.12-1.9h-.05c-.55.94-1.78,2.16-3.84,2.16-1.82,0-4.01-1.01-4.01-5.09v-6.79h2.11v6.43c0,2.21.67,3.7,2.59,3.7,1.42,0,2.4-.98,2.78-1.92.12-.31.19-.7.19-1.08v-7.13h2.11v8.45Z"/>
        <path class="cls-2" d="m416.95,87.26c-.05.84-.1,1.78-.1,3.19v6.75c0,2.66-.53,4.3-1.66,5.3-1.13,1.06-2.76,1.39-4.22,1.39s-2.93-.34-3.86-.96l.53-1.61c.77.48,1.97.91,3.41.91,2.16,0,3.74-1.13,3.74-4.06v-1.3h-.05c-.65,1.08-1.9,1.94-3.7,1.94-2.88,0-4.94-2.45-4.94-5.67,0-3.94,2.57-6.17,5.23-6.17,2.02,0,3.12,1.06,3.62,2.02h.05l.1-1.75h1.85Zm-2.18,4.58c0-.36-.02-.67-.12-.96-.38-1.22-1.42-2.23-2.95-2.23-2.02,0-3.46,1.7-3.46,4.39,0,2.28,1.15,4.18,3.43,4.18,1.3,0,2.47-.82,2.93-2.16.12-.36.17-.77.17-1.13v-2.09Z"/>
        <path class="cls-2" d="m430.07,95.71c0,1.2.02,2.26.1,3.17h-1.87l-.12-1.9h-.05c-.55.94-1.78,2.16-3.84,2.16-1.82,0-4.01-1.01-4.01-5.09v-6.79h2.11v6.43c0,2.21.67,3.7,2.59,3.7,1.42,0,2.4-.98,2.78-1.92.12-.31.19-.7.19-1.08v-7.13h2.11v8.45Z"/>
        <path class="cls-2" d="m433.29,96.72c.62.41,1.73.84,2.78.84,1.54,0,2.26-.77,2.26-1.73,0-1.01-.6-1.56-2.16-2.14-2.09-.74-3.07-1.9-3.07-3.29,0-1.87,1.51-3.41,4.01-3.41,1.18,0,2.21.34,2.86.72l-.53,1.54c-.46-.29-1.3-.67-2.38-.67-1.25,0-1.94.72-1.94,1.58,0,.96.7,1.39,2.21,1.97,2.02.77,3.05,1.78,3.05,3.5,0,2.04-1.58,3.48-4.34,3.48-1.27,0-2.45-.31-3.26-.79l.53-1.61Z"/>
        <path class="cls-2" d="m445.63,83.93v3.34h3.02v1.61h-3.02v6.26c0,1.44.41,2.26,1.58,2.26.55,0,.96-.07,1.22-.14l.1,1.58c-.41.17-1.06.29-1.87.29-.98,0-1.78-.31-2.28-.89-.6-.62-.82-1.66-.82-3.02v-6.34h-1.8v-1.61h1.8v-2.78l2.06-.55Z"/>
        <path class="cls-2" d="m461.97,98.88v-4.25h-7.25v-1.39l6.96-9.96h2.28v9.7h2.18v1.66h-2.18v4.25h-1.99Zm0-5.9v-5.21c0-.82.02-1.63.07-2.45h-.07c-.48.91-.86,1.58-1.3,2.3l-3.82,5.3v.05h5.11Z"/>
      </g>
    </g>
    <g>
      <rect class="cls-5" x="221.24" y="243.75" width="350.42" height="94.32" rx="12.23" ry="12.23"/>
      <g>
        <rect class="cls-12" x="231.23" y="253.4" width="26.02" height="26.02" rx="3.19" ry="3.19"/>
        <path class="cls-3" d="m238.26,266.04c1.98,3.18,5.33,7.07,10.71,9.47,0,0,2.03.52,3.67-2.14.14-.23.09-.53-.12-.69l-3.71-2.84c-.16-.12-.37-.14-.55-.05l-1.64.85c-.17.09-.38.08-.54-.04-3.29-2.63-5.17-5.57-5.7-6.47-.1-.17-.09-.38.01-.54l1.01-1.55c.11-.17.11-.38,0-.55l-2.46-3.97c-.14-.23-.43-.31-.67-.19-2.81,1.37-2.49,3.44-2.49,3.44,0,0,.65,2.34,2.48,5.27Z"/>
      </g>
      <g>
        <path class="cls-13" d="m266.16,267.75v4.15h-1.4v-10.61h3.91c1.16,0,2.07.3,2.73.89.66.59.99,1.38.99,2.35,0,1.03-.32,1.82-.97,2.38-.64.56-1.57.83-2.76.83h-2.5Zm0-1.14h2.51c.75,0,1.32-.18,1.72-.53.4-.35.6-.86.6-1.53s-.2-1.14-.6-1.52c-.4-.38-.94-.58-1.64-.59h-2.59v4.17Z"/>
        <path class="cls-13" d="m282.32,271.91h-1.41v-4.9h-5.35v4.9h-1.4v-10.61h1.4v4.56h5.35v-4.56h1.41v10.61Z"/>
        <path class="cls-13" d="m292.96,266.94c0,1.04-.17,1.95-.52,2.72-.35.77-.84,1.37-1.49,1.77s-1.39.61-2.24.61-1.58-.21-2.22-.62c-.65-.41-1.15-1-1.5-1.76-.36-.76-.54-1.64-.55-2.64v-.76c0-1.02.18-1.92.53-2.7.35-.78.86-1.38,1.5-1.8.65-.42,1.39-.62,2.23-.62s1.6.2,2.25.62c.65.41,1.15,1,1.5,1.78.35.78.52,1.69.52,2.72v.67Zm-1.39-.68c0-1.26-.25-2.22-.76-2.9s-1.21-1.01-2.12-1.01-1.58.34-2.09,1.01c-.51.67-.77,1.61-.78,2.8v.78c0,1.22.26,2.18.77,2.87.51.7,1.22,1.05,2.12,1.05s1.6-.33,2.1-.99c.5-.66.75-1.6.77-2.83v-.79Z"/>
        <path class="cls-13" d="m303.21,271.91h-1.41l-5.34-8.17v8.17h-1.41v-10.61h1.41l5.35,8.21v-8.21h1.39v10.61Z"/>
        <path class="cls-13" d="m311.69,267h-4.6v3.76h5.34v1.14h-6.74v-10.61h6.66v1.14h-5.27v3.42h4.6v1.14Z"/>
      </g>
      <g>
        <path class="cls-13" d="m535.02,260.71l.05,1.11c.68-.85,1.56-1.28,2.66-1.28,1.87,0,2.82,1.06,2.84,3.17v5.86h-1.52v-5.87c0-.64-.15-1.11-.44-1.42s-.73-.46-1.34-.46c-.49,0-.92.13-1.29.39-.37.26-.66.61-.87,1.03v6.32h-1.52v-8.87h1.43Z"/>
        <path class="cls-13" d="m542.45,265.06c0-.87.17-1.65.51-2.34s.82-1.23,1.43-1.61c.61-.38,1.3-.57,2.09-.57,1.21,0,2.18.42,2.93,1.25.75.84,1.12,1.95,1.12,3.34v.11c0,.86-.17,1.64-.5,2.32-.33.69-.8,1.22-1.42,1.6-.61.38-1.32.57-2.12.57-1.2,0-2.18-.42-2.92-1.25-.75-.84-1.12-1.94-1.12-3.32v-.11Zm1.52.18c0,.98.23,1.77.68,2.37.46.6,1.07.89,1.83.89s1.38-.3,1.84-.91c.45-.6.68-1.45.68-2.54,0-.97-.23-1.76-.69-2.36-.46-.6-1.07-.91-1.84-.91s-1.35.3-1.81.89c-.46.6-.69,1.45-.69,2.56Z"/>
        <path class="cls-13" d="m560.27,267.48l1.7-6.78h1.52l-2.58,8.87h-1.23l-2.16-6.72-2.1,6.72h-1.23l-2.57-8.87h1.51l1.75,6.64,2.06-6.64h1.22l2.11,6.78Z"/>
      </g>
      <g>
        <path d="m241.37,299.05c0-.47-.16-.83-.49-1.08s-.92-.51-1.77-.77c-.85-.26-1.53-.54-2.04-.86-.97-.61-1.45-1.4-1.45-2.38,0-.85.35-1.56,1.05-2.11s1.6-.83,2.71-.83c.74,0,1.4.14,1.97.41s1.03.66,1.36,1.16.5,1.06.5,1.67h-1.84c0-.55-.17-.99-.52-1.3-.35-.31-.84-.47-1.49-.47-.6,0-1.07.13-1.4.39-.33.26-.5.62-.5,1.08,0,.39.18.71.54.97.36.26.95.51,1.78.76s1.49.52,1.99.84c.5.31.87.67,1.1,1.08.23.41.35.88.35,1.42,0,.88-.34,1.59-1.02,2.11-.68.52-1.6.78-2.76.78-.77,0-1.47-.14-2.12-.43s-1.14-.68-1.5-1.18-.53-1.08-.53-1.75h1.84c0,.6.2,1.07.6,1.4.4.33.97.5,1.71.5.64,0,1.12-.13,1.45-.39.32-.26.48-.6.48-1.03Z"/>
        <path d="m249.36,301.78c-.08-.15-.15-.4-.2-.74-.56.59-1.25.88-2.07.88s-1.44-.23-1.94-.68c-.5-.45-.75-1.01-.75-1.68,0-.84.31-1.48.94-1.93.62-.45,1.52-.67,2.68-.67h1.08v-.52c0-.41-.11-.73-.34-.98-.23-.25-.58-.37-1.04-.37-.4,0-.73.1-.99.3-.26.2-.39.46-.39.77h-1.77c0-.43.14-.84.43-1.21.29-.38.68-.67,1.17-.89.49-.21,1.04-.32,1.65-.32.92,0,1.66.23,2.21.7s.83,1.12.84,1.96v3.55c0,.71.1,1.27.3,1.7v.12h-1.81Zm-1.95-1.27c.35,0,.68-.09.99-.26.31-.17.54-.4.7-.68v-1.49h-.95c-.66,0-1.15.11-1.48.34-.33.23-.5.55-.5.97,0,.34.11.61.34.81s.53.3.91.3Z"/>
        <path d="m254.61,301.78h-1.77v-11.19h1.77v11.19Z"/>
        <path d="m260.01,301.93c-1.12,0-2.03-.35-2.73-1.06-.7-.71-1.05-1.65-1.05-2.82v-.22c0-.79.15-1.49.46-2.11.3-.62.73-1.1,1.28-1.45.55-.35,1.16-.52,1.84-.52,1.07,0,1.9.34,2.49,1.03s.88,1.65.88,2.91v.71h-5.15c.05.65.27,1.17.65,1.54.38.38.86.57,1.44.57.81,0,1.47-.33,1.98-.98l.95.91c-.32.47-.74.84-1.26,1.1-.53.26-1.12.39-1.77.39Zm-.21-6.75c-.49,0-.88.17-1.18.51-.3.34-.49.81-.57,1.42h3.37v-.13c-.04-.59-.2-1.04-.47-1.34-.28-.3-.66-.45-1.15-.45Z"/>
        <path d="m268.96,299.64c0-.32-.13-.56-.39-.72-.26-.17-.69-.31-1.29-.44-.6-.13-1.1-.29-1.51-.48-.88-.43-1.33-1.05-1.33-1.86,0-.68.29-1.25.86-1.7.57-.46,1.3-.69,2.19-.69.94,0,1.7.23,2.28.7s.87,1.07.87,1.81h-1.77c0-.34-.13-.62-.38-.85s-.59-.34-1-.34c-.39,0-.71.09-.95.27-.25.18-.37.42-.37.72,0,.27.11.48.34.63.23.15.69.3,1.38.45.69.15,1.24.34,1.64.55.4.21.69.47.88.76s.29.66.29,1.08c0,.71-.29,1.28-.88,1.72-.59.44-1.36.66-2.31.66-.65,0-1.22-.12-1.73-.35-.51-.23-.9-.55-1.18-.96s-.42-.85-.42-1.32h1.72c.02.42.18.74.47.97.29.23.68.34,1.16.34s.82-.09,1.06-.27c.24-.18.36-.41.36-.7Z"/>
        <path d="m279.14,297.92c0,1.22-.28,2.19-.83,2.92s-1.3,1.09-2.23,1.09c-.86,0-1.56-.28-2.08-.85v3.74h-1.77v-10.91h1.63l.07.8c.52-.63,1.23-.95,2.12-.95.96,0,1.72.36,2.26,1.07.55.72.82,1.71.82,2.98v.11Zm-1.76-.15c0-.79-.16-1.41-.47-1.87-.31-.46-.76-.69-1.34-.69-.72,0-1.24.3-1.56.9v3.5c.32.61.85.92,1.57.92.56,0,1-.23,1.32-.68.32-.45.48-1.14.48-2.06Z"/>
        <path d="m284.11,301.93c-1.12,0-2.03-.35-2.73-1.06-.7-.71-1.05-1.65-1.05-2.82v-.22c0-.79.15-1.49.46-2.11.3-.62.73-1.1,1.28-1.45.55-.35,1.16-.52,1.84-.52,1.07,0,1.9.34,2.49,1.03s.88,1.65.88,2.91v.71h-5.15c.05.65.27,1.17.65,1.54.38.38.86.57,1.44.57.81,0,1.47-.33,1.98-.98l.95.91c-.32.47-.74.84-1.26,1.1-.53.26-1.12.39-1.77.39Zm-.21-6.75c-.49,0-.88.17-1.18.51-.3.34-.49.81-.57,1.42h3.37v-.13c-.04-.59-.2-1.04-.47-1.34-.28-.3-.66-.45-1.15-.45Z"/>
        <path d="m292.77,295.52c-.23-.04-.47-.06-.72-.06-.81,0-1.36.31-1.64.93v5.39h-1.77v-7.88h1.69l.04.88c.43-.68,1.02-1.03,1.78-1.03.25,0,.46.03.63.1v1.66Z"/>
        <path d="m298.3,299.64c0-.32-.13-.56-.39-.72-.26-.17-.69-.31-1.29-.44-.6-.13-1.1-.29-1.51-.48-.88-.43-1.33-1.05-1.33-1.86,0-.68.29-1.25.86-1.7.57-.46,1.3-.69,2.19-.69.94,0,1.7.23,2.28.7s.87,1.07.87,1.81h-1.77c0-.34-.13-.62-.38-.85s-.59-.34-1-.34c-.39,0-.71.09-.95.27-.25.18-.37.42-.37.72,0,.27.11.48.34.63.23.15.69.3,1.38.45.69.15,1.24.34,1.64.55.4.21.69.47.88.76s.29.66.29,1.08c0,.71-.29,1.28-.88,1.72-.59.44-1.36.66-2.31.66-.65,0-1.22-.12-1.73-.35-.51-.23-.9-.55-1.18-.96s-.42-.85-.42-1.32h1.72c.02.42.18.74.47.97.29.23.68.34,1.16.34s.82-.09,1.06-.27c.24-.18.36-.41.36-.7Z"/>
        <path d="m301.25,297.77c0-.77.15-1.47.46-2.09.31-.62.74-1.1,1.29-1.43s1.19-.5,1.91-.5c1.06,0,1.93.34,2.59,1.03s1.02,1.59,1.07,2.72v.42c0,.78-.14,1.47-.44,2.08-.3.61-.73,1.09-1.28,1.42s-1.2.5-1.93.5c-1.11,0-2-.37-2.67-1.11s-1-1.73-1-2.96v-.09Zm1.77.15c0,.81.17,1.45.5,1.9.34.46.8.69,1.4.69s1.06-.23,1.4-.7.5-1.15.5-2.05c0-.8-.17-1.43-.51-1.89-.34-.47-.81-.7-1.4-.7s-1.04.23-1.38.69c-.34.46-.51,1.15-.51,2.06Z"/>
        <path d="m311.72,293.9l.05.91c.58-.7,1.35-1.06,2.29-1.06,1.64,0,2.48.94,2.51,2.82v5.21h-1.77v-5.11c0-.5-.11-.87-.32-1.11s-.57-.36-1.06-.36c-.71,0-1.25.32-1.6.97v5.61h-1.77v-7.88h1.67Z"/>
      </g>
      <g>
        <path d="m237.78,311.21l3.47,8.65,3.47-8.65h1.81v10.61h-1.4v-4.13l.13-4.46-3.48,8.59h-1.07l-3.47-8.57.14,4.44v4.13h-1.4v-10.61h1.81Z"/>
        <path d="m248.8,311.84c0-.22.07-.4.2-.55.13-.15.33-.23.59-.23s.46.08.6.23c.14.15.2.34.2.55s-.07.4-.2.55c-.14.15-.34.22-.6.22s-.46-.07-.59-.22c-.13-.15-.2-.33-.2-.55Zm1.46,9.97h-1.35v-7.88h1.35v7.88Z"/>
        <path d="m257,319.72c0-.36-.14-.65-.41-.85-.27-.2-.75-.37-1.43-.52s-1.22-.32-1.62-.52c-.4-.2-.7-.45-.89-.73-.19-.28-.29-.62-.29-1,0-.65.27-1.19.82-1.64.55-.45,1.24-.67,2.09-.67.89,0,1.62.23,2.17.69.56.46.83,1.05.83,1.77h-1.35c0-.37-.16-.69-.47-.95s-.71-.4-1.18-.4-.87.11-1.15.32c-.28.21-.42.49-.42.84,0,.33.13.57.39.74.26.17.72.32,1.39.47.67.15,1.22.33,1.64.54.42.21.73.46.93.75.2.29.3.65.3,1.07,0,.7-.28,1.27-.84,1.69s-1.29.64-2.19.64c-.63,0-1.19-.11-1.68-.34-.49-.22-.87-.54-1.14-.94-.27-.4-.41-.83-.41-1.3h1.35c.02.45.21.81.54,1.07.34.26.78.4,1.34.4.51,0,.92-.1,1.23-.31.31-.21.46-.48.46-.83Z"/>
        <path d="m264.69,319.72c0-.36-.14-.65-.41-.85-.27-.2-.75-.37-1.43-.52s-1.22-.32-1.62-.52c-.4-.2-.7-.45-.89-.73-.19-.28-.29-.62-.29-1,0-.65.27-1.19.82-1.64.55-.45,1.24-.67,2.09-.67.89,0,1.62.23,2.17.69.56.46.83,1.05.83,1.77h-1.35c0-.37-.16-.69-.47-.95s-.71-.4-1.18-.4-.87.11-1.15.32c-.28.21-.42.49-.42.84,0,.33.13.57.39.74.26.17.72.32,1.39.47.67.15,1.22.33,1.64.54.42.21.73.46.93.75.2.29.3.65.3,1.07,0,.7-.28,1.27-.84,1.69s-1.29.64-2.19.64c-.63,0-1.19-.11-1.68-.34-.49-.22-.87-.54-1.14-.94-.27-.4-.41-.83-.41-1.3h1.35c.02.45.21.81.54,1.07.34.26.78.4,1.34.4.51,0,.92-.1,1.23-.31.31-.21.46-.48.46-.83Z"/>
        <path d="m271.06,321.96c-1.07,0-1.94-.35-2.61-1.05s-1-1.64-1-2.82v-.25c0-.78.15-1.48.45-2.09.3-.61.72-1.09,1.25-1.44.54-.35,1.12-.52,1.74-.52,1.02,0,1.82.34,2.39,1.01.57.67.85,1.64.85,2.9v.56h-5.34c.02.78.25,1.4.68,1.88.43.48.99.72,1.66.72.48,0,.88-.1,1.21-.29s.62-.45.87-.77l.82.64c-.66,1.01-1.65,1.52-2.97,1.52Zm-.17-7.07c-.54,0-1,.2-1.37.59-.37.4-.6.95-.68,1.66h3.95v-.1c-.04-.68-.22-1.22-.55-1.59s-.78-.56-1.34-.56Z"/>
        <path d="m275.37,317.81c0-1.21.29-2.18.86-2.92.57-.74,1.32-1.1,2.25-1.1s1.65.32,2.19.95v-4.11h1.35v11.19h-1.24l-.07-.84c-.54.66-1.29.99-2.25.99s-1.66-.37-2.23-1.12c-.58-.75-.86-1.72-.86-2.93v-.1Zm1.35.15c0,.89.18,1.59.55,2.1.37.51.88.76,1.53.76.85,0,1.48-.38,1.87-1.15v-3.62c-.4-.74-1.02-1.11-1.86-1.11-.66,0-1.17.26-1.54.76-.37.51-.55,1.27-.55,2.27Z"/>
        <path d="m295.81,318.45c-.13,1.12-.54,1.99-1.24,2.6s-1.62.91-2.78.91c-1.25,0-2.26-.45-3.01-1.35-.76-.9-1.13-2.1-1.13-3.61v-1.02c0-.99.18-1.85.53-2.6.35-.75.85-1.32,1.5-1.72.65-.4,1.39-.6,2.24-.6,1.13,0,2.03.31,2.71.94.68.63,1.08,1.5,1.19,2.61h-1.41c-.12-.85-.38-1.46-.79-1.84-.41-.38-.97-.57-1.7-.57-.89,0-1.59.33-2.1.99-.51.66-.76,1.6-.76,2.82v1.03c0,1.15.24,2.07.72,2.75.48.68,1.15,1.02,2.02,1.02.78,0,1.37-.18,1.79-.53.42-.35.69-.97.83-1.84h1.41Z"/>
        <path d="m302.38,321.81c-.08-.16-.14-.43-.19-.83-.63.65-1.37.98-2.24.98-.78,0-1.41-.22-1.91-.66s-.75-1-.75-1.67c0-.82.31-1.46.94-1.91.62-.45,1.5-.68,2.63-.68h1.31v-.62c0-.47-.14-.85-.42-1.13s-.7-.42-1.25-.42c-.48,0-.88.12-1.21.36s-.49.54-.49.88h-1.35c0-.39.14-.77.42-1.14.28-.37.66-.66,1.14-.87.48-.21,1-.32,1.58-.32.91,0,1.62.23,2.13.68.51.45.78,1.08.8,1.88v3.63c0,.72.09,1.3.28,1.73v.12h-1.41Zm-2.24-1.03c.42,0,.82-.11,1.2-.33.38-.22.65-.5.82-.85v-1.62h-1.06c-1.65,0-2.48.48-2.48,1.45,0,.42.14.75.42.99.28.24.64.36,1.09.36Z"/>
        <path d="m307.09,321.81h-1.35v-11.19h1.35v11.19Z"/>
        <path d="m310.71,321.81h-1.35v-11.19h1.35v11.19Z"/>
        <path d="m316.51,317.51c0-1.1.15-2.15.44-3.16.29-1.01.73-1.93,1.31-2.75.58-.83,1.19-1.41,1.81-1.75l.28.89c-.71.54-1.29,1.37-1.74,2.49-.45,1.12-.7,2.37-.75,3.75v.62c0,1.87.34,3.5,1.02,4.88.41.83.9,1.47,1.47,1.94l-.28.82c-.65-.36-1.26-.96-1.85-1.81-1.15-1.65-1.72-3.63-1.72-5.92Z"/>
        <path d="m328.37,311.96l-4.39,9.85h-1.41l4.38-9.5h-5.74v-1.11h7.17v.76Z"/>
        <path d="m333.14,317.58c0,1.08-.14,2.12-.43,3.11-.28.99-.72,1.91-1.3,2.75-.59.84-1.2,1.44-1.84,1.79l-.28-.82c.75-.57,1.35-1.46,1.8-2.67.45-1.21.69-2.55.7-4.02v-.23c0-1.02-.11-1.97-.32-2.84-.21-.88-.51-1.66-.89-2.36-.38-.69-.81-1.24-1.29-1.62l.28-.82c.64.35,1.25.95,1.83,1.78s1.02,1.75,1.3,2.75c.29,1,.43,2.07.43,3.21Z"/>
      </g>
    </g>
    <g>
      <rect class="cls-5" x="221.24" y="488.76" width="350.98" height="94.32" rx="12.23" ry="12.23"/>
      <g>
        <rect class="cls-12" x="230.23" y="498.41" width="26.02" height="26.02" rx="3.19" ry="3.19"/>
        <path class="cls-3" d="m243.21,503.64c-5.79,0-10.48,3.52-10.48,7.87,0,2.74,1.86,5.15,4.69,6.56.07.04.1.12.07.19-.3.58-.78,1.27-1.49,1.84-.12.1-.03.29.12.26.98-.21,2.75-.66,3.97-1.3.03-.02.06-.02.09-.01.96.22,1.98.34,3.03.34,5.79,0,10.48-3.52,10.48-7.87s-4.69-7.87-10.48-7.87Z"/>
      </g>
      <g>
        <path class="cls-13" d="m265.56,506.31l3.47,8.65,3.47-8.65h1.81v10.61h-1.4v-4.13l.13-4.46-3.48,8.59h-1.07l-3.47-8.57.14,4.44v4.13h-1.4v-10.61h1.81Z"/>
        <path class="cls-13" d="m282.78,512.01h-4.6v3.76h5.34v1.14h-6.74v-10.61h6.66v1.14h-5.27v3.42h4.6v1.14Z"/>
        <path class="cls-13" d="m288.39,512.19c-1.2-.35-2.07-.77-2.62-1.27-.55-.5-.82-1.12-.82-1.86,0-.83.33-1.53,1-2.07.67-.55,1.54-.82,2.6-.82.73,0,1.38.14,1.95.42.57.28,1.01.67,1.33,1.16s.47,1.04.47,1.62h-1.41c0-.64-.2-1.15-.61-1.52s-.98-.55-1.73-.55c-.69,0-1.23.15-1.61.46s-.58.73-.58,1.27c0,.43.18.8.55,1.1.37.3.99.57,1.87.82.88.25,1.57.52,2.07.82s.87.65,1.11,1.05c.24.4.36.87.36,1.41,0,.86-.34,1.55-1,2.07-.67.52-1.57.78-2.69.78-.73,0-1.41-.14-2.04-.42-.63-.28-1.12-.66-1.46-1.15-.34-.49-.51-1.04-.51-1.65h1.41c0,.64.24,1.15.71,1.52.47.37,1.11.56,1.9.56.74,0,1.3-.15,1.7-.45.39-.3.59-.71.59-1.23s-.18-.92-.55-1.21c-.36-.28-1.02-.56-1.98-.84Z"/>
        <path class="cls-13" d="m297.24,512.19c-1.2-.35-2.07-.77-2.62-1.27s-.82-1.12-.82-1.86c0-.83.33-1.53,1-2.07.67-.55,1.54-.82,2.6-.82.73,0,1.38.14,1.95.42.57.28,1.01.67,1.33,1.16s.47,1.04.47,1.62h-1.41c0-.64-.2-1.15-.61-1.52s-.98-.55-1.73-.55c-.69,0-1.23.15-1.61.46s-.58.73-.58,1.27c0,.43.18.8.55,1.1.37.3.99.57,1.87.82.88.25,1.57.52,2.07.82s.87.65,1.11,1.05c.24.4.36.87.36,1.41,0,.86-.34,1.55-1,2.07-.67.52-1.57.78-2.69.78-.73,0-1.41-.14-2.04-.42-.63-.28-1.12-.66-1.46-1.15-.34-.49-.51-1.04-.51-1.65h1.41c0,.64.24,1.15.71,1.52.47.37,1.11.56,1.9.56.74,0,1.3-.15,1.7-.45.39-.3.59-.71.59-1.23s-.18-.92-.55-1.21c-.36-.28-1.02-.56-1.98-.84Z"/>
        <path class="cls-13" d="m308.82,514.14h-4.44l-1,2.78h-1.44l4.05-10.61h1.22l4.06,10.61h-1.43l-1.01-2.78Zm-4.02-1.14h3.61l-1.81-4.96-1.8,4.96Z"/>
        <path class="cls-13" d="m320.52,515.52c-.36.52-.86.9-1.5,1.15-.64.25-1.39.38-2.25.38s-1.63-.2-2.3-.61-1.19-.98-1.56-1.73c-.37-.75-.55-1.61-.56-2.6v-.92c0-1.6.37-2.84,1.12-3.72s1.79-1.32,3.14-1.32c1.11,0,2,.28,2.67.85.68.57,1.09,1.37,1.24,2.41h-1.4c-.26-1.41-1.1-2.11-2.51-2.11-.94,0-1.65.33-2.13.99-.48.66-.73,1.61-.73,2.86v.87c0,1.19.27,2.14.82,2.84.54.7,1.28,1.05,2.21,1.05.52,0,.98-.06,1.38-.17.39-.12.72-.31.98-.59v-2.38h-2.46v-1.14h3.85v3.89Z"/>
        <path class="cls-13" d="m328.85,512.01h-4.6v3.76h5.34v1.14h-6.74v-10.61h6.66v1.14h-5.27v3.42h4.6v1.14Z"/>
        <path class="cls-13" d="m334.46,512.19c-1.2-.35-2.07-.77-2.62-1.27s-.82-1.12-.82-1.86c0-.83.33-1.53,1-2.07.67-.55,1.54-.82,2.6-.82.73,0,1.38.14,1.95.42.57.28,1.01.67,1.33,1.16s.47,1.04.47,1.62h-1.41c0-.64-.2-1.15-.61-1.52s-.98-.55-1.73-.55c-.69,0-1.23.15-1.61.46s-.58.73-.58,1.27c0,.43.18.8.55,1.1.37.3.99.57,1.87.82.88.25,1.57.52,2.07.82s.87.65,1.11,1.05c.24.4.36.87.36,1.41,0,.86-.34,1.55-1,2.07-.67.52-1.57.78-2.69.78-.73,0-1.41-.14-2.04-.42-.63-.28-1.12-.66-1.46-1.15-.34-.49-.51-1.04-.51-1.65h1.41c0,.64.24,1.15.71,1.52.47.37,1.11.56,1.9.56.74,0,1.3-.15,1.7-.45.39-.3.59-.71.59-1.23s-.18-.92-.55-1.21c-.36-.28-1.02-.56-1.98-.84Z"/>
      </g>
      <g>
        <path class="cls-13" d="m536.02,505.72l.05,1.11c.68-.85,1.56-1.28,2.66-1.28,1.87,0,2.82,1.06,2.84,3.17v5.86h-1.52v-5.87c0-.64-.15-1.11-.44-1.42s-.73-.46-1.34-.46c-.49,0-.92.13-1.29.39-.37.26-.66.61-.87,1.03v6.32h-1.52v-8.87h1.43Z"/>
        <path class="cls-13" d="m543.45,510.07c0-.87.17-1.65.51-2.34s.82-1.23,1.43-1.61c.61-.38,1.3-.57,2.09-.57,1.21,0,2.18.42,2.93,1.25.75.84,1.12,1.95,1.12,3.34v.11c0,.86-.17,1.64-.5,2.32-.33.69-.8,1.22-1.42,1.6s-1.32.57-2.12.57c-1.2,0-2.18-.42-2.92-1.25-.75-.84-1.12-1.94-1.12-3.32v-.11Zm1.52.18c0,.98.23,1.77.68,2.37.46.6,1.07.89,1.83.89s1.38-.3,1.84-.91c.45-.6.68-1.45.68-2.54,0-.97-.23-1.76-.69-2.36-.46-.6-1.07-.91-1.84-.91s-1.35.3-1.81.89c-.46.6-.69,1.45-.69,2.56Z"/>
        <path class="cls-13" d="m561.27,512.49l1.7-6.78h1.52l-2.58,8.87h-1.23l-2.16-6.72-2.1,6.72h-1.23l-2.57-8.87h1.51l1.75,6.64,2.06-6.64h1.22l2.11,6.78Z"/>
      </g>
      <g>
        <path d="m240.37,544.06c0-.47-.16-.83-.49-1.08s-.92-.51-1.77-.77c-.85-.26-1.53-.54-2.04-.86-.97-.61-1.45-1.4-1.45-2.38,0-.85.35-1.56,1.05-2.11s1.6-.83,2.71-.83c.74,0,1.4.14,1.97.41s1.03.66,1.36,1.16.5,1.06.5,1.67h-1.84c0-.55-.17-.99-.52-1.3-.35-.31-.84-.47-1.49-.47-.6,0-1.07.13-1.4.39-.33.26-.5.62-.5,1.08,0,.39.18.71.54.97.36.26.95.51,1.78.76.83.25,1.49.52,1.99.84.5.31.87.67,1.1,1.08.23.41.35.88.35,1.42,0,.88-.34,1.59-1.02,2.11-.68.52-1.6.78-2.76.78-.77,0-1.47-.14-2.12-.43-.64-.28-1.14-.68-1.5-1.18s-.53-1.08-.53-1.75h1.84c0,.6.2,1.07.6,1.4.4.33.97.5,1.71.5.64,0,1.12-.13,1.45-.39.32-.26.48-.6.48-1.03Z"/>
        <path d="m248.36,546.79c-.08-.15-.15-.4-.2-.74-.56.59-1.25.88-2.07.88s-1.44-.23-1.94-.68c-.5-.45-.75-1.01-.75-1.68,0-.84.31-1.48.94-1.93.62-.45,1.52-.67,2.68-.67h1.08v-.52c0-.41-.11-.73-.34-.98-.23-.25-.58-.37-1.04-.37-.4,0-.73.1-.99.3-.26.2-.39.46-.39.77h-1.77c0-.43.14-.84.43-1.21.29-.38.68-.67,1.17-.89.49-.21,1.04-.32,1.65-.32.92,0,1.66.23,2.21.7s.83,1.12.84,1.96v3.55c0,.71.1,1.27.3,1.7v.12h-1.81Zm-1.95-1.27c.35,0,.68-.09.99-.26.31-.17.54-.4.7-.68v-1.49h-.95c-.66,0-1.15.11-1.48.34-.33.23-.5.55-.5.97,0,.34.11.61.34.81s.53.3.91.3Z"/>
        <path d="m253.61,546.79h-1.77v-11.19h1.77v11.19Z"/>
        <path d="m259.01,546.94c-1.12,0-2.03-.35-2.73-1.06-.7-.71-1.05-1.65-1.05-2.82v-.22c0-.79.15-1.49.46-2.11.3-.62.73-1.1,1.28-1.45.55-.35,1.16-.52,1.84-.52,1.07,0,1.9.34,2.49,1.03s.88,1.65.88,2.91v.71h-5.15c.05.65.27,1.17.65,1.54.38.38.86.57,1.44.57.81,0,1.47-.33,1.98-.98l.95.91c-.32.47-.74.84-1.26,1.1-.53.26-1.12.39-1.77.39Zm-.21-6.75c-.49,0-.88.17-1.18.51-.3.34-.49.81-.57,1.42h3.37v-.13c-.04-.59-.2-1.04-.47-1.34-.28-.3-.66-.45-1.15-.45Z"/>
        <path d="m267.96,544.65c0-.32-.13-.56-.39-.72-.26-.17-.69-.31-1.29-.44-.6-.13-1.1-.29-1.51-.48-.88-.43-1.33-1.05-1.33-1.86,0-.68.29-1.25.86-1.7.57-.46,1.3-.69,2.19-.69.94,0,1.7.23,2.28.7s.87,1.07.87,1.81h-1.77c0-.34-.13-.62-.38-.85s-.59-.34-1-.34c-.39,0-.71.09-.95.27-.25.18-.37.42-.37.72,0,.27.11.48.34.63.23.15.69.3,1.38.45.69.15,1.24.34,1.64.55.4.21.69.47.88.76s.29.66.29,1.08c0,.71-.29,1.28-.88,1.72-.59.44-1.36.66-2.31.66-.65,0-1.22-.12-1.73-.35-.51-.23-.9-.55-1.18-.96s-.42-.85-.42-1.32h1.72c.02.42.18.74.47.97.29.23.68.34,1.16.34s.82-.09,1.06-.27c.24-.18.36-.41.36-.7Z"/>
        <path d="m278.14,542.93c0,1.22-.28,2.19-.83,2.92s-1.3,1.09-2.23,1.09c-.86,0-1.56-.28-2.08-.85v3.74h-1.77v-10.91h1.63l.07.8c.52-.63,1.23-.95,2.12-.95.96,0,1.72.36,2.26,1.07.55.72.82,1.71.82,2.98v.11Zm-1.76-.15c0-.79-.16-1.41-.47-1.87-.31-.46-.76-.69-1.34-.69-.72,0-1.24.3-1.56.9v3.5c.32.61.85.92,1.57.92.56,0,1-.23,1.32-.68.32-.45.48-1.14.48-2.06Z"/>
        <path d="m283.11,546.94c-1.12,0-2.03-.35-2.73-1.06-.7-.71-1.05-1.65-1.05-2.82v-.22c0-.79.15-1.49.46-2.11.3-.62.73-1.1,1.28-1.45.55-.35,1.16-.52,1.84-.52,1.07,0,1.9.34,2.49,1.03s.88,1.65.88,2.91v.71h-5.15c.05.65.27,1.17.65,1.54.38.38.86.57,1.44.57.81,0,1.47-.33,1.98-.98l.95.91c-.32.47-.74.84-1.26,1.1-.53.26-1.12.39-1.77.39Zm-.21-6.75c-.49,0-.88.17-1.18.51-.3.34-.49.81-.57,1.42h3.37v-.13c-.04-.59-.2-1.04-.47-1.34-.28-.3-.66-.45-1.15-.45Z"/>
        <path d="m291.77,540.53c-.23-.04-.47-.06-.72-.06-.81,0-1.36.31-1.64.93v5.39h-1.77v-7.88h1.69l.04.88c.43-.68,1.02-1.03,1.78-1.03.25,0,.46.03.63.1v1.66Z"/>
        <path d="m297.3,544.65c0-.32-.13-.56-.39-.72-.26-.17-.69-.31-1.29-.44-.6-.13-1.1-.29-1.51-.48-.88-.43-1.33-1.05-1.33-1.86,0-.68.29-1.25.86-1.7.57-.46,1.3-.69,2.19-.69.94,0,1.7.23,2.28.7s.87,1.07.87,1.81h-1.77c0-.34-.13-.62-.38-.85s-.59-.34-1-.34c-.39,0-.71.09-.95.27-.25.18-.37.42-.37.72,0,.27.11.48.34.63.23.15.69.3,1.38.45.69.15,1.24.34,1.64.55.4.21.69.47.88.76s.29.66.29,1.08c0,.71-.29,1.28-.88,1.72-.59.44-1.36.66-2.31.66-.65,0-1.22-.12-1.73-.35-.51-.23-.9-.55-1.18-.96s-.42-.85-.42-1.32h1.72c.02.42.18.74.47.97.29.23.68.34,1.16.34s.82-.09,1.06-.27c.24-.18.36-.41.36-.7Z"/>
        <path d="m300.25,542.78c0-.77.15-1.47.46-2.09.31-.62.74-1.1,1.29-1.43s1.19-.5,1.91-.5c1.06,0,1.93.34,2.59,1.03s1.02,1.59,1.07,2.72v.42c0,.78-.14,1.47-.44,2.08-.3.61-.73,1.09-1.28,1.42s-1.2.5-1.93.5c-1.11,0-2-.37-2.67-1.11s-1-1.73-1-2.96v-.09Zm1.77.15c0,.81.17,1.45.5,1.9.34.46.8.69,1.4.69s1.06-.23,1.4-.7.5-1.15.5-2.05c0-.8-.17-1.43-.51-1.89-.34-.47-.81-.7-1.4-.7s-1.04.23-1.38.69c-.34.46-.51,1.15-.51,2.06Z"/>
        <path d="m310.72,538.91l.05.91c.58-.7,1.35-1.06,2.29-1.06,1.64,0,2.48.94,2.51,2.82v5.21h-1.77v-5.11c0-.5-.11-.87-.32-1.11s-.57-.36-1.06-.36c-.71,0-1.25.32-1.6.97v5.61h-1.77v-7.88h1.67Z"/>
      </g>
      <g>
        <path d="m236.48,566.82h-1.4v-10.61h1.4v10.61Z"/>
        <path d="m243.41,564.73c0-.36-.14-.65-.41-.85-.27-.2-.75-.37-1.43-.52s-1.22-.32-1.62-.52c-.4-.2-.7-.45-.89-.73-.19-.28-.29-.62-.29-1,0-.65.27-1.19.82-1.64.55-.45,1.24-.67,2.09-.67.89,0,1.62.23,2.17.69.56.46.83,1.05.83,1.77h-1.35c0-.37-.16-.69-.47-.95s-.71-.4-1.18-.4-.87.11-1.15.32c-.28.21-.42.49-.42.84,0,.33.13.57.39.74.26.17.72.32,1.39.47.67.15,1.22.33,1.64.54.42.21.73.46.93.75.2.29.3.65.3,1.07,0,.7-.28,1.27-.84,1.69s-1.29.64-2.19.64c-.63,0-1.19-.11-1.68-.34-.49-.22-.87-.54-1.14-.94-.27-.4-.41-.83-.41-1.3h1.35c.02.45.21.81.54,1.07.34.26.78.4,1.34.4.51,0,.92-.1,1.23-.31.31-.21.46-.48.46-.83Z"/>
        <path d="m252.03,557.03v1.91h1.47v1.04h-1.47v4.89c0,.32.07.55.2.71.13.16.35.24.67.24.16,0,.37-.03.64-.09v1.09c-.35.1-.7.15-1.03.15-.6,0-1.06-.18-1.36-.55-.31-.36-.46-.88-.46-1.55v-4.89h-1.43v-1.04h1.43v-1.91h1.35Z"/>
        <path d="m256.43,559.9c.6-.73,1.37-1.1,2.33-1.1,1.67,0,2.51.94,2.52,2.82v5.21h-1.35v-5.22c0-.57-.13-.99-.39-1.26s-.65-.41-1.19-.41c-.44,0-.82.12-1.15.35-.33.23-.59.54-.77.92v5.62h-1.35v-11.19h1.35v4.26Z"/>
        <path d="m263.3,556.85c0-.22.07-.4.2-.55.13-.15.33-.23.59-.23s.46.08.6.23c.14.15.2.34.2.55s-.07.4-.2.55c-.14.15-.34.22-.6.22s-.46-.07-.59-.22c-.13-.15-.2-.33-.2-.55Zm1.46,9.97h-1.35v-7.88h1.35v7.88Z"/>
        <path d="m271.5,564.73c0-.36-.14-.65-.41-.85-.27-.2-.75-.37-1.43-.52s-1.22-.32-1.62-.52c-.4-.2-.7-.45-.89-.73-.19-.28-.29-.62-.29-1,0-.65.27-1.19.82-1.64.55-.45,1.24-.67,2.09-.67.89,0,1.62.23,2.17.69.56.46.83,1.05.83,1.77h-1.35c0-.37-.16-.69-.47-.95s-.71-.4-1.18-.4-.87.11-1.15.32c-.28.21-.42.49-.42.84,0,.33.13.57.39.74.26.17.72.32,1.39.47.67.15,1.22.33,1.64.54.42.21.73.46.93.75.2.29.3.65.3,1.07,0,.7-.28,1.27-.84,1.69s-1.29.64-2.19.64c-.63,0-1.19-.11-1.68-.34-.49-.22-.87-.54-1.14-.94-.27-.4-.41-.83-.41-1.3h1.35c.02.45.21.81.54,1.07.34.26.78.4,1.34.4.51,0,.92-.1,1.23-.31.31-.21.46-.48.46-.83Z"/>
        <path d="m280.13,557.03v1.91h1.47v1.04h-1.47v4.89c0,.32.07.55.2.71.13.16.35.24.67.24.16,0,.37-.03.64-.09v1.09c-.35.1-.7.15-1.03.15-.6,0-1.06-.18-1.36-.55-.31-.36-.46-.88-.46-1.55v-4.89h-1.43v-1.04h1.43v-1.91h1.35Z"/>
        <path d="m284.52,559.9c.6-.73,1.37-1.1,2.33-1.1,1.67,0,2.51.94,2.52,2.82v5.21h-1.35v-5.22c0-.57-.13-.99-.39-1.26s-.65-.41-1.19-.41c-.44,0-.82.12-1.15.35-.33.23-.59.54-.77.92v5.62h-1.35v-11.19h1.35v4.26Z"/>
        <path d="m294.66,566.97c-1.07,0-1.94-.35-2.61-1.05-.67-.7-1-1.64-1-2.82v-.25c0-.78.15-1.48.45-2.09.3-.61.72-1.09,1.25-1.44.54-.35,1.12-.52,1.74-.52,1.02,0,1.82.34,2.39,1.01.57.67.85,1.64.85,2.9v.56h-5.34c.02.78.25,1.4.68,1.88.43.48.99.72,1.66.72.48,0,.88-.1,1.21-.29s.62-.45.87-.77l.82.64c-.66,1.01-1.65,1.52-2.97,1.52Zm-.17-7.07c-.54,0-1,.2-1.37.59-.37.4-.6.95-.68,1.66h3.95v-.1c-.04-.68-.22-1.22-.55-1.59s-.78-.56-1.34-.56Z"/>
        <path d="m309.66,562.97c0,1.2-.28,2.17-.83,2.9-.55.73-1.3,1.1-2.23,1.1-1,0-1.77-.35-2.31-1.06l-.07.91h-1.24v-11.19h1.35v4.17c.54-.68,1.29-1.01,2.25-1.01s1.71.36,2.25,1.09c.55.72.82,1.71.82,2.97v.12Zm-1.35-.15c0-.92-.18-1.63-.53-2.13s-.86-.75-1.53-.75c-.89,0-1.53.41-1.92,1.24v3.41c.41.83,1.06,1.24,1.93,1.24.65,0,1.15-.25,1.51-.75s.54-1.25.54-2.26Z"/>
        <path d="m314.63,566.97c-1.07,0-1.94-.35-2.61-1.05s-1-1.64-1-2.82v-.25c0-.78.15-1.48.45-2.09.3-.61.72-1.09,1.25-1.44.54-.35,1.12-.52,1.74-.52,1.02,0,1.82.34,2.39,1.01.57.67.85,1.64.85,2.9v.56h-5.34c.02.78.25,1.4.68,1.88.43.48.99.72,1.66.72.48,0,.88-.1,1.21-.29s.62-.45.87-.77l.82.64c-.66,1.01-1.65,1.52-2.97,1.52Zm-.17-7.07c-.54,0-1,.2-1.37.59-.37.4-.6.95-.68,1.66h3.95v-.1c-.04-.68-.22-1.22-.55-1.59s-.78-.56-1.34-.56Z"/>
        <path d="m323.85,564.73c0-.36-.14-.65-.41-.85-.27-.2-.75-.37-1.43-.52s-1.22-.32-1.62-.52c-.4-.2-.7-.45-.89-.73-.19-.28-.29-.62-.29-1,0-.65.27-1.19.82-1.64.55-.45,1.24-.67,2.09-.67.89,0,1.62.23,2.17.69.56.46.83,1.05.83,1.77h-1.35c0-.37-.16-.69-.47-.95s-.71-.4-1.18-.4-.87.11-1.15.32c-.28.21-.42.49-.42.84,0,.33.13.57.39.74.26.17.72.32,1.39.47.67.15,1.22.33,1.64.54.42.21.73.46.93.75.2.29.3.65.3,1.07,0,.7-.28,1.27-.84,1.69s-1.29.64-2.19.64c-.63,0-1.19-.11-1.68-.34-.49-.22-.87-.54-1.14-.94-.27-.4-.41-.83-.41-1.3h1.35c.02.45.21.81.54,1.07.34.26.78.4,1.34.4.51,0,.92-.1,1.23-.31.31-.21.46-.48.46-.83Z"/>
        <path d="m328.78,557.03v1.91h1.47v1.04h-1.47v4.89c0,.32.07.55.2.71.13.16.35.24.67.24.16,0,.37-.03.64-.09v1.09c-.35.1-.7.15-1.03.15-.6,0-1.06-.18-1.36-.55-.31-.36-.46-.88-.46-1.55v-4.89h-1.43v-1.04h1.43v-1.91h1.35Z"/>
        <path d="m336.79,558.94l.04.99c.6-.76,1.39-1.14,2.36-1.14,1.67,0,2.51.94,2.52,2.82v5.21h-1.35v-5.22c0-.57-.13-.99-.39-1.26s-.65-.41-1.19-.41c-.44,0-.82.12-1.15.35-.33.23-.59.54-.77.92v5.62h-1.35v-7.88h1.27Z"/>
        <path d="m348.61,566.04c-.52.62-1.29.93-2.31.93-.84,0-1.48-.24-1.92-.73-.44-.49-.66-1.21-.67-2.17v-5.13h1.35v5.09c0,1.19.49,1.79,1.46,1.79,1.03,0,1.71-.38,2.05-1.15v-5.73h1.35v7.88h-1.28l-.03-.78Z"/>
        <path d="m353.24,558.94l.04.87c.58-.68,1.36-1.02,2.34-1.02,1.1,0,1.85.42,2.25,1.27.26-.38.6-.68,1.02-.92.42-.23.92-.35,1.49-.35,1.73,0,2.61.92,2.64,2.75v5.28h-1.35v-5.2c0-.56-.13-.98-.39-1.26-.26-.28-.69-.42-1.3-.42-.5,0-.92.15-1.25.45s-.52.7-.58,1.21v5.23h-1.35v-5.16c0-1.15-.56-1.72-1.68-1.72-.88,0-1.49.38-1.81,1.13v5.75h-1.35v-7.88h1.27Z"/>
        <path d="m371.72,562.97c0,1.2-.28,2.17-.83,2.9-.55.73-1.3,1.1-2.23,1.1-1,0-1.77-.35-2.31-1.06l-.07.91h-1.24v-11.19h1.35v4.17c.54-.68,1.29-1.01,2.25-1.01s1.71.36,2.25,1.09c.55.72.82,1.71.82,2.97v.12Zm-1.35-.15c0-.92-.18-1.63-.53-2.13s-.86-.75-1.53-.75c-.89,0-1.53.41-1.92,1.24v3.41c.41.83,1.06,1.24,1.93,1.24.65,0,1.15-.25,1.51-.75s.54-1.25.54-2.26Z"/>
        <path d="m376.69,566.97c-1.07,0-1.94-.35-2.61-1.05s-1-1.64-1-2.82v-.25c0-.78.15-1.48.45-2.09.3-.61.72-1.09,1.25-1.44.54-.35,1.12-.52,1.74-.52,1.02,0,1.82.34,2.39,1.01.57.67.85,1.64.85,2.9v.56h-5.34c.02.78.25,1.4.68,1.88.43.48.99.72,1.66.72.48,0,.88-.1,1.21-.29s.62-.45.87-.77l.82.64c-.66,1.01-1.65,1.52-2.97,1.52Zm-.17-7.07c-.54,0-1,.2-1.37.59-.37.4-.6.95-.68,1.66h3.95v-.1c-.04-.68-.22-1.22-.55-1.59s-.78-.56-1.34-.56Z"/>
        <path d="m385.13,560.15c-.2-.03-.42-.05-.66-.05-.88,0-1.48.38-1.8,1.13v5.59h-1.35v-7.88h1.31l.02.91c.44-.7,1.07-1.06,1.88-1.06.26,0,.46.03.6.1v1.25Z"/>
        <path d="m391.89,557.03v1.91h1.47v1.04h-1.47v4.89c0,.32.07.55.2.71.13.16.35.24.67.24.16,0,.37-.03.64-.09v1.09c-.35.1-.7.15-1.03.15-.6,0-1.06-.18-1.36-.55-.31-.36-.46-.88-.46-1.55v-4.89h-1.43v-1.04h1.43v-1.91h1.35Z"/>
        <path d="m394.43,562.81c0-.77.15-1.47.46-2.08.3-.62.73-1.09,1.27-1.43.54-.34,1.16-.5,1.85-.5,1.07,0,1.94.37,2.6,1.11.66.74.99,1.73.99,2.96v.09c0,.77-.15,1.46-.44,2.07-.29.61-.71,1.08-1.26,1.42-.55.34-1.17.51-1.88.51-1.07,0-1.93-.37-2.6-1.11s-.99-1.73-.99-2.95v-.09Zm1.35.16c0,.87.2,1.58.61,2.11s.95.79,1.63.79,1.23-.27,1.63-.8c.4-.54.6-1.29.6-2.25,0-.86-.2-1.56-.62-2.1-.41-.54-.96-.8-1.64-.8s-1.2.27-1.61.79c-.41.53-.61,1.29-.61,2.27Z"/>
        <path d="m410.15,565.87c.48,0,.9-.15,1.26-.44.36-.29.56-.66.6-1.09h1.27c-.02.45-.18.88-.47,1.29-.29.41-.67.73-1.15.98-.48.24-.98.36-1.52.36-1.07,0-1.93-.36-2.56-1.07s-.95-1.7-.95-2.94v-.23c0-.77.14-1.45.42-2.05.28-.6.69-1.06,1.21-1.39.53-.33,1.15-.5,1.87-.5.88,0,1.62.27,2.2.79.59.53.9,1.22.94,2.06h-1.27c-.04-.51-.23-.93-.58-1.26-.35-.33-.78-.49-1.29-.49-.68,0-1.22.25-1.59.74-.38.49-.56,1.21-.56,2.14v.26c0,.91.19,1.61.56,2.1.37.49.91.74,1.6.74Z"/>
        <path d="m419.66,566.82c-.08-.16-.14-.43-.19-.83-.63.65-1.37.98-2.24.98-.78,0-1.41-.22-1.91-.66s-.75-1-.75-1.67c0-.82.31-1.46.94-1.91.62-.45,1.5-.68,2.63-.68h1.31v-.62c0-.47-.14-.85-.42-1.13s-.7-.42-1.25-.42c-.48,0-.88.12-1.21.36s-.49.54-.49.88h-1.35c0-.39.14-.77.42-1.14.28-.37.66-.66,1.14-.87.48-.21,1-.32,1.58-.32.91,0,1.62.23,2.13.68.51.45.78,1.08.8,1.88v3.63c0,.72.09,1.3.28,1.73v.12h-1.41Zm-2.24-1.03c.42,0,.82-.11,1.2-.33.38-.22.65-.5.82-.85v-1.62h-1.06c-1.65,0-2.48.48-2.48,1.45,0,.42.14.75.42.99.28.24.64.36,1.09.36Z"/>
        <path d="m424.37,566.82h-1.35v-11.19h1.35v11.19Z"/>
        <path d="m427.99,566.82h-1.35v-11.19h1.35v11.19Z"/>
        <path d="m436.42,564.85l1.84-5.91h1.44l-3.17,9.1c-.49,1.31-1.27,1.97-2.34,1.97l-.25-.02-.5-.09v-1.09l.36.03c.46,0,.81-.09,1.07-.28.26-.18.46-.52.63-1.01l.3-.8-2.81-7.79h1.47l1.97,5.91Z"/>
        <path d="m440.54,562.81c0-.77.15-1.47.46-2.08.3-.62.73-1.09,1.27-1.43.54-.34,1.16-.5,1.85-.5,1.07,0,1.94.37,2.6,1.11.66.74.99,1.73.99,2.96v.09c0,.77-.15,1.46-.44,2.07-.29.61-.71,1.08-1.26,1.42-.55.34-1.17.51-1.88.51-1.07,0-1.93-.37-2.6-1.11s-.99-1.73-.99-2.95v-.09Zm1.35.16c0,.87.2,1.58.61,2.11s.95.79,1.63.79,1.23-.27,1.63-.8c.4-.54.6-1.29.6-2.25,0-.86-.2-1.56-.62-2.1-.41-.54-.96-.8-1.64-.8s-1.2.27-1.61.79c-.41.53-.61,1.29-.61,2.27Z"/>
        <path d="m454.27,566.04c-.52.62-1.29.93-2.31.93-.84,0-1.48-.24-1.92-.73-.44-.49-.66-1.21-.67-2.17v-5.13h1.35v5.09c0,1.19.49,1.79,1.46,1.79,1.03,0,1.71-.38,2.05-1.15v-5.73h1.35v7.88h-1.28l-.03-.78Z"/>
        <path d="m466.19,566.82c-.08-.16-.14-.43-.19-.83-.63.65-1.37.98-2.24.98-.78,0-1.41-.22-1.91-.66s-.75-1-.75-1.67c0-.82.31-1.46.94-1.91.62-.45,1.5-.68,2.63-.68h1.31v-.62c0-.47-.14-.85-.42-1.13s-.7-.42-1.25-.42c-.48,0-.88.12-1.21.36s-.49.54-.49.88h-1.35c0-.39.14-.77.42-1.14.28-.37.66-.66,1.14-.87.48-.21,1-.32,1.58-.32.91,0,1.62.23,2.13.68.51.45.78,1.08.8,1.88v3.63c0,.72.09,1.3.28,1.73v.12h-1.41Zm-2.24-1.03c.42,0,.82-.11,1.2-.33.38-.22.65-.5.82-.85v-1.62h-1.06c-1.65,0-2.48.48-2.48,1.45,0,.42.14.75.42.99.28.24.64.36,1.09.36Z"/>
        <path d="m471.27,557.03v1.91h1.47v1.04h-1.47v4.89c0,.32.07.55.2.71.13.16.35.24.67.24.16,0,.37-.03.64-.09v1.09c-.35.1-.7.15-1.03.15-.6,0-1.06-.18-1.36-.55-.31-.36-.46-.88-.46-1.55v-4.89h-1.43v-1.04h1.43v-1.91h1.35Z"/>
        <path d="m475.89,563.82c0-.58.08-1.03.2-1.37.12-.33.37-.71.74-1.11l.95-.98c.41-.46.61-.95.61-1.48s-.13-.91-.4-1.2c-.27-.29-.66-.43-1.17-.43s-.89.13-1.19.39c-.3.26-.45.61-.45,1.06h-1.35c0-.79.29-1.42.84-1.9.55-.48,1.27-.72,2.15-.72s1.63.25,2.14.74c.51.49.77,1.17.77,2.03s-.39,1.68-1.18,2.51l-.79.79c-.35.39-.53.96-.53,1.69h-1.35Zm-.06,2.31c0-.22.07-.41.2-.56s.33-.22.59-.22.46.07.6.22.2.34.2.56-.07.4-.2.55c-.14.14-.34.22-.6.22s-.46-.07-.59-.22c-.13-.14-.2-.33-.2-.55Z"/>
      </g>
    </g>
    <g>
      <rect class="cls-5" x="221.24" y="348.13" width="350.98" height="130.57" rx="12.23" ry="12.23"/>
      <g>
        <path class="cls-13" d="m266.56,365.68l3.47,8.65,3.47-8.65h1.81v10.61h-1.4v-4.13l.13-4.46-3.48,8.59h-1.07l-3.47-8.57.14,4.44v4.13h-1.4v-10.61h1.81Z"/>
        <path class="cls-13" d="m283.64,373.51h-4.44l-1,2.78h-1.44l4.05-10.61h1.22l4.06,10.61h-1.43l-1.01-2.78Zm-4.02-1.14h3.61l-1.81-4.96-1.8,4.96Z"/>
        <path class="cls-13" d="m289.01,376.29h-1.4v-10.61h1.4v10.61Z"/>
        <path class="cls-13" d="m292.98,375.14h5.03v1.14h-6.43v-10.61h1.41v9.46Z"/>
      </g>
      <g>
        <path d="m241.37,403.43c0-.47-.16-.83-.49-1.08s-.92-.51-1.77-.77c-.85-.26-1.53-.54-2.04-.86-.97-.61-1.45-1.4-1.45-2.38,0-.85.35-1.56,1.05-2.11s1.6-.83,2.71-.83c.74,0,1.4.14,1.97.41s1.03.66,1.36,1.16.5,1.06.5,1.67h-1.84c0-.55-.17-.99-.52-1.3-.35-.31-.84-.47-1.49-.47-.6,0-1.07.13-1.4.39-.33.26-.5.62-.5,1.08,0,.39.18.71.54.97.36.26.95.51,1.78.76s1.49.52,1.99.84c.5.31.87.67,1.1,1.08.23.41.35.88.35,1.42,0,.88-.34,1.59-1.02,2.11-.68.52-1.6.78-2.76.78-.77,0-1.47-.14-2.12-.43s-1.14-.68-1.5-1.18-.53-1.08-.53-1.75h1.84c0,.6.2,1.07.6,1.4.4.33.97.5,1.71.5.64,0,1.12-.13,1.45-.39.32-.26.48-.6.48-1.03Z"/>
        <path d="m249.36,406.16c-.08-.15-.15-.4-.2-.74-.56.59-1.25.88-2.07.88s-1.44-.23-1.94-.68c-.5-.45-.75-1.01-.75-1.68,0-.84.31-1.48.94-1.93.62-.45,1.52-.67,2.68-.67h1.08v-.52c0-.41-.11-.73-.34-.98-.23-.25-.58-.37-1.04-.37-.4,0-.73.1-.99.3-.26.2-.39.46-.39.77h-1.77c0-.43.14-.84.43-1.21.29-.38.68-.67,1.17-.89.49-.21,1.04-.32,1.65-.32.92,0,1.66.23,2.21.7s.83,1.12.84,1.96v3.55c0,.71.1,1.27.3,1.7v.12h-1.81Zm-1.95-1.27c.35,0,.68-.09.99-.26.31-.17.54-.4.7-.68v-1.49h-.95c-.66,0-1.15.11-1.48.34-.33.23-.5.55-.5.97,0,.34.11.61.34.81s.53.3.91.3Z"/>
        <path d="m254.61,406.16h-1.77v-11.19h1.77v11.19Z"/>
        <path d="m260.01,406.31c-1.12,0-2.03-.35-2.73-1.06-.7-.71-1.05-1.65-1.05-2.82v-.22c0-.79.15-1.49.46-2.11.3-.62.73-1.1,1.28-1.45.55-.35,1.16-.52,1.84-.52,1.07,0,1.9.34,2.49,1.03s.88,1.65.88,2.91v.71h-5.15c.05.65.27,1.17.65,1.54.38.38.86.57,1.44.57.81,0,1.47-.33,1.98-.98l.95.91c-.32.47-.74.84-1.26,1.1-.53.26-1.12.39-1.77.39Zm-.21-6.75c-.49,0-.88.17-1.18.51-.3.34-.49.81-.57,1.42h3.37v-.13c-.04-.59-.2-1.04-.47-1.34-.28-.3-.66-.45-1.15-.45Z"/>
        <path d="m268.96,404.02c0-.32-.13-.56-.39-.72-.26-.17-.69-.31-1.29-.44-.6-.13-1.1-.29-1.51-.48-.88-.43-1.33-1.05-1.33-1.86,0-.68.29-1.25.86-1.7.57-.46,1.3-.69,2.19-.69.94,0,1.7.23,2.28.7s.87,1.07.87,1.81h-1.77c0-.34-.13-.62-.38-.85s-.59-.34-1-.34c-.39,0-.71.09-.95.27-.25.18-.37.42-.37.72,0,.27.11.48.34.63.23.15.69.3,1.38.45.69.15,1.24.34,1.64.55.4.21.69.47.88.76s.29.66.29,1.08c0,.71-.29,1.28-.88,1.72-.59.44-1.36.66-2.31.66-.65,0-1.22-.12-1.73-.35-.51-.23-.9-.55-1.18-.96s-.42-.85-.42-1.32h1.72c.02.42.18.74.47.97.29.23.68.34,1.16.34s.82-.09,1.06-.27c.24-.18.36-.41.36-.7Z"/>
        <path d="m279.14,402.3c0,1.22-.28,2.19-.83,2.92s-1.3,1.09-2.23,1.09c-.86,0-1.56-.28-2.08-.85v3.74h-1.77v-10.91h1.63l.07.8c.52-.63,1.23-.95,2.12-.95.96,0,1.72.36,2.26,1.07.55.72.82,1.71.82,2.98v.11Zm-1.76-.15c0-.79-.16-1.41-.47-1.87-.31-.46-.76-.69-1.34-.69-.72,0-1.24.3-1.56.9v3.5c.32.61.85.92,1.57.92.56,0,1-.23,1.32-.68.32-.45.48-1.14.48-2.06Z"/>
        <path d="m284.11,406.31c-1.12,0-2.03-.35-2.73-1.06-.7-.71-1.05-1.65-1.05-2.82v-.22c0-.79.15-1.49.46-2.11.3-.62.73-1.1,1.28-1.45.55-.35,1.16-.52,1.84-.52,1.07,0,1.9.34,2.49,1.03s.88,1.65.88,2.91v.71h-5.15c.05.65.27,1.17.65,1.54.38.38.86.57,1.44.57.81,0,1.47-.33,1.98-.98l.95.91c-.32.47-.74.84-1.26,1.1-.53.26-1.12.39-1.77.39Zm-.21-6.75c-.49,0-.88.17-1.18.51-.3.34-.49.81-.57,1.42h3.37v-.13c-.04-.59-.2-1.04-.47-1.34-.28-.3-.66-.45-1.15-.45Z"/>
        <path d="m292.77,399.9c-.23-.04-.47-.06-.72-.06-.81,0-1.36.31-1.64.93v5.39h-1.77v-7.88h1.69l.04.88c.43-.68,1.02-1.03,1.78-1.03.25,0,.46.03.63.1v1.66Z"/>
        <path d="m298.3,404.02c0-.32-.13-.56-.39-.72-.26-.17-.69-.31-1.29-.44-.6-.13-1.1-.29-1.51-.48-.88-.43-1.33-1.05-1.33-1.86,0-.68.29-1.25.86-1.7.57-.46,1.3-.69,2.19-.69.94,0,1.7.23,2.28.7s.87,1.07.87,1.81h-1.77c0-.34-.13-.62-.38-.85s-.59-.34-1-.34c-.39,0-.71.09-.95.27-.25.18-.37.42-.37.72,0,.27.11.48.34.63.23.15.69.3,1.38.45.69.15,1.24.34,1.64.55.4.21.69.47.88.76s.29.66.29,1.08c0,.71-.29,1.28-.88,1.72-.59.44-1.36.66-2.31.66-.65,0-1.22-.12-1.73-.35-.51-.23-.9-.55-1.18-.96s-.42-.85-.42-1.32h1.72c.02.42.18.74.47.97.29.23.68.34,1.16.34s.82-.09,1.06-.27c.24-.18.36-.41.36-.7Z"/>
        <path d="m301.25,402.15c0-.77.15-1.47.46-2.09.31-.62.74-1.1,1.29-1.43s1.19-.5,1.91-.5c1.06,0,1.93.34,2.59,1.03s1.02,1.59,1.07,2.72v.42c0,.78-.14,1.47-.44,2.08-.3.61-.73,1.09-1.28,1.42s-1.2.5-1.93.5c-1.11,0-2-.37-2.67-1.11s-1-1.73-1-2.96v-.09Zm1.77.15c0,.81.17,1.45.5,1.9.34.46.8.69,1.4.69s1.06-.23,1.4-.7.5-1.15.5-2.05c0-.8-.17-1.43-.51-1.89-.34-.47-.81-.7-1.4-.7s-1.04.23-1.38.69c-.34.46-.51,1.15-.51,2.06Z"/>
        <path d="m311.72,398.28l.05.91c.58-.7,1.35-1.06,2.29-1.06,1.64,0,2.48.94,2.51,2.82v5.21h-1.77v-5.11c0-.5-.11-.87-.32-1.11s-.57-.36-1.06-.36c-.71,0-1.25.32-1.6.97v5.61h-1.77v-7.88h1.67Z"/>
      </g>
      <g>
        <path d="m237.77,426.19h-1.84v-10.61h1.84v10.61Z"/>
        <path d="m244.28,424.05c0-.32-.13-.56-.39-.72-.26-.17-.69-.31-1.29-.44-.6-.13-1.1-.29-1.51-.48-.88-.43-1.33-1.05-1.33-1.86,0-.68.29-1.25.86-1.7.57-.46,1.3-.69,2.19-.69.94,0,1.7.23,2.28.7s.87,1.07.87,1.81h-1.77c0-.34-.13-.62-.38-.85s-.59-.34-1-.34c-.39,0-.71.09-.95.27-.25.18-.37.42-.37.72,0,.27.11.48.34.63.23.15.69.3,1.38.45.69.15,1.24.34,1.64.55.4.21.69.47.88.76s.29.66.29,1.08c0,.71-.29,1.28-.88,1.72-.59.44-1.36.66-2.31.66-.65,0-1.22-.12-1.73-.35-.51-.23-.9-.55-1.18-.96s-.42-.85-.42-1.32h1.72c.02.42.18.74.47.97.29.23.68.34,1.16.34s.82-.09,1.06-.27c.24-.18.36-.41.36-.7Z"/>
        <path d="m251.98,424.05c0-.32-.13-.56-.39-.72-.26-.17-.69-.31-1.29-.44-.6-.13-1.1-.29-1.51-.48-.88-.43-1.33-1.05-1.33-1.86,0-.68.29-1.25.86-1.7.57-.46,1.3-.69,2.19-.69.94,0,1.7.23,2.28.7s.87,1.07.87,1.81h-1.77c0-.34-.13-.62-.38-.85s-.59-.34-1-.34c-.39,0-.71.09-.95.27-.25.18-.37.42-.37.72,0,.27.11.48.34.63.23.15.69.3,1.38.45.69.15,1.24.34,1.64.55.4.21.69.47.88.76s.29.66.29,1.08c0,.71-.29,1.28-.88,1.72-.59.44-1.36.66-2.31.66-.65,0-1.22-.12-1.73-.35-.51-.23-.9-.55-1.18-.96s-.42-.85-.42-1.32h1.72c.02.42.18.74.47.97.29.23.68.34,1.16.34s.82-.09,1.06-.27c.24-.18.36-.41.36-.7Z"/>
        <path d="m260.04,425.42c-.52.61-1.26.92-2.21.92-.86,0-1.5-.25-1.94-.75s-.66-1.22-.66-2.17v-5.11h1.77v5.08c0,1,.42,1.5,1.25,1.5s1.44-.31,1.74-.93v-5.66h1.77v7.88h-1.67l-.04-.77Z"/>
        <path d="m267.02,426.34c-1.12,0-2.03-.35-2.73-1.06-.7-.71-1.05-1.65-1.05-2.82v-.22c0-.79.15-1.49.46-2.11.3-.62.73-1.1,1.28-1.45.55-.35,1.16-.52,1.84-.52,1.07,0,1.9.34,2.49,1.03s.88,1.65.88,2.91v.71h-5.15c.05.65.27,1.17.65,1.54.38.38.86.57,1.44.57.81,0,1.47-.33,1.98-.98l.95.91c-.32.47-.74.84-1.26,1.1-.53.26-1.12.39-1.77.39Zm-.21-6.75c-.49,0-.88.17-1.18.51-.3.34-.49.81-.57,1.42h3.37v-.13c-.04-.59-.2-1.04-.47-1.34-.28-.3-.66-.45-1.15-.45Z"/>
        <path d="m282.19,423.75l1.25-5.44h1.73l-2.15,7.88h-1.46l-1.69-5.41-1.66,5.41h-1.46l-2.16-7.88h1.73l1.27,5.38,1.62-5.38h1.33l1.64,5.44Z"/>
        <path d="m286.36,416.26c0-.27.09-.5.26-.68.17-.18.42-.27.74-.27s.57.09.74.27c.18.18.26.41.26.68s-.09.49-.26.67-.42.27-.74.27-.57-.09-.74-.27c-.17-.18-.26-.4-.26-.67Zm1.88,9.93h-1.77v-7.88h1.77v7.88Z"/>
        <path d="m292.38,416.4v1.92h1.39v1.31h-1.39v4.4c0,.3.06.52.18.65.12.13.33.2.64.2.2,0,.41-.02.62-.07v1.37c-.4.11-.79.17-1.17.17-1.36,0-2.04-.75-2.04-2.25v-4.46h-1.3v-1.31h1.3v-1.92h1.77Z"/>
        <path d="m296.87,419.17c.58-.67,1.31-1.01,2.19-1.01,1.68,0,2.53.96,2.56,2.88v5.15h-1.77v-5.08c0-.54-.12-.93-.35-1.15-.24-.23-.58-.34-1.04-.34-.71,0-1.24.32-1.59.95v5.63h-1.77v-11.19h1.77v4.17Z"/>
        <path d="m314.02,422.33c0,1.22-.28,2.19-.83,2.92s-1.3,1.09-2.23,1.09c-.86,0-1.56-.28-2.08-.85v3.74h-1.77v-10.91h1.63l.07.8c.52-.63,1.23-.95,2.12-.95.96,0,1.72.36,2.26,1.07.55.72.82,1.71.82,2.98v.11Zm-1.76-.15c0-.79-.16-1.41-.47-1.87-.31-.46-.76-.69-1.34-.69-.72,0-1.24.3-1.56.9v3.5c.32.61.85.92,1.57.92.56,0,1-.23,1.32-.68.32-.45.48-1.14.48-2.06Z"/>
        <path d="m317.27,419.17c.58-.67,1.31-1.01,2.19-1.01,1.68,0,2.53.96,2.56,2.88v5.15h-1.77v-5.08c0-.54-.12-.93-.35-1.15-.24-.23-.58-.34-1.04-.34-.71,0-1.24.32-1.59.95v5.63h-1.77v-11.19h1.77v4.17Z"/>
        <path d="m323.47,422.18c0-.77.15-1.47.46-2.09.31-.62.74-1.1,1.29-1.43s1.19-.5,1.91-.5c1.06,0,1.93.34,2.59,1.03s1.02,1.59,1.07,2.72v.42c0,.78-.14,1.47-.44,2.08-.3.61-.73,1.09-1.28,1.42s-1.2.5-1.93.5c-1.11,0-2-.37-2.67-1.11s-1-1.73-1-2.96v-.09Zm1.77.15c0,.81.17,1.45.5,1.9.34.46.8.69,1.4.69s1.06-.23,1.4-.7.5-1.15.5-2.05c0-.8-.17-1.43-.51-1.89-.34-.47-.81-.7-1.4-.7s-1.04.23-1.38.69c-.34.46-.51,1.15-.51,2.06Z"/>
        <path d="m333.94,418.31l.05.91c.58-.7,1.35-1.06,2.29-1.06,1.64,0,2.48.94,2.51,2.82v5.21h-1.77v-5.11c0-.5-.11-.87-.32-1.11s-.57-.36-1.06-.36c-.71,0-1.25.32-1.6.97v5.61h-1.77v-7.88h1.67Z"/>
        <path d="m344.06,426.34c-1.12,0-2.03-.35-2.73-1.06-.7-.71-1.05-1.65-1.05-2.82v-.22c0-.79.15-1.49.46-2.11.3-.62.73-1.1,1.28-1.45.55-.35,1.16-.52,1.84-.52,1.07,0,1.9.34,2.49,1.03s.88,1.65.88,2.91v.71h-5.15c.05.65.27,1.17.65,1.54.38.38.86.57,1.44.57.81,0,1.47-.33,1.98-.98l.95.91c-.32.47-.74.84-1.26,1.1-.53.26-1.12.39-1.77.39Zm-.21-6.75c-.49,0-.88.17-1.18.51-.3.34-.49.81-.57,1.42h3.37v-.13c-.04-.59-.2-1.04-.47-1.34-.28-.3-.66-.45-1.15-.45Z"/>
        <path d="m353.96,418.31l.05.91c.58-.7,1.35-1.06,2.29-1.06,1.64,0,2.48.94,2.51,2.82v5.21h-1.77v-5.11c0-.5-.11-.87-.32-1.11s-.57-.36-1.06-.36c-.71,0-1.25.32-1.6.97v5.61h-1.77v-7.88h1.67Z"/>
        <path d="m365.38,425.42c-.52.61-1.26.92-2.21.92-.86,0-1.5-.25-1.94-.75s-.66-1.22-.66-2.17v-5.11h1.77v5.08c0,1,.42,1.5,1.25,1.5s1.44-.31,1.74-.93v-5.66h1.77v7.88h-1.67l-.04-.77Z"/>
        <path d="m370.56,418.31l.05.82c.55-.65,1.31-.97,2.27-.97,1.05,0,1.77.4,2.16,1.21.57-.81,1.38-1.21,2.42-1.21.87,0,1.52.24,1.94.72.43.48.64,1.19.65,2.13v5.18h-1.77v-5.13c0-.5-.11-.87-.33-1.1-.22-.23-.58-.35-1.08-.35-.4,0-.73.11-.99.32-.25.22-.43.5-.53.85v5.41s-1.76,0-1.76,0v-5.19c-.02-.93-.5-1.39-1.42-1.39-.71,0-1.21.29-1.51.87v5.71h-1.77v-7.88h1.67Z"/>
        <path d="m388.79,422.33c0,1.22-.27,2.2-.82,2.92-.55.72-1.3,1.09-2.25,1.09s-1.64-.33-2.16-1l-.09.85h-1.6v-11.19h1.77v4.06c.51-.6,1.2-.9,2.06-.9.96,0,1.72.36,2.27,1.07.55.71.82,1.71.82,2.99v.1Zm-1.77-.15c0-.85-.15-1.5-.45-1.92-.3-.43-.74-.64-1.31-.64-.77,0-1.31.34-1.62,1.01v3.25c.32.68.86,1.03,1.63,1.03.55,0,.98-.21,1.28-.62s.46-1.04.47-1.87v-.23Z"/>
        <path d="m393.75,426.34c-1.12,0-2.03-.35-2.73-1.06-.7-.71-1.05-1.65-1.05-2.82v-.22c0-.79.15-1.49.46-2.11.3-.62.73-1.1,1.28-1.45.55-.35,1.16-.52,1.84-.52,1.07,0,1.9.34,2.49,1.03s.88,1.65.88,2.91v.71h-5.15c.05.65.27,1.17.65,1.54.38.38.86.57,1.44.57.81,0,1.47-.33,1.98-.98l.95.91c-.32.47-.74.84-1.26,1.1-.53.26-1.12.39-1.77.39Zm-.21-6.75c-.49,0-.88.17-1.18.51-.3.34-.49.81-.57,1.42h3.37v-.13c-.04-.59-.2-1.04-.47-1.34-.28-.3-.66-.45-1.15-.45Z"/>
        <path d="m402.41,419.93c-.23-.04-.47-.06-.72-.06-.81,0-1.36.31-1.64.93v5.39h-1.77v-7.88h1.69l.04.88c.43-.68,1.02-1.03,1.78-1.03.25,0,.46.03.63.1v1.66Z"/>
        <path d="m405.17,423.08c0-.65.08-1.16.24-1.55s.48-.81.95-1.26c.47-.46.77-.79.9-.98.19-.3.29-.62.29-.96,0-.46-.11-.8-.34-1.04-.23-.24-.56-.36-.99-.36s-.75.12-1.01.35c-.25.23-.38.55-.38.95h-1.77c0-.86.3-1.54.88-2.04.58-.5,1.34-.75,2.28-.75s1.74.25,2.28.74c.55.5.82,1.19.82,2.08,0,.79-.37,1.57-1.11,2.34l-.9.88c-.32.36-.49.9-.5,1.6h-1.65Zm-.12,2.26c0-.29.09-.52.27-.69.18-.18.42-.27.73-.27s.56.09.74.27c.18.18.27.41.27.69s-.09.49-.26.67c-.17.18-.42.27-.74.27s-.57-.09-.74-.27c-.17-.18-.26-.4-.26-.67Z"/>
      </g>
      <g>
        <path d="m237.48,446.7h-1.4v-10.61h1.4v10.61Z"/>
        <path d="m248.38,446.7c-.08-.16-.14-.43-.19-.83-.63.65-1.37.98-2.24.98-.78,0-1.41-.22-1.91-.66-.5-.44-.75-1-.75-1.67,0-.82.31-1.46.94-1.91.62-.45,1.5-.68,2.63-.68h1.31v-.62c0-.47-.14-.85-.42-1.13s-.7-.42-1.25-.42c-.48,0-.88.12-1.21.36s-.49.54-.49.88h-1.35c0-.39.14-.77.42-1.14.28-.37.66-.66,1.14-.87.48-.21,1-.32,1.58-.32.91,0,1.62.23,2.13.68.51.45.78,1.08.8,1.88v3.63c0,.72.09,1.3.28,1.73v.12h-1.41Zm-2.24-1.03c.42,0,.82-.11,1.2-.33.38-.22.65-.5.82-.85v-1.62h-1.06c-1.65,0-2.48.48-2.48,1.45,0,.42.14.75.42.99.28.24.64.36,1.09.36Z"/>
        <path d="m252.9,438.82l.04.87c.58-.68,1.36-1.02,2.34-1.02,1.1,0,1.85.42,2.25,1.27.26-.38.6-.68,1.02-.92.42-.23.92-.35,1.49-.35,1.73,0,2.61.92,2.64,2.75v5.28h-1.35v-5.2c0-.56-.13-.98-.39-1.26-.26-.28-.69-.42-1.3-.42-.5,0-.92.15-1.25.45s-.52.7-.58,1.21v5.23h-1.35v-5.16c0-1.15-.56-1.72-1.68-1.72-.88,0-1.49.38-1.81,1.13v5.75h-1.35v-7.88h1.27Z"/>
        <path d="m269.74,439.77c.6-.73,1.37-1.1,2.33-1.1,1.67,0,2.51.94,2.52,2.82v5.21h-1.35v-5.22c0-.57-.13-.99-.39-1.26s-.65-.41-1.19-.41c-.44,0-.82.12-1.15.35-.33.23-.59.54-.77.92v5.62h-1.35v-11.19h1.35v4.26Z"/>
        <path d="m281.48,446.7c-.08-.16-.14-.43-.19-.83-.63.65-1.37.98-2.24.98-.78,0-1.41-.22-1.91-.66-.5-.44-.75-1-.75-1.67,0-.82.31-1.46.94-1.91.62-.45,1.5-.68,2.63-.68h1.31v-.62c0-.47-.14-.85-.42-1.13s-.7-.42-1.25-.42c-.48,0-.88.12-1.21.36s-.49.54-.49.88h-1.35c0-.39.14-.77.42-1.14.28-.37.66-.66,1.14-.87.48-.21,1-.32,1.58-.32.91,0,1.62.23,2.13.68.51.45.78,1.08.8,1.88v3.63c0,.72.09,1.3.28,1.73v.12h-1.41Zm-2.24-1.03c.42,0,.82-.11,1.2-.33.38-.22.65-.5.82-.85v-1.62h-1.06c-1.65,0-2.48.48-2.48,1.45,0,.42.14.75.42.99.28.24.64.36,1.09.36Z"/>
        <path d="m287.22,444.87l1.95-6.05h1.38l-2.83,7.88h-1.03l-2.86-7.88h1.38l2,6.05Z"/>
        <path d="m291.85,436.73c0-.22.07-.4.2-.55.13-.15.33-.23.59-.23s.46.08.6.23c.14.15.2.34.2.55s-.07.4-.2.55c-.14.15-.34.22-.6.22s-.46-.07-.59-.22c-.13-.15-.2-.33-.2-.55Zm1.46,9.97h-1.35v-7.88h1.35v7.88Z"/>
        <path d="m296.74,438.82l.04.99c.6-.76,1.39-1.14,2.36-1.14,1.67,0,2.51.94,2.52,2.82v5.21h-1.35v-5.22c0-.57-.13-.99-.39-1.26s-.65-.41-1.19-.41c-.44,0-.82.12-1.15.35-.33.23-.59.54-.77.92v5.62h-1.35v-7.88h1.27Z"/>
        <path d="m303.37,442.7c0-1.23.28-2.21.85-2.93.57-.73,1.32-1.09,2.26-1.09s1.71.34,2.25,1.02l.07-.87h1.23v7.69c0,1.02-.3,1.82-.91,2.41-.6.59-1.42.88-2.44.88-.57,0-1.12-.12-1.67-.36s-.96-.58-1.25-1l.7-.81c.58.71,1.28,1.07,2.12,1.07.66,0,1.17-.18,1.53-.55.37-.37.55-.89.55-1.56v-.68c-.54.62-1.27.93-2.21.93s-1.67-.37-2.24-1.11c-.57-.74-.86-1.76-.86-3.04Zm1.35.15c0,.89.18,1.59.55,2.09.36.51.87.76,1.53.76.85,0,1.47-.39,1.87-1.16v-3.6c-.41-.75-1.03-1.13-1.86-1.13-.66,0-1.17.26-1.54.76-.37.51-.55,1.27-.55,2.27Z"/>
        <path d="m317.59,436.91v1.91h1.47v1.04h-1.47v4.89c0,.32.07.55.2.71.13.16.35.24.67.24.16,0,.37-.03.64-.09v1.09c-.35.1-.7.15-1.03.15-.6,0-1.06-.18-1.36-.55-.31-.36-.46-.88-.46-1.55v-4.89h-1.43v-1.04h1.43v-1.91h1.35Z"/>
        <path d="m324.44,440.03c-.2-.03-.42-.05-.66-.05-.88,0-1.48.38-1.8,1.13v5.59h-1.35v-7.88h1.31l.02.91c.44-.7,1.07-1.06,1.88-1.06.26,0,.46.03.6.1v1.25Z"/>
        <path d="m325.17,442.69c0-.77.15-1.47.46-2.08.3-.62.73-1.09,1.27-1.43.54-.34,1.16-.5,1.85-.5,1.07,0,1.94.37,2.6,1.11.66.74.99,1.73.99,2.96v.09c0,.77-.15,1.46-.44,2.07-.29.61-.71,1.08-1.26,1.42-.55.34-1.17.51-1.88.51-1.07,0-1.93-.37-2.6-1.11s-.99-1.73-.99-2.95v-.09Zm1.35.16c0,.87.2,1.58.61,2.11s.95.79,1.63.79,1.23-.27,1.63-.8c.4-.54.6-1.29.6-2.25,0-.86-.2-1.56-.62-2.1-.41-.54-.96-.8-1.64-.8s-1.2.27-1.61.79c-.41.53-.61,1.29-.61,2.27Z"/>
        <path d="m338.91,445.92c-.52.62-1.29.93-2.31.93-.84,0-1.48-.24-1.92-.73-.44-.49-.66-1.21-.67-2.17v-5.13h1.35v5.09c0,1.19.49,1.79,1.46,1.79,1.03,0,1.71-.38,2.05-1.15v-5.73h1.35v7.88h-1.28l-.03-.78Z"/>
        <path d="m348.94,442.85c0,1.2-.28,2.17-.83,2.9-.55.73-1.3,1.1-2.23,1.1-1,0-1.77-.35-2.31-1.06l-.07.91h-1.24v-11.19h1.35v4.17c.54-.68,1.29-1.01,2.25-1.01s1.71.36,2.25,1.09c.55.72.82,1.71.82,2.97v.12Zm-1.35-.15c0-.92-.18-1.63-.53-2.13s-.86-.75-1.53-.75c-.89,0-1.53.41-1.92,1.24v3.41c.41.83,1.06,1.24,1.93,1.24.65,0,1.15-.25,1.51-.75s.54-1.25.54-2.26Z"/>
        <path d="m352.1,446.7h-1.35v-11.19h1.35v11.19Z"/>
        <path d="m357.52,446.85c-1.07,0-1.94-.35-2.61-1.05s-1-1.64-1-2.82v-.25c0-.78.15-1.48.45-2.09.3-.61.72-1.09,1.25-1.44.54-.35,1.12-.52,1.74-.52,1.02,0,1.82.34,2.39,1.01.57.67.85,1.64.85,2.9v.56h-5.34c.02.78.25,1.4.68,1.88.43.48.99.72,1.66.72.48,0,.88-.1,1.21-.29s.62-.45.87-.77l.82.64c-.66,1.01-1.65,1.52-2.97,1.52Zm-.17-7.07c-.54,0-1,.2-1.37.59-.37.4-.6.95-.68,1.66h3.95v-.1c-.04-.68-.22-1.22-.55-1.59s-.78-.56-1.34-.56Z"/>
        <path d="m369.66,440.03c-.2-.03-.42-.05-.66-.05-.88,0-1.48.38-1.8,1.13v5.59h-1.35v-7.88h1.31l.02.91c.44-.7,1.07-1.06,1.88-1.06.26,0,.46.03.6.1v1.25Z"/>
        <path d="m374.17,446.85c-1.07,0-1.94-.35-2.61-1.05-.67-.7-1-1.64-1-2.82v-.25c0-.78.15-1.48.45-2.09.3-.61.72-1.09,1.25-1.44.54-.35,1.12-.52,1.74-.52,1.02,0,1.82.34,2.39,1.01.57.67.85,1.64.85,2.9v.56h-5.34c.02.78.25,1.4.68,1.88.43.48.99.72,1.66.72.48,0,.88-.1,1.21-.29s.62-.45.87-.77l.82.64c-.66,1.01-1.65,1.52-2.97,1.52Zm-.17-7.07c-.54,0-1,.2-1.37.59-.37.4-.6.95-.68,1.66h3.95v-.1c-.04-.68-.22-1.22-.55-1.59s-.78-.56-1.34-.56Z"/>
        <path d="m383.66,446.7c-.08-.16-.14-.43-.19-.83-.63.65-1.37.98-2.24.98-.78,0-1.41-.22-1.91-.66s-.75-1-.75-1.67c0-.82.31-1.46.94-1.91.62-.45,1.5-.68,2.63-.68h1.31v-.62c0-.47-.14-.85-.42-1.13s-.7-.42-1.25-.42c-.48,0-.88.12-1.21.36s-.49.54-.49.88h-1.35c0-.39.14-.77.42-1.14.28-.37.66-.66,1.14-.87.48-.21,1-.32,1.58-.32.91,0,1.62.23,2.13.68.51.45.78,1.08.8,1.88v3.63c0,.72.09,1.3.28,1.73v.12h-1.41Zm-2.24-1.03c.42,0,.82-.11,1.2-.33.38-.22.65-.5.82-.85v-1.62h-1.06c-1.65,0-2.48.48-2.48,1.45,0,.42.14.75.42.99.28.24.64.36,1.09.36Z"/>
        <path d="m390.08,445.75c.48,0,.9-.15,1.26-.44.36-.29.56-.66.6-1.09h1.27c-.02.45-.18.88-.47,1.29-.29.41-.67.73-1.15.98-.48.24-.98.36-1.52.36-1.07,0-1.93-.36-2.56-1.07s-.95-1.7-.95-2.94v-.23c0-.77.14-1.45.42-2.05.28-.6.69-1.06,1.21-1.39.53-.33,1.15-.5,1.87-.5.88,0,1.62.27,2.2.79.59.53.9,1.22.94,2.06h-1.27c-.04-.51-.23-.93-.58-1.26-.35-.33-.78-.49-1.29-.49-.68,0-1.22.25-1.59.74-.38.49-.56,1.21-.56,2.14v.26c0,.91.19,1.61.56,2.1.37.49.91.74,1.6.74Z"/>
        <path d="m396.07,439.77c.6-.73,1.37-1.1,2.33-1.1,1.67,0,2.51.94,2.52,2.82v5.21h-1.35v-5.22c0-.57-.13-.99-.39-1.26s-.65-.41-1.19-.41c-.44,0-.82.12-1.15.35-.33.23-.59.54-.77.92v5.62h-1.35v-11.19h1.35v4.26Z"/>
        <path d="m402.95,436.73c0-.22.07-.4.2-.55.13-.15.33-.23.59-.23s.46.08.6.23c.14.15.2.34.2.55s-.07.4-.2.55c-.14.15-.34.22-.6.22s-.46-.07-.59-.22c-.13-.15-.2-.33-.2-.55Zm1.46,9.97h-1.35v-7.88h1.35v7.88Z"/>
        <path d="m407.83,438.82l.04.99c.6-.76,1.39-1.14,2.36-1.14,1.67,0,2.51.94,2.52,2.82v5.21h-1.35v-5.22c0-.57-.13-.99-.39-1.26s-.65-.41-1.19-.41c-.44,0-.82.12-1.15.35-.33.23-.59.54-.77.92v5.62h-1.35v-7.88h1.27Z"/>
        <path d="m414.47,442.7c0-1.23.28-2.21.85-2.93.57-.73,1.32-1.09,2.26-1.09s1.71.34,2.25,1.02l.07-.87h1.23v7.69c0,1.02-.3,1.82-.91,2.41-.6.59-1.42.88-2.44.88-.57,0-1.12-.12-1.67-.36s-.96-.58-1.25-1l.7-.81c.58.71,1.28,1.07,2.12,1.07.66,0,1.17-.18,1.53-.55.37-.37.55-.89.55-1.56v-.68c-.54.62-1.27.93-2.21.93s-1.67-.37-2.24-1.11c-.57-.74-.86-1.76-.86-3.04Zm1.35.15c0,.89.18,1.59.55,2.09.36.51.87.76,1.53.76.85,0,1.47-.39,1.87-1.16v-3.6c-.41-.75-1.03-1.13-1.86-1.13-.66,0-1.17.26-1.54.76-.37.51-.55,1.27-.55,2.27Z"/>
        <path d="m429.43,444.73l1.84-5.91h1.44l-3.17,9.1c-.49,1.31-1.27,1.97-2.34,1.97l-.25-.02-.5-.09v-1.09l.36.03c.46,0,.81-.09,1.07-.28.26-.18.46-.52.63-1.01l.3-.8-2.81-7.79h1.47l1.97,5.91Z"/>
        <path d="m433.55,442.69c0-.77.15-1.47.46-2.08.3-.62.73-1.09,1.27-1.43.54-.34,1.16-.5,1.85-.5,1.07,0,1.94.37,2.6,1.11.66.74.99,1.73.99,2.96v.09c0,.77-.15,1.46-.44,2.07-.29.61-.71,1.08-1.26,1.42-.55.34-1.17.51-1.88.51-1.07,0-1.93-.37-2.6-1.11s-.99-1.73-.99-2.95v-.09Zm1.35.16c0,.87.2,1.58.61,2.11s.95.79,1.63.79,1.23-.27,1.63-.8c.4-.54.6-1.29.6-2.25,0-.86-.2-1.56-.62-2.1-.41-.54-.96-.8-1.64-.8s-1.2.27-1.61.79c-.41.53-.61,1.29-.61,2.27Z"/>
        <path d="m447.28,445.92c-.52.62-1.29.93-2.31.93-.84,0-1.48-.24-1.92-.73-.44-.49-.66-1.21-.67-2.17v-5.13h1.35v5.09c0,1.19.49,1.79,1.46,1.79,1.03,0,1.71-.38,2.05-1.15v-5.73h1.35v7.88h-1.28l-.03-.78Z"/>
        <path d="m459.2,446.7c-.08-.16-.14-.43-.19-.83-.63.65-1.37.98-2.24.98-.78,0-1.41-.22-1.91-.66s-.75-1-.75-1.67c0-.82.31-1.46.94-1.91.62-.45,1.5-.68,2.63-.68h1.31v-.62c0-.47-.14-.85-.42-1.13s-.7-.42-1.25-.42c-.48,0-.88.12-1.21.36s-.49.54-.49.88h-1.35c0-.39.14-.77.42-1.14.28-.37.66-.66,1.14-.87.48-.21,1-.32,1.58-.32.91,0,1.62.23,2.13.68.51.45.78,1.08.8,1.88v3.63c0,.72.09,1.3.28,1.73v.12h-1.41Zm-2.24-1.03c.42,0,.82-.11,1.2-.33.38-.22.65-.5.82-.85v-1.62h-1.06c-1.65,0-2.48.48-2.48,1.45,0,.42.14.75.42.99.28.24.64.36,1.09.36Z"/>
        <path d="m464.28,436.91v1.91h1.47v1.04h-1.47v4.89c0,.32.07.55.2.71.13.16.35.24.67.24.16,0,.37-.03.64-.09v1.09c-.35.1-.7.15-1.03.15-.6,0-1.06-.18-1.36-.55-.31-.36-.46-.88-.46-1.55v-4.89h-1.43v-1.04h1.43v-1.91h1.35Z"/>
        <path d="m472.84,436.91v1.91h1.47v1.04h-1.47v4.89c0,.32.07.55.2.71.13.16.35.24.67.24.16,0,.37-.03.64-.09v1.09c-.35.1-.7.15-1.03.15-.6,0-1.06-.18-1.36-.55-.31-.36-.46-.88-.46-1.55v-4.89h-1.43v-1.04h1.43v-1.91h1.35Z"/>
        <path d="m477.24,439.77c.6-.73,1.37-1.1,2.33-1.1,1.67,0,2.51.94,2.52,2.82v5.21h-1.35v-5.22c0-.57-.13-.99-.39-1.26s-.65-.41-1.19-.41c-.44,0-.82.12-1.15.35-.33.23-.59.54-.77.92v5.62h-1.35v-11.19h1.35v4.26Z"/>
        <path d="m487.38,446.85c-1.07,0-1.94-.35-2.61-1.05s-1-1.64-1-2.82v-.25c0-.78.15-1.48.45-2.09.3-.61.72-1.09,1.25-1.44.54-.35,1.12-.52,1.74-.52,1.02,0,1.82.34,2.39,1.01.57.67.85,1.64.85,2.9v.56h-5.34c.02.78.25,1.4.68,1.88.43.48.99.72,1.66.72.48,0,.88-.1,1.21-.29s.62-.45.87-.77l.82.64c-.66,1.01-1.65,1.52-2.97,1.52Zm-.17-7.07c-.54,0-1,.2-1.37.59-.37.4-.6.95-.68,1.66h3.95v-.1c-.04-.68-.22-1.22-.55-1.59s-.78-.56-1.34-.56Z"/>
        <path d="m242.42,460.75c0,1.2-.27,2.17-.82,2.9-.55.73-1.29,1.1-2.23,1.1s-1.71-.3-2.26-.91v3.79h-1.35v-10.91h1.23l.07.87c.55-.68,1.31-1.02,2.29-1.02s1.7.36,2.25,1.07c.55.71.83,1.71.83,2.98v.12Zm-1.35-.15c0-.89-.19-1.59-.57-2.11-.38-.51-.9-.77-1.56-.77-.82,0-1.43.36-1.84,1.09v3.77c.4.72,1.02,1.08,1.85,1.08.65,0,1.16-.26,1.54-.77.38-.51.57-1.27.57-2.28Z"/>
        <path d="m247.94,457.93c-.2-.03-.42-.05-.66-.05-.88,0-1.48.38-1.8,1.13v5.59h-1.35v-7.88h1.31l.02.91c.44-.7,1.07-1.06,1.88-1.06.26,0,.46.03.6.1v1.25Z"/>
        <path d="m248.68,460.59c0-.77.15-1.47.46-2.08.3-.62.73-1.09,1.27-1.43.54-.34,1.16-.5,1.85-.5,1.07,0,1.94.37,2.6,1.11.66.74.99,1.73.99,2.96v.09c0,.77-.15,1.46-.44,2.07-.29.61-.71,1.08-1.26,1.42-.55.34-1.17.51-1.88.51-1.07,0-1.93-.37-2.6-1.11s-.99-1.73-.99-2.95v-.09Zm1.35.16c0,.87.2,1.58.61,2.11.41.53.95.79,1.63.79s1.23-.27,1.63-.8c.4-.54.6-1.29.6-2.25,0-.86-.2-1.56-.62-2.1-.41-.54-.96-.8-1.64-.8s-1.2.27-1.61.79c-.41.53-.61,1.29-.61,2.27Z"/>
        <path d="m260.03,462.77l1.95-6.05h1.38l-2.83,7.88h-1.03l-2.86-7.88h1.38l2,6.05Z"/>
        <path d="m264.67,454.63c0-.22.07-.4.2-.55.13-.15.33-.23.59-.23s.46.08.6.23c.14.15.2.34.2.55s-.07.4-.2.55c-.14.15-.34.22-.6.22s-.46-.07-.59-.22c-.13-.15-.2-.33-.2-.55Zm1.46,9.97h-1.35v-7.88h1.35v7.88Z"/>
        <path d="m267.95,460.6c0-1.21.29-2.18.86-2.92.57-.74,1.32-1.1,2.25-1.1s1.65.32,2.19.95v-4.11h1.35v11.19h-1.24l-.07-.84c-.54.66-1.29.99-2.25.99s-1.66-.37-2.23-1.12-.86-1.72-.86-2.93v-.1Zm1.35.15c0,.89.18,1.59.55,2.1.37.51.88.76,1.53.76.85,0,1.48-.38,1.87-1.15v-3.62c-.4-.74-1.02-1.11-1.86-1.11-.66,0-1.17.26-1.54.76-.37.51-.55,1.27-.55,2.27Z"/>
        <path d="m279.96,464.75c-1.07,0-1.94-.35-2.61-1.05s-1-1.64-1-2.82v-.25c0-.78.15-1.48.45-2.09.3-.61.72-1.09,1.25-1.44.54-.35,1.12-.52,1.74-.52,1.02,0,1.82.34,2.39,1.01.57.67.85,1.64.85,2.9v.56h-5.34c.02.78.25,1.4.68,1.88.43.48.99.72,1.66.72.48,0,.88-.1,1.21-.29s.62-.45.87-.77l.82.64c-.66,1.01-1.65,1.52-2.97,1.52Zm-.17-7.07c-.54,0-1,.2-1.37.59-.37.4-.6.95-.68,1.66h3.95v-.1c-.04-.68-.22-1.22-.55-1.59s-.78-.56-1.34-.56Z"/>
        <path d="m284.27,460.6c0-1.21.29-2.18.86-2.92.57-.74,1.32-1.1,2.25-1.1s1.65.32,2.19.95v-4.11h1.35v11.19h-1.24l-.07-.84c-.54.66-1.29.99-2.25.99s-1.66-.37-2.23-1.12-.86-1.72-.86-2.93v-.1Zm1.35.15c0,.89.18,1.59.55,2.1.37.51.88.76,1.53.76.85,0,1.48-.38,1.87-1.15v-3.62c-.4-.74-1.02-1.11-1.86-1.11-.66,0-1.17.26-1.54.76-.37.51-.55,1.27-.55,2.27Z"/>
        <path d="m297.98,456.72l.04.99c.6-.76,1.39-1.14,2.36-1.14,1.67,0,2.51.94,2.52,2.82v5.21h-1.35v-5.22c0-.57-.13-.99-.39-1.26s-.65-.41-1.19-.41c-.44,0-.82.12-1.15.35-.33.23-.59.54-.77.92v5.62h-1.35v-7.88h1.27Z"/>
        <path d="m309.8,463.82c-.52.62-1.29.93-2.31.93-.84,0-1.48-.24-1.92-.73-.44-.49-.66-1.21-.67-2.17v-5.13h1.35v5.09c0,1.19.49,1.79,1.46,1.79,1.03,0,1.71-.38,2.05-1.15v-5.73h1.35v7.88h-1.28l-.03-.78Z"/>
        <path d="m314.42,456.72l.04.87c.58-.68,1.36-1.02,2.34-1.02,1.1,0,1.85.42,2.25,1.27.26-.38.6-.68,1.02-.92.42-.23.92-.35,1.49-.35,1.73,0,2.61.92,2.64,2.75v5.28h-1.35v-5.2c0-.56-.13-.98-.39-1.26-.26-.28-.69-.42-1.3-.42-.5,0-.92.15-1.25.45s-.52.7-.58,1.21v5.23h-1.35v-5.16c0-1.15-.56-1.72-1.68-1.72-.88,0-1.49.38-1.81,1.13v5.75h-1.35v-7.88h1.27Z"/>
        <path d="m332.9,460.75c0,1.2-.28,2.17-.83,2.9-.55.73-1.3,1.1-2.23,1.1-1,0-1.77-.35-2.31-1.06l-.07.91h-1.24v-11.19h1.35v4.17c.54-.68,1.29-1.01,2.25-1.01s1.71.36,2.25,1.09c.55.72.82,1.71.82,2.97v.12Zm-1.35-.15c0-.92-.18-1.63-.53-2.13s-.86-.75-1.53-.75c-.89,0-1.53.41-1.92,1.24v3.41c.41.83,1.06,1.24,1.93,1.24.65,0,1.15-.25,1.51-.75s.54-1.25.54-2.26Z"/>
        <path d="m337.87,464.75c-1.07,0-1.94-.35-2.61-1.05s-1-1.64-1-2.82v-.25c0-.78.15-1.48.45-2.09.3-.61.72-1.09,1.25-1.44.54-.35,1.12-.52,1.74-.52,1.02,0,1.82.34,2.39,1.01.57.67.85,1.64.85,2.9v.56h-5.34c.02.78.25,1.4.68,1.88.43.48.99.72,1.66.72.48,0,.88-.1,1.21-.29s.62-.45.87-.77l.82.64c-.66,1.01-1.65,1.52-2.97,1.52Zm-.17-7.07c-.54,0-1,.2-1.37.59-.37.4-.6.95-.68,1.66h3.95v-.1c-.04-.68-.22-1.22-.55-1.59s-.78-.56-1.34-.56Z"/>
        <path d="m346.31,457.93c-.2-.03-.42-.05-.66-.05-.88,0-1.48.38-1.8,1.13v5.59h-1.35v-7.88h1.31l.02.91c.44-.7,1.07-1.06,1.88-1.06.26,0,.46.03.6.1v1.25Z"/>
        <path d="m349.13,461.6c0-.58.08-1.03.2-1.37.12-.33.37-.71.74-1.11l.95-.98c.41-.46.61-.95.61-1.48s-.13-.91-.4-1.2c-.27-.29-.66-.43-1.17-.43s-.89.13-1.19.39c-.3.26-.45.61-.45,1.06h-1.35c0-.79.29-1.42.84-1.9.55-.48,1.27-.72,2.15-.72s1.63.25,2.14.74c.51.49.77,1.17.77,2.03s-.39,1.68-1.18,2.51l-.79.79c-.35.39-.53.96-.53,1.69h-1.35Zm-.06,2.31c0-.22.07-.41.2-.56s.33-.22.59-.22.46.07.6.22.2.34.2.56-.07.4-.2.55c-.14.14-.34.22-.6.22s-.46-.07-.59-.22c-.13-.14-.2-.33-.2-.55Z"/>
      </g>
      <g>
        <rect class="cls-10" x="231.23" y="357.78" width="26.02" height="26.02" rx="3.19" ry="3.19"/>
        <g>
          <path class="cls-3" d="m244.21,373.47l8.93-8.93c-.05-.01-.11-.02-.16-.02h-17.46c-.08,0-.15.02-.22.04l8.91,8.91Z"/>
          <path class="cls-3" d="m253.58,376.64c.02-.07.04-.14.04-.22v-11.26c0-.06,0-.11-.02-.16l-5.83,5.83,5.81,5.81Z"/>
          <path class="cls-3" d="m247.31,371.29l-3.1,3.1-3.1-3.1-5.76,5.76c.05.01.11.02.16.02h17.46s.07,0,.1-.01l-5.77-5.77Z"/>
          <path class="cls-3" d="m234.88,365.06s-.01.07-.01.1v11.26c0,.06,0,.11.02.16l5.76-5.76-5.77-5.77Z"/>
        </g>
      </g>
      <g>
        <path class="cls-13" d="m536.02,361.72l.05,1.11c.68-.85,1.56-1.28,2.66-1.28,1.87,0,2.82,1.06,2.84,3.17v5.86h-1.52v-5.87c0-.64-.15-1.11-.44-1.42s-.73-.46-1.34-.46c-.49,0-.92.13-1.29.39-.37.26-.66.61-.87,1.03v6.32h-1.52v-8.87h1.43Z"/>
        <path class="cls-13" d="m543.45,366.07c0-.87.17-1.65.51-2.34s.82-1.23,1.43-1.61c.61-.38,1.3-.57,2.09-.57,1.21,0,2.18.42,2.93,1.25.75.84,1.12,1.95,1.12,3.34v.11c0,.86-.17,1.64-.5,2.32-.33.69-.8,1.22-1.42,1.6s-1.32.57-2.12.57c-1.2,0-2.18-.42-2.92-1.25-.75-.84-1.12-1.94-1.12-3.32v-.11Zm1.52.18c0,.98.23,1.77.68,2.37.46.6,1.07.89,1.83.89s1.38-.3,1.84-.91c.45-.6.68-1.45.68-2.54,0-.97-.23-1.76-.69-2.36-.46-.6-1.07-.91-1.84-.91s-1.35.3-1.81.89c-.46.6-.69,1.45-.69,2.56Z"/>
        <path class="cls-13" d="m561.27,368.49l1.7-6.78h1.52l-2.58,8.87h-1.23l-2.16-6.72-2.1,6.72h-1.23l-2.57-8.87h1.51l1.75,6.64,2.06-6.64h1.22l2.11,6.78Z"/>
      </g>
    </g>
  </g>
  <g>
    <g>
      <rect class="cls-12" x="533.92" y="670.97" width="134.09" height="134.09" rx="30.72" ry="30.72"/>
      <path class="cls-3" d="m570.14,736.11c10.19,16.4,27.45,36.45,55.17,48.78,0,0,10.46,2.69,18.91-11.01.72-1.17.46-2.71-.63-3.55l-19.09-14.65c-.82-.63-1.93-.73-2.85-.25l-8.47,4.39c-.9.47-1.97.39-2.78-.2-16.95-13.53-26.62-28.7-29.35-33.34-.51-.87-.48-1.94.07-2.79l5.21-8c.56-.87.58-1.98.03-2.86l-12.7-20.45c-.73-1.17-2.23-1.58-3.47-.98-14.47,7.06-12.83,17.74-12.83,17.74,0,0,3.37,12.04,12.78,27.18Z"/>
    </g>
    <circle class="cls-6" cx="656.64" cy="669.99" r="27.39"/>
    <path class="cls-3" d="m664.94,659.99l-10.42,23.24h-2.09l10.36-22.69h-13.87v-1.71h16.04v1.16Z"/>
  </g>
  <g>
    <rect class="cls-10" y="537.96" width="134.09" height="134.09" rx="32.71" ry="32.71"/>
    <g>
      <path class="cls-3" d="m66.87,618.79l46-46c-.27-.07-.54-.12-.83-.12H22.06c-.39,0-.76.08-1.11.2l45.91,45.91Z"/>
      <path class="cls-3" d="m115.15,635.13c.12-.35.2-.72.2-1.11v-58.02c0-.29-.05-.57-.12-.83l-30.03,30.03,29.94,29.94Z"/>
      <path class="cls-3" d="m82.84,607.56l-15.97,15.97-15.97-15.97-29.67,29.67c.27.07.54.12.83.12h89.97c.18,0,.36-.03.54-.05l-29.73-29.73Z"/>
      <path class="cls-3" d="m18.79,575.46c-.03.18-.05.35-.05.54v58.02c0,.29.05.57.12.83l29.67-29.67-29.73-29.73Z"/>
    </g>
    <circle class="cls-6" cx="122.72" cy="536.98" r="27.39"/>
    <path class="cls-3" d="m131.27,550.23h-15.28v-1.54l8.36-9.48c1.39-1.6,2.35-2.92,2.88-3.95s.8-2.05.8-3.03c0-1.54-.45-2.76-1.36-3.66s-2.15-1.35-3.74-1.35-2.97.53-3.98,1.58c-1.01,1.05-1.52,2.41-1.52,4.09h-1.99c0-1.37.31-2.63.93-3.75.62-1.13,1.5-2.01,2.65-2.66,1.14-.64,2.45-.96,3.91-.96,2.23,0,3.98.59,5.24,1.76,1.26,1.17,1.88,2.77,1.88,4.79,0,1.14-.35,2.39-1.06,3.74s-1.96,3.04-3.74,5.06l-6.8,7.69h12.82v1.69Z"/>
  </g>
  <g>
    <rect class="cls-12" x="649.89" y="231.88" width="134.09" height="134.09" rx="30.47" ry="30.47"/>
    <path class="cls-3" d="m716.74,258.83c-29.82,0-54,18.15-54,40.55,0,14.11,9.61,26.53,24.18,33.8.37.19.54.63.35,1-1.56,2.99-4.01,6.57-7.7,9.48-.62.49-.15,1.49.62,1.32,5.03-1.11,14.16-3.41,20.44-6.71.15-.08.32-.1.48-.06,4.95,1.12,10.19,1.73,15.63,1.73,29.82,0,54-18.15,54-40.55s-24.17-40.55-54-40.55Z"/>
    <circle class="cls-6" cx="772.61" cy="230.64" r="27.39"/>
    <path class="cls-3" d="m775.21,243.89h-2.01v-21.98l-6.64,2.46v-1.88l8.31-3.08h.34v24.48Z"/>
  </g>
</svg>