<?xml version="1.0" encoding="UTF-8"?>
<svg xmlns="http://www.w3.org/2000/svg" viewBox="0 0 1468.48 1075.18">
  <defs>
    <style>
      .cls-1, .cls-2, .cls-3, .cls-4, .cls-5, .cls-6 {
        fill: none;
      }

      .cls-2, .cls-3 {
        stroke-linecap: round;
        stroke-linejoin: round;
      }

      .cls-2, .cls-4, .cls-5, .cls-6 {
        stroke: #525988;
      }

      .cls-7 {
        fill: #f89c2b;
      }

      .cls-8 {
        fill: #0000e7;
      }

      .cls-9 {
        fill: #f06262;
      }

      .cls-10 {
        fill: #f0f0f0;
      }

      .cls-11 {
        fill: #f4981c;
      }

      .cls-12, .cls-13 {
        fill: #fff;
      }

      .cls-14 {
        fill: #ffe200;
      }

      .cls-15, .cls-16 {
        fill: #f5c6a6;
      }

      .cls-17 {
        fill: #fffac0;
      }

      .cls-18, .cls-19 {
        fill: #f39820;
      }

      .cls-20 {
        fill: red;
      }

      .cls-21 {
        fill: #73859c;
      }

      .cls-22 {
        fill: #b7b7b7;
      }

      .cls-23, .cls-24 {
        fill: #ce936d;
      }

      .cls-25 {
        fill: #ceeef3;
      }

      .cls-26 {
        fill: #b1d5f2;
      }

      .cls-27 {
        fill: #be8863;
      }

      .cls-28, .cls-29 {
        fill: #e02227;
      }

      .cls-30 {
        fill: #dbdbdb;
      }

      .cls-31 {
        fill: #d8ecd1;
      }

      .cls-32 {
        fill: #11613a;
      }

      .cls-33, .cls-34 {
        fill: #1d6cb5;
      }

      .cls-35 {
        fill: #212f61;
      }

      .cls-36 {
        fill: #0c0c0c;
      }

      .cls-37 {
        fill: #078ee3;
      }

      .cls-38 {
        fill: #45474e;
      }

      .cls-39 {
        fill: #3f3f3f;
      }

      .cls-40 {
        fill: #7190c9;
      }

      .cls-41 {
        fill: #878787;
      }

      .cls-42, .cls-43 {
        fill: #704e37;
      }

      .cls-44 {
        fill: #2d3156;
      }

      .cls-45, .cls-46 {
        fill: #2f305a;
      }

      .cls-47 {
        fill: #4c6caf;
      }

      .cls-48 {
        fill: #4b6499;
      }

      .cls-49 {
        fill: #4f4f4f;
      }

      .cls-50 {
        fill: #525988;
      }

      .cls-3 {
        stroke: #f26222;
        stroke-width: 2px;
      }

      .cls-4 {
        stroke-width: .53px;
      }

      .cls-4, .cls-51, .cls-5, .cls-6 {
        stroke-miterlimit: 10;
      }

      .cls-51 {
        fill: #81849d;
        stroke: #494949;
      }

      .cls-52 {
        opacity: .56;
      }

      .cls-53 {
        opacity: .84;
      }

      .cls-54 {
        fill: #f48f8c;
      }

      .cls-54, .cls-55, .cls-56, .cls-57, .cls-46, .cls-58, .cls-59, .cls-60, .cls-61, .cls-62, .cls-43, .cls-63, .cls-64, .cls-65, .cls-66, .cls-34, .cls-67, .cls-68, .cls-69, .cls-70, .cls-71, .cls-29, .cls-72, .cls-24, .cls-73, .cls-74, .cls-75, .cls-76, .cls-19, .cls-16, .cls-13, .cls-77, .cls-78, .cls-79 {
        fill-rule: evenodd;
      }

      .cls-55 {
        fill: #383b43;
      }

      .cls-56 {
        fill: #2d7fbf;
      }

      .cls-57 {
        fill: #84755e;
      }

      .cls-58 {
        fill: #524638;
      }

      .cls-59 {
        fill: #791516;
      }

      .cls-60 {
        fill: #554e43;
      }

      .cls-61 {
        fill: #4d4e57;
      }

      .cls-62 {
        fill: #7abef5;
      }

      .cls-63 {
        fill: #9c6742;
      }

      .cls-64 {
        fill: #40382c;
      }

      .cls-65 {
        fill: #3f8ccb;
      }

      .cls-66 {
        fill: #949190;
      }

      .cls-67 {
        fill: #dca581;
      }

      .cls-68 {
        fill: #db5149;
      }

      .cls-69 {
        fill: #dfecf4;
      }

      .cls-70 {
        fill: #d89f7a;
      }

      .cls-71 {
        fill: #cacac9;
      }

      .cls-72 {
        fill: #ad2925;
      }

      .cls-73 {
        fill: #c12828;
      }

      .cls-74 {
        fill: #b17c55;
      }

      .cls-75 {
        fill: #b3b1b3;
      }

      .cls-76 {
        fill: #e4e4e3;
      }

      .cls-77 {
        fill: #e7454b;
      }

      .cls-78 {
        fill: #ffcc07;
      }

      .cls-79 {
        fill: #676973;
      }

      .cls-6 {
        stroke-width: .95px;
      }
    </style>
  </defs>
  <g id="training_drivers" data-name="training drivers">
    <path class="cls-37" d="m881.37,1064.47H-2.52V106.56h883.89c237.21,0,429.52,214.44,429.52,478.96h0c0,264.52-192.3,478.96-429.52,478.96Z"/>
    <g>
      <g>
        <rect class="cls-12" x="625.66" y="808.11" width="17.71" height="74.63" rx="8.18" ry="8.18"/>
        <rect class="cls-12" x="625.66" y="808.11" width="17.71" height="74.63" rx="8.18" ry="8.18" transform="translate(-210.91 1479.94) rotate(-90)"/>
      </g>
      <g>
        <path class="cls-36" d="m726.79,909.55l.08-128.36c0-15.44,12.53-27.95,27.97-27.94l321.81.06c15.45,0,27.96,12.53,27.96,27.98l-.08,128.36c0,15.44-12.53,27.95-27.97,27.94l-321.81-.06c-15.45,0-27.96-12.53-27.96-27.98Z"/>
        <path class="cls-44" d="m1093.13,909.51v-24.89c.02-3.34-2.81-6.04-6.3-6.04h-4.51c-3.49,0-6.32-2.71-6.31-6.05l.03-48.51c0-3.34,2.83-6.04,6.32-6.04h4.51c3.49,0,6.32-2.7,6.32-6.04v-8.75s.02-21.78.02-21.78c0-10.82-8.76-19.59-19.58-19.59l-314.11-.06c-10.81,0-19.58,8.76-19.59,19.57l-.07,128.11c0,10.82,8.76,19.59,19.58,19.59l314.11.06c10.81,0,19.58-8.76,19.59-19.57Z"/>
        <g>
          <rect class="cls-51" x="800.66" y="815.5" width="224.48" height="18.32" rx="1.25" ry="1.25"/>
          <rect class="cls-51" x="800.66" y="836.05" width="224.48" height="18.32" rx="1.25" ry="1.25"/>
          <rect class="cls-12" x="800.66" y="862.06" width="224.48" height="15.31" rx="1.21" ry="1.21"/>
          <g>
            <path class="cls-12" d="m912.58,798.69c-.07-1.03-.91-1.34-1.55-1.34-.85,0-1.56.53-1.56,1.4,0,.7.52,1,1.17,1.2.83.27,1.18.42,1.19.88,0,.39-.33.69-.76.69-.33,0-.79-.19-.82-.75h-.88c.04,1.05.96,1.47,1.69,1.47.92,0,1.67-.61,1.66-1.51-.03-.99-.8-1.2-1.51-1.39-.5-.14-.83-.31-.85-.67,0-.31.23-.59.67-.59.45,0,.67.26.67.62h.88Z"/>
            <path class="cls-12" d="m906.78,802.11h.89v-2.5c0-.92.44-1.38,1.27-1.38h.06v-.88c-.63,0-1.12.27-1.38.82v-.68h-.84v4.62h0Z"/>
            <path class="cls-12" d="m905.91,800.08c.08-.77-.15-1.5-.7-2.05-.44-.43-1.05-.68-1.72-.68-1.41,0-2.45,1.13-2.45,2.46,0,1.22.94,2.44,2.46,2.44.47,0,.93-.13,1.32-.39.39-.25.72-.64.94-1.15h-.92c-.26.48-.72.78-1.34.78-.7,0-1.52-.48-1.56-1.41h3.97Zm-3.95-.69c.04-.63.63-1.28,1.54-1.28.88-.02,1.49.67,1.54,1.28h-3.07Z"/>
            <polygon class="cls-12" points="899.32 802.11 900.21 802.11 900.21 797.49 899.32 797.49 899.32 802.11 899.32 802.11"/>
            <path class="cls-12" d="m896.4,802.11h.89v-2.5c0-.92.44-1.38,1.27-1.38h.06v-.88c-.63,0-1.12.27-1.38.82v-.68h-.84v4.62h0Z"/>
            <path class="cls-12" d="m893.53,802.11h.89v-2.5c0-.92.44-1.38,1.27-1.38h.06v-.88c-.63,0-1.12.27-1.38.82v-.68h-.84v4.62h0Z"/>
            <path class="cls-12" d="m892.36,797.49h-.89v.82c-.21-.44-.8-.95-1.72-.95-1.35,0-2.38,1.04-2.38,2.45,0,1.29.89,2.45,2.38,2.45.73,0,1.4-.32,1.72-.94v.81h.89v-4.62h0Zm-4.11,2.32c0-.87.63-1.63,1.61-1.63.74,0,1.26.42,1.49.95.1.21.15.45.14.69,0,.24-.06.48-.16.69-.23.53-.73.92-1.44.92-1.13,0-1.61-.92-1.62-1.61h0Z"/>
            <path class="cls-12" d="m885.86,800.48c-.19.46-.67.93-1.45.93-.89,0-1.59-.67-1.59-1.62,0-.47.18-.9.45-1.17.32-.31.67-.46,1.14-.45.63,0,1.21.35,1.45.97h.91c-.29-1.11-1.29-1.79-2.4-1.79-1.39,0-2.44,1.08-2.44,2.45,0,1.28.96,2.45,2.48,2.45,1.16,0,2.07-.76,2.36-1.76h-.91Z"/>
            <path class="cls-12" d="m918.96,807.14h3.52v-1.41h-1.97v-1.08h1.91v-1.41h-1.91v-.98h1.97v-1.41h-3.52v6.3h0Zm4.44,0h2.22c2.41,0,3.26-1.45,3.26-3.17,0-.69-.15-1.36-.58-1.96-.82-1.18-2.09-1.18-2.8-1.18h-2.1v6.3h0Zm1.62-4.89h.7c.72,0,1.04.3,1.23.58.23.36.31.81.31,1.17,0,.89-.34,1.73-1.55,1.73h-.69v-3.48h0Zm7.53,1.3v1.29h1.89c-.17.61-.71,1.01-1.52,1.01s-1.74-.57-1.74-1.89c0-1.24.93-1.83,1.73-1.83.68,0,1.15.37,1.4.82h1.81c-.35-1.22-1.65-2.23-3.17-2.23-1.87,0-3.39,1.36-3.39,3.25s1.45,3.31,3.37,3.31c1.75,0,3.38-1.27,3.38-3.38,0-.13,0-.22,0-.33h-3.76Zm4.61,3.59h3.52v-1.41h-1.97v-1.08h1.91v-1.41h-1.91v-.98h1.97v-1.41h-3.52v6.3h0Z"/>
            <path class="cls-13" d="m899.77,795.69c.33,0,.61.27.61.6s-.27.6-.61.6-.61-.27-.61-.6.27-.6.61-.6h0Z"/>
            <path class="cls-13" d="m917.7,795.5c.78,4.11-.06,9.1-1.68,11.65,1.37-8.97-2.41-12.75-9.8-13.76,3.36-.98,7.85-.2,11.48,2.11h0Z"/>
            <path class="cls-13" d="m900.36,795.71c4.8-4.95,8.28-7.3,14.75-5.41,1.22,1.06,2,2.67,2.45,4.5-5.65-3.39-11.89-3.2-17.2.91h0Z"/>
            <path class="cls-12" d="m942.59,799.02c.35,0,.68.14.91.38.23.23.38.55.38.91s-.14.68-.38.91c-.23.23-.55.38-.91.38s-.68-.14-.91-.38c-.23-.23-.38-.55-.38-.91s.14-.68.38-.91c.23-.23.55-.38.91-.38h0Zm.76.53c-.19-.19-.46-.31-.76-.31s-.56.12-.76.31-.31.46-.31.76.12.56.31.76c.19.19.46.31.76.31s.56-.12.76-.31.31-.46.31-.76-.12-.56-.31-.76h0Z"/>
            <path class="cls-12" d="m942.02,800.94v-1.27h.54c.14,0,.24.01.3.03.06.02.11.06.15.12.04.06.06.13.06.2,0,.1-.03.17-.08.24-.06.06-.14.1-.25.12.06.03.1.07.14.11.04.04.08.11.15.21l.16.25h-.31l-.18-.28c-.07-.1-.11-.16-.14-.19-.02-.03-.05-.04-.08-.05-.03,0-.07-.01-.13-.01h-.05v.53h-.26Zm.26-.73h.19c.12,0,.2,0,.23-.02.03-.01.05-.03.07-.05.02-.03.03-.06.03-.1,0-.04-.01-.08-.03-.1-.02-.03-.06-.04-.1-.05-.02,0-.08,0-.19,0h-.2v.32h0Z"/>
          </g>
          <g>
            <path class="cls-12" d="m810.5,822.2v3.08c0,.43.11.75.32.96.21.21.51.31.88.31s.66-.1.88-.31c.21-.21.32-.53.32-.96v-3.08h.64v3.07c0,.41-.08.75-.24,1.02-.16.28-.38.48-.66.62-.28.13-.59.2-.93.2s-.65-.07-.93-.2c-.28-.14-.5-.34-.66-.62s-.24-.62-.24-1.02v-3.07h.64Z"/>
            <path class="cls-12" d="m815.15,826.98c-.23-.1-.42-.24-.55-.42-.14-.18-.21-.39-.22-.62h.66c.02.19.11.35.27.47s.37.18.63.18c.24,0,.43-.05.57-.16s.21-.24.21-.4-.07-.29-.22-.37c-.15-.08-.38-.16-.69-.24-.28-.07-.51-.15-.69-.23-.18-.08-.33-.19-.46-.34-.13-.15-.19-.35-.19-.6,0-.2.06-.37.17-.54.12-.16.28-.29.5-.39s.46-.14.73-.14c.42,0,.77.11,1.03.32.26.21.4.51.42.88h-.64c-.01-.2-.09-.36-.24-.48s-.34-.18-.59-.18c-.23,0-.41.05-.54.15-.14.1-.2.23-.2.38,0,.13.04.23.12.31s.18.15.31.2c.12.05.29.1.51.16.27.07.5.15.67.22s.32.18.44.32c.12.14.19.33.19.57,0,.21-.06.4-.17.57s-.28.3-.49.39c-.21.09-.45.14-.73.14-.29,0-.56-.05-.79-.15Z"/>
            <path class="cls-12" d="m821.7,825.39h-3.06c.02.38.15.67.39.88.23.21.52.32.85.32.27,0,.5-.06.69-.19.18-.13.31-.3.39-.51h.68c-.1.37-.31.67-.61.9-.31.23-.69.35-1.14.35-.36,0-.69-.08-.97-.24s-.51-.39-.67-.69c-.16-.3-.24-.65-.24-1.04s.08-.74.24-1.04c.16-.3.38-.53.67-.69.29-.16.62-.24.99-.24s.68.08.96.24c.28.16.49.38.65.65s.23.59.23.94c0,.12,0,.25-.02.38Zm-.8-1.14c-.11-.17-.25-.31-.44-.4-.18-.09-.39-.14-.61-.14-.32,0-.59.1-.82.31-.23.2-.35.49-.39.85h2.41c0-.24-.05-.45-.16-.62Z"/>
            <path class="cls-12" d="m823.67,823.35c.21-.12.46-.18.76-.18v.66h-.17c-.71,0-1.07.39-1.07,1.16v2.08h-.64v-3.82h.64v.62c.11-.22.27-.39.48-.51Z"/>
            <path class="cls-12" d="m828.15,823.59c.29.28.43.69.43,1.22v2.25h-.63v-2.16c0-.38-.1-.67-.29-.88s-.45-.3-.78-.3-.6.1-.8.31c-.2.21-.3.51-.3.91v2.11h-.64v-3.82h.64v.54c.13-.2.3-.35.51-.45.22-.11.45-.16.72-.16.47,0,.84.14,1.13.42Z"/>
            <path class="cls-12" d="m829.63,824.11c.16-.3.38-.52.65-.69.28-.16.59-.24.92-.24s.63.07.87.22c.25.14.43.33.55.54v-.7h.64v3.82h-.64v-.71c-.13.22-.31.41-.56.55-.25.15-.54.22-.87.22s-.65-.08-.92-.25c-.27-.17-.49-.4-.65-.7-.16-.3-.24-.65-.24-1.03s.08-.73.24-1.03Zm2.83.28c-.12-.21-.27-.38-.47-.49s-.42-.17-.65-.17-.45.06-.65.17c-.2.11-.35.27-.47.49-.12.21-.17.47-.17.75s.06.55.17.76.27.38.47.5c.2.11.41.17.65.17s.45-.06.65-.17c.2-.11.35-.28.47-.5s.17-.47.17-.76-.06-.54-.17-.75Z"/>
            <path class="cls-12" d="m839.74,823.36c.23.12.42.31.55.55.13.25.2.55.2.9v2.25h-.63v-2.16c0-.38-.09-.67-.28-.88-.19-.2-.44-.3-.76-.3s-.59.11-.79.32c-.2.21-.29.52-.29.92v2.11h-.63v-2.16c0-.38-.09-.67-.28-.88s-.44-.3-.76-.3-.59.11-.79.32c-.2.21-.29.52-.29.92v2.11h-.64v-3.82h.64v.55c.13-.2.29-.35.51-.46.21-.11.45-.16.7-.16.32,0,.6.07.85.22.25.14.43.36.55.64.11-.27.28-.48.53-.63.25-.15.52-.22.82-.22s.56.06.8.18Z"/>
            <path class="cls-12" d="m845,825.39h-3.06c.02.38.15.67.39.88.23.21.52.32.85.32.27,0,.5-.06.69-.19.18-.13.31-.3.39-.51h.68c-.1.37-.31.67-.61.9-.31.23-.69.35-1.14.35-.36,0-.69-.08-.97-.24s-.51-.39-.67-.69c-.16-.3-.24-.65-.24-1.04s.08-.74.24-1.04c.16-.3.38-.53.67-.69.29-.16.62-.24.99-.24s.68.08.96.24c.28.16.49.38.65.65s.23.59.23.94c0,.12,0,.25-.02.38Zm-.8-1.14c-.11-.17-.25-.31-.44-.4-.18-.09-.39-.14-.61-.14-.32,0-.59.1-.82.31-.23.2-.35.49-.39.85h2.41c0-.24-.05-.45-.16-.62Z"/>
          </g>
          <g>
            <path class="cls-12" d="m812.7,845.42c-.28.27-.7.4-1.27.4h-.93v2.03h-.64v-4.86h1.57c.55,0,.97.13,1.25.4.29.27.43.61.43,1.03s-.14.74-.42,1.01Zm-.49-.35c.17-.15.25-.37.25-.66,0-.6-.34-.9-1.03-.9h-.93v1.79h.93c.35,0,.61-.08.78-.23Z"/>
            <path class="cls-12" d="m813.9,844.9c.16-.3.38-.52.65-.69.28-.16.59-.24.92-.24s.63.07.87.22c.25.14.43.33.55.54v-.7h.64v3.82h-.64v-.71c-.13.22-.31.41-.56.55-.25.15-.54.22-.87.22s-.65-.08-.92-.25c-.27-.17-.49-.4-.65-.7-.16-.3-.24-.65-.24-1.03s.08-.73.24-1.03Zm2.83.28c-.12-.21-.27-.38-.47-.49s-.42-.17-.65-.17-.45.06-.65.17c-.2.11-.35.27-.47.49-.12.21-.17.47-.17.75s.06.55.17.76.27.38.47.5c.2.11.41.17.65.17s.45-.06.65-.17c.2-.11.35-.28.47-.5s.17-.47.17-.76-.06-.54-.17-.75Z"/>
            <path class="cls-12" d="m819.19,847.76c-.23-.1-.42-.24-.55-.42-.14-.18-.21-.39-.22-.62h.66c.02.19.11.35.27.47s.37.18.63.18c.24,0,.43-.05.57-.16s.21-.24.21-.4-.07-.29-.22-.37c-.15-.08-.38-.16-.69-.24-.28-.07-.51-.15-.69-.23-.18-.08-.33-.19-.46-.34-.13-.15-.19-.35-.19-.6,0-.2.06-.37.17-.54.12-.16.28-.29.5-.39s.46-.14.73-.14c.42,0,.77.11,1.03.32.26.21.4.51.42.88h-.64c-.01-.2-.09-.36-.24-.48s-.34-.18-.59-.18c-.23,0-.41.05-.54.15-.14.1-.2.23-.2.38,0,.13.04.23.12.31s.18.15.31.2c.12.05.29.1.51.16.27.07.5.15.67.22s.32.18.44.32c.12.14.19.33.19.57,0,.21-.06.4-.17.57s-.28.3-.49.39c-.21.09-.45.14-.73.14-.29,0-.56-.05-.79-.15Z"/>
            <path class="cls-12" d="m822.83,847.76c-.23-.1-.42-.24-.55-.42-.14-.18-.21-.39-.22-.62h.66c.02.19.11.35.27.47s.37.18.63.18c.24,0,.43-.05.57-.16s.21-.24.21-.4-.07-.29-.22-.37c-.15-.08-.38-.16-.69-.24-.28-.07-.51-.15-.69-.23-.18-.08-.33-.19-.46-.34-.13-.15-.19-.35-.19-.6,0-.2.06-.37.17-.54.12-.16.28-.29.5-.39s.46-.14.73-.14c.42,0,.77.11,1.03.32.26.21.4.51.42.88h-.64c-.01-.2-.09-.36-.24-.48s-.34-.18-.59-.18c-.23,0-.41.05-.54.15-.14.1-.2.23-.2.38,0,.13.04.23.12.31s.18.15.31.2c.12.05.29.1.51.16.27.07.5.15.67.22s.32.18.44.32c.12.14.19.33.19.57,0,.21-.06.4-.17.57s-.28.3-.49.39c-.21.09-.45.14-.73.14-.29,0-.56-.05-.79-.15Z"/>
            <path class="cls-12" d="m831,844.03l-1.19,3.82h-.66l-.92-3.04-.92,3.04h-.66l-1.2-3.82h.65l.88,3.21.95-3.21h.65l.93,3.22.87-3.22h.63Z"/>
            <path class="cls-12" d="m832.32,847.67c-.29-.16-.52-.39-.68-.69-.17-.3-.25-.65-.25-1.04s.08-.74.25-1.04c.17-.3.4-.53.69-.69.29-.16.62-.24.98-.24s.69.08.98.24c.29.16.52.39.69.69s.25.64.25,1.04-.09.74-.26,1.04c-.17.3-.41.53-.71.69s-.63.24-.99.24-.68-.08-.97-.24Zm1.62-.47c.2-.11.36-.27.48-.48.12-.21.19-.47.19-.78s-.06-.57-.18-.78c-.12-.21-.28-.37-.47-.48-.2-.1-.41-.16-.64-.16s-.45.05-.64.16-.35.26-.46.48c-.12.21-.17.47-.17.78s.06.58.17.79c.11.21.27.37.46.48s.4.16.63.16.44-.05.64-.16Z"/>
            <path class="cls-12" d="m837.21,844.14c.21-.12.46-.18.76-.18v.66h-.17c-.71,0-1.07.39-1.07,1.16v2.08h-.64v-3.82h.64v.62c.11-.22.27-.39.48-.51Z"/>
            <path class="cls-12" d="m838.7,844.9c.16-.3.38-.52.65-.69.28-.16.59-.24.93-.24.3,0,.57.07.83.21.26.14.45.32.59.54v-2.02h.64v5.16h-.64v-.72c-.13.23-.31.42-.56.56s-.53.22-.87.22-.65-.08-.92-.25c-.28-.17-.49-.4-.65-.7-.16-.3-.24-.65-.24-1.03s.08-.73.24-1.03Zm2.83.28c-.12-.21-.27-.38-.47-.49s-.42-.17-.65-.17-.45.06-.65.17c-.2.11-.35.27-.47.49-.12.21-.17.47-.17.75s.06.55.17.76.27.38.47.5c.2.11.41.17.65.17s.45-.06.65-.17c.2-.11.35-.28.47-.5s.17-.47.17-.76-.06-.54-.17-.75Z"/>
          </g>
          <g>
            <path class="cls-47" d="m904.88,872.4h1.61v.77h-2.58v-4.87h.98v4.1Z"/>
            <path class="cls-47" d="m907.81,872.99c-.3-.17-.53-.4-.7-.7s-.25-.65-.25-1.05.09-.74.26-1.05c.17-.3.41-.54.72-.7.3-.16.64-.25,1.01-.25s.71.08,1.01.25c.3.17.54.4.72.7.17.3.26.65.26,1.05s-.09.74-.27,1.05c-.18.3-.42.54-.73.7s-.65.25-1.02.25-.71-.08-1-.25Zm1.5-.73c.16-.09.28-.22.37-.39.09-.17.14-.38.14-.63,0-.37-.1-.65-.29-.85-.19-.2-.43-.3-.71-.3s-.51.1-.7.3c-.19.2-.28.48-.28.85s.09.65.28.85c.18.2.42.3.69.3.18,0,.34-.04.5-.13Z"/>
            <path class="cls-47" d="m913.83,869.42c.22.11.39.26.52.44v-.55h.98v3.89c0,.36-.07.68-.22.96-.14.28-.36.5-.65.67-.29.17-.64.25-1.05.25-.55,0-1-.13-1.35-.38-.35-.26-.55-.6-.6-1.05h.97c.05.18.16.32.33.42.17.1.38.16.62.16.28,0,.51-.08.69-.25.18-.17.26-.43.26-.77v-.6c-.13.18-.3.33-.52.45-.22.12-.47.18-.76.18-.33,0-.62-.08-.89-.25-.27-.17-.48-.4-.64-.71-.16-.3-.23-.66-.23-1.05s.08-.74.23-1.04c.16-.3.37-.53.63-.7.27-.16.57-.24.9-.24.29,0,.54.06.76.17Zm.38,1.21c-.09-.17-.22-.3-.38-.39-.16-.09-.33-.14-.51-.14s-.35.04-.5.13c-.15.09-.28.22-.37.39-.1.17-.14.37-.14.6s.05.44.14.61c.1.17.22.31.38.4.16.09.32.14.5.14s.35-.05.51-.14c.16-.09.28-.22.38-.39.09-.17.14-.37.14-.61s-.05-.44-.14-.61Z"/>
            <path class="cls-47" d="m916.35,868.69c-.11-.11-.17-.25-.17-.41s.06-.3.17-.41.26-.16.43-.16.32.05.43.16c.11.11.17.25.17.41s-.06.3-.17.41c-.11.11-.26.16-.43.16s-.32-.05-.43-.16Zm.91.62v3.87h-.98v-3.87h.98Z"/>
            <path class="cls-47" d="m921.49,869.69c.28.29.43.7.43,1.22v2.27h-.98v-2.14c0-.31-.08-.54-.23-.71-.15-.17-.36-.25-.63-.25s-.48.08-.64.25c-.16.16-.23.4-.23.71v2.14h-.98v-3.87h.98v.48c.13-.17.3-.3.5-.39s.42-.14.67-.14c.46,0,.83.15,1.12.44Z"/>
          </g>
          <g>
            <path class="cls-12" d="m887.1,895.6v.52h-2.11v1.64h1.72v.52h-1.72v2.19h-.64v-4.86h2.75Z"/>
            <path class="cls-12" d="m888.57,900.28c-.29-.16-.52-.39-.68-.69-.17-.3-.25-.65-.25-1.04s.08-.74.25-1.04c.17-.3.4-.53.69-.69.29-.16.62-.24.98-.24s.69.08.98.24c.29.16.52.39.69.69.17.3.25.64.25,1.04s-.09.74-.26,1.04c-.17.3-.41.53-.71.69s-.63.24-.99.24-.68-.08-.97-.24Zm1.62-.47c.2-.11.36-.27.48-.48.12-.21.19-.47.19-.78s-.06-.57-.18-.78c-.12-.21-.28-.37-.47-.48-.2-.1-.41-.16-.64-.16s-.45.05-.64.16-.35.26-.46.48c-.12.21-.17.47-.17.78s.06.58.17.79c.11.21.27.37.46.48s.4.16.63.16.44-.05.64-.16Z"/>
            <path class="cls-12" d="m893.45,896.75c.21-.12.46-.18.76-.18v.66h-.17c-.71,0-1.07.39-1.07,1.16v2.08h-.64v-3.82h.64v.62c.11-.22.27-.39.48-.51Z"/>
            <path class="cls-12" d="m897.39,896.79c.25.14.43.33.56.54v-.7h.64v3.91c0,.35-.07.66-.22.93-.15.27-.36.49-.64.64-.28.15-.6.23-.97.23-.5,0-.92-.12-1.26-.36-.33-.24-.53-.56-.59-.97h.63c.07.23.21.42.43.56.22.14.48.21.79.21.35,0,.63-.11.85-.33.22-.22.33-.53.33-.92v-.8c-.13.22-.31.41-.56.56-.25.15-.53.22-.87.22s-.65-.08-.92-.25c-.28-.17-.49-.4-.65-.7-.16-.3-.24-.65-.24-1.03s.08-.73.24-1.03c.16-.3.38-.52.65-.69.28-.16.59-.24.92-.24s.62.07.87.22Zm.38,1c-.12-.21-.27-.38-.47-.49s-.42-.17-.65-.17-.45.06-.65.17c-.2.11-.35.27-.47.49-.12.21-.17.47-.17.75s.06.55.17.76.27.38.47.5c.2.11.41.17.65.17s.45-.06.65-.17c.2-.11.35-.28.47-.5s.17-.47.17-.76-.06-.54-.17-.75Z"/>
            <path class="cls-12" d="m903.13,898.79h-3.06c.02.38.15.67.39.88.23.21.52.32.85.32.27,0,.5-.06.69-.19.18-.13.31-.3.39-.51h.68c-.1.37-.31.67-.61.9-.31.23-.69.35-1.14.35-.36,0-.69-.08-.97-.24s-.51-.39-.67-.69c-.16-.3-.24-.65-.24-1.04s.08-.74.24-1.04c.16-.3.38-.53.67-.69.29-.16.62-.24.99-.24s.68.08.96.24c.28.16.49.38.65.65s.23.59.23.94c0,.12,0,.25-.02.38Zm-.8-1.14c-.11-.17-.25-.31-.44-.4-.18-.09-.39-.14-.61-.14-.32,0-.59.1-.82.31-.23.2-.35.49-.39.85h2.41c0-.24-.05-.45-.16-.62Z"/>
            <path class="cls-12" d="m904.76,897.16v2.25c0,.19.04.32.12.39.08.08.22.12.41.12h.47v.54h-.57c-.35,0-.62-.08-.8-.24-.18-.16-.27-.43-.27-.8v-2.25h-.5v-.52h.5v-.96h.64v.96h1v.52h-1Z"/>
            <path class="cls-12" d="m909.16,897.16v2.25c0,.19.04.32.12.39.08.08.22.12.41.12h.47v.54h-.57c-.35,0-.62-.08-.8-.24-.18-.16-.27-.43-.27-.8v-2.25h-.5v-.52h.5v-.96h.64v.96h1v.52h-1Z"/>
            <path class="cls-12" d="m913.61,896.75c.23.12.42.31.55.55.13.25.2.55.2.9v2.25h-.63v-2.16c0-.38-.1-.67-.29-.88s-.45-.3-.78-.3-.6.1-.8.31c-.2.21-.3.51-.3.91v2.11h-.64v-5.16h.64v1.88c.13-.2.3-.35.52-.45.22-.11.47-.16.74-.16.29,0,.55.06.78.18Z"/>
            <path class="cls-12" d="m918.86,898.79h-3.06c.02.38.15.67.39.88.23.21.52.32.85.32.27,0,.5-.06.69-.19.18-.13.31-.3.39-.51h.68c-.1.37-.31.67-.61.9-.31.23-.69.35-1.14.35-.36,0-.69-.08-.97-.24s-.51-.39-.67-.69c-.16-.3-.24-.65-.24-1.04s.08-.74.24-1.04c.16-.3.38-.53.67-.69.29-.16.62-.24.99-.24s.68.08.96.24c.28.16.49.38.65.65s.23.59.23.94c0,.12,0,.25-.02.38Zm-.8-1.14c-.11-.17-.25-.31-.44-.4-.18-.09-.39-.14-.61-.14-.32,0-.59.1-.82.31-.23.2-.35.49-.39.85h2.41c0-.24-.05-.45-.16-.62Z"/>
            <path class="cls-12" d="m922.22,895.3v5.16h-.64v-5.16h.64Z"/>
            <path class="cls-12" d="m924,900.28c-.29-.16-.52-.39-.68-.69-.17-.3-.25-.65-.25-1.04s.08-.74.25-1.04c.17-.3.4-.53.69-.69.29-.16.62-.24.98-.24s.69.08.98.24c.29.16.52.39.69.69s.25.64.25,1.04-.09.74-.26,1.04c-.17.3-.41.53-.71.69s-.63.24-.99.24-.68-.08-.97-.24Zm1.62-.47c.2-.11.36-.27.48-.48.12-.21.19-.47.19-.78s-.06-.57-.18-.78c-.12-.21-.28-.37-.47-.48-.2-.1-.41-.16-.64-.16s-.45.05-.64.16-.35.26-.46.48c-.12.21-.17.47-.17.78s.06.58.17.79c.11.21.27.37.46.48s.4.16.63.16.44-.05.64-.16Z"/>
            <path class="cls-12" d="m930.22,896.79c.25.14.43.33.56.54v-.7h.64v3.91c0,.35-.07.66-.22.93-.15.27-.36.49-.64.64-.28.15-.6.23-.97.23-.5,0-.92-.12-1.26-.36-.33-.24-.53-.56-.59-.97h.63c.07.23.21.42.43.56.22.14.48.21.79.21.35,0,.63-.11.85-.33.22-.22.33-.53.33-.92v-.8c-.13.22-.31.41-.56.56-.25.15-.53.22-.87.22s-.65-.08-.92-.25c-.28-.17-.49-.4-.65-.7-.16-.3-.24-.65-.24-1.03s.08-.73.24-1.03c.16-.3.38-.52.65-.69.28-.16.59-.24.92-.24s.62.07.87.22Zm.38,1c-.12-.21-.27-.38-.47-.49s-.42-.17-.65-.17-.45.06-.65.17c-.2.11-.35.27-.47.49-.12.21-.17.47-.17.75s.06.55.17.76.27.38.47.5c.2.11.41.17.65.17s.45-.06.65-.17c.2-.11.35-.28.47-.5s.17-.47.17-.76-.06-.54-.17-.75Z"/>
            <path class="cls-12" d="m932.51,895.89c-.08-.08-.13-.19-.13-.31s.04-.22.13-.31c.08-.08.19-.13.31-.13s.22.04.3.13c.08.08.12.19.12.31s-.04.22-.12.31c-.08.08-.18.13-.3.13s-.22-.04-.31-.13Zm.61.75v3.82h-.64v-3.82h.64Z"/>
            <path class="cls-12" d="m937.2,896.99c.29.28.43.69.43,1.22v2.25h-.63v-2.16c0-.38-.1-.67-.29-.88s-.45-.3-.78-.3-.6.1-.8.31c-.2.21-.3.51-.3.91v2.11h-.64v-3.82h.64v.54c.13-.2.3-.35.51-.45.22-.11.45-.16.72-.16.47,0,.84.14,1.13.42Z"/>
            <path class="cls-12" d="m941.03,895.92c.28.26.43.61.43,1.05,0,.49-.15.85-.45,1.09-.3.23-.71.35-1.23.35l-.02.66h-.55l-.03-1.1h.2c.46,0,.82-.07,1.08-.21.26-.14.39-.4.39-.79,0-.28-.08-.5-.25-.66-.17-.16-.39-.24-.68-.24s-.52.08-.68.23c-.17.16-.25.37-.25.64h-.6c0-.28.06-.52.19-.74.13-.21.3-.38.53-.49.23-.12.5-.17.8-.17.46,0,.83.13,1.12.39Zm-1.86,4.45c-.08-.08-.13-.19-.13-.31s.04-.22.13-.31c.08-.08.19-.13.31-.13s.22.04.3.13c.08.08.12.19.12.31s-.04.22-.12.31c-.08.08-.18.13-.3.13s-.22-.04-.31-.13Z"/>
          </g>
          <g>
            <path class="cls-49" d="m1013.65,848.61c-.11,0-.22,0-.33-.03-2.58-.46-4.45-3.05-4.53-3.16l-.19-.26.2-.26c.09-.12,2.33-3,4.77-3.08,2.48-.11,4.38,2.99,4.46,3.12l.15.25-.17.24c-.25.34-2.4,3.18-4.35,3.18Zm-3.95-3.43c.52.63,1.99,2.22,3.77,2.54,1.15.21,2.9-1.64,3.64-2.57-.47-.67-1.88-2.48-3.52-2.45-1.64.05-3.31,1.81-3.89,2.48Z"/>
            <path class="cls-49" d="m1013.4,847.27c-.94,0-1.71-.9-1.71-2s.77-2,1.71-2,1.71.9,1.71,2-.77,2-1.71,2Zm0-3.13c-.45,0-.84.52-.84,1.13s.38,1.13.84,1.13.84-.52.84-1.13-.38-1.13-.84-1.13Z"/>
            <path class="cls-49" d="m1010.01,850.48c-.09,0-.17-.03-.25-.08-.2-.14-.25-.41-.11-.61l6.76-9.67c.14-.2.41-.24.61-.11.2.14.25.41.11.61l-6.76,9.67c-.08.12-.22.19-.36.19Z"/>
          </g>
          <g>
            <path class="cls-12" d="m1011.11,802.79v.93h1.25v.59h-1.25v.98h1.41v.61h-2.15v-3.72h2.15v.61h-1.41Z"/>
            <path class="cls-12" d="m1016.38,805.9h-.74l-1.69-2.55v2.55h-.74v-3.72h.74l1.69,2.55v-2.55h.74v3.72Z"/>
          </g>
          <polygon class="cls-12" points="1022.24 802.3 1025.15 802.3 1023.7 803.56 1022.24 804.81 1020.79 803.56 1019.34 802.3 1022.24 802.3"/>
        </g>
      </g>
      <g>
        <g>
          <rect class="cls-12" x="60.23" y="687.11" width="494.4" height="316.63" rx="8.35" ry="8.35"/>
          <path class="cls-10" d="m544.89,689.76H67.2c-3.14,0-5.7,2.56-5.7,5.7v39.54h489.09v-39.54c0-3.14-2.56-5.7-5.7-5.7Z"/>
          <path class="cls-48" d="m557.28,976.46v18.93c0,6.07-4.94,11-11.01,11H68.59c-6.07,0-11.01-4.93-11.01-11v-18.93h499.7Z"/>
          <g>
            <polygon class="cls-13" points="304.68 983.05 308.11 985.08 312.92 988.09 313.73 988.71 307.58 992.79 304.91 994.38 304.77 993.21 304.59 988.38 304.59 983.53 304.68 983.05 304.68 983.05"/>
            <polygon class="cls-13" points="338.55 983.62 343.79 986.69 343.79 983.62 352.08 988.48 343.79 993.35 343.79 990.27 338.55 993.35 338.55 983.62 338.55 983.62"/>
            <polygon class="cls-13" points="279.77 983.25 274.53 986.32 274.53 983.25 266.24 988.11 274.53 992.98 274.53 989.9 279.77 992.98 279.77 983.25 279.77 983.25"/>
          </g>
          <rect class="cls-50" x="225.18" y="709.53" width="163.98" height="8.85"/>
          <g>
            <path class="cls-45" d="m120.83,714.51c-.08-1.18-1.04-1.54-1.77-1.54-.97,0-1.79.6-1.79,1.6,0,.8.6,1.15,1.34,1.37.95.31,1.35.49,1.36,1.01,0,.45-.38.79-.87.79-.38,0-.9-.21-.94-.86h-1.01c.05,1.21,1.09,1.68,1.94,1.68,1.06,0,1.92-.7,1.9-1.73-.03-1.14-.92-1.37-1.73-1.59-.57-.16-.95-.35-.97-.77,0-.35.26-.68.76-.68.52,0,.77.3.77.71h1.01Z"/>
            <path class="cls-45" d="m114.19,718.42h1.02v-2.86c0-1.05.5-1.58,1.46-1.58h.07v-1.01c-.72,0-1.28.31-1.58.93v-.78h-.96v5.29h0Z"/>
            <path class="cls-45" d="m113.2,716.09c.09-.88-.18-1.71-.8-2.34-.51-.5-1.2-.78-1.96-.78-1.61,0-2.8,1.29-2.8,2.81,0,1.4,1.08,2.79,2.81,2.79.54,0,1.07-.15,1.51-.45.45-.29.82-.73,1.08-1.31h-1.06c-.29.55-.82.89-1.53.89-.8,0-1.74-.54-1.79-1.61h4.54Zm-4.53-.79c.05-.72.72-1.47,1.76-1.47,1.01-.02,1.71.77,1.76,1.47h-3.52Z"/>
            <polygon class="cls-45" points="105.65 718.42 106.67 718.42 106.67 713.13 105.65 713.13 105.65 718.42 105.65 718.42"/>
            <path class="cls-45" d="m102.31,718.42h1.02v-2.86c0-1.05.5-1.58,1.46-1.58h.07v-1.01c-.72,0-1.28.31-1.58.93v-.78h-.96v5.29h0Z"/>
            <path class="cls-45" d="m99.03,718.42h1.02v-2.86c0-1.05.5-1.58,1.46-1.58h.07v-1.01c-.72,0-1.28.31-1.58.93v-.78h-.96v5.29h0Z"/>
            <path class="cls-45" d="m97.69,713.13h-1.02v.93c-.24-.51-.92-1.09-1.97-1.09-1.54,0-2.73,1.19-2.73,2.8,0,1.48,1.02,2.8,2.73,2.8.84,0,1.6-.37,1.97-1.08v.92h1.02v-5.29h0Zm-4.7,2.65c0-.99.72-1.87,1.84-1.87.85,0,1.45.48,1.7,1.09.12.24.17.52.16.79,0,.27-.07.54-.19.79-.26.6-.84,1.05-1.65,1.05-1.29,0-1.85-1.05-1.86-1.84h0Z"/>
            <path class="cls-45" d="m90.24,716.56c-.22.53-.77,1.06-1.66,1.07-1.02,0-1.82-.77-1.82-1.86,0-.54.21-1.03.52-1.34.37-.35.76-.53,1.3-.52.72,0,1.39.4,1.66,1.11h1.05c-.33-1.27-1.48-2.05-2.75-2.05-1.59,0-2.8,1.24-2.8,2.8,0,1.47,1.1,2.8,2.84,2.8,1.33,0,2.37-.87,2.7-2.01h-1.05Z"/>
            <path class="cls-18" d="m128.13,724.18h4.03v-1.62h-2.25v-1.24h2.19v-1.62h-2.19v-1.12h2.25v-1.62h-4.03v7.22h0Zm5.08,0h2.54c2.75,0,3.73-1.66,3.73-3.63,0-.79-.17-1.56-.67-2.24-.94-1.35-2.39-1.35-3.2-1.35h-2.4v7.22h0Zm1.85-5.6h.8c.82,0,1.2.34,1.41.66.26.41.35.93.35,1.34,0,1.02-.39,1.98-1.77,1.98h-.79v-3.98h0Zm8.61,1.49v1.47h2.17c-.2.7-.81,1.16-1.73,1.16s-1.99-.65-1.99-2.16c0-1.42,1.07-2.1,1.98-2.1.78,0,1.31.43,1.6.94h2.08c-.4-1.39-1.89-2.55-3.63-2.55-2.14,0-3.88,1.56-3.88,3.72s1.66,3.78,3.85,3.78c2.01,0,3.87-1.45,3.87-3.87,0-.15,0-.25-.01-.38h-4.3Zm5.27,4.11h4.03v-1.62h-2.25v-1.24h2.19v-1.62h-2.19v-1.12h2.25v-1.62h-4.03v7.22h0Z"/>
            <path class="cls-19" d="m106.16,711.07c.38,0,.69.31.69.69s-.31.69-.69.69-.69-.31-.69-.69.31-.69.69-.69h0Z"/>
            <path class="cls-46" d="m126.69,710.85c.89,4.7-.06,10.42-1.92,13.33,1.57-10.27-2.76-14.6-11.22-15.75,3.84-1.12,8.98-.23,13.14,2.42h0Z"/>
            <path class="cls-19" d="m106.84,711.1c5.49-5.67,9.48-8.36,16.89-6.19,1.39,1.22,2.29,3.06,2.8,5.16-6.47-3.88-13.61-3.67-19.69,1.04h0Z"/>
            <path class="cls-45" d="m155.18,714.89c.41,0,.77.16,1.04.43.27.27.43.63.43,1.04s-.16.77-.43,1.04c-.27.27-.63.43-1.04.43s-.77-.16-1.04-.43c-.27-.27-.43-.63-.43-1.04s.16-.77.43-1.04c.27-.27.63-.43,1.04-.43h0Zm.87.6c-.22-.22-.53-.36-.87-.36s-.65.14-.87.36-.36.53-.36.87.14.65.36.87c.22.22.53.36.87.36s.65-.14.87-.36.36-.53.36-.87-.14-.65-.36-.87h0Z"/>
            <path class="cls-45" d="m154.53,717.09v-1.46h.62c.16,0,.27.01.34.04.07.03.13.07.17.14.04.07.06.14.06.23,0,.11-.03.2-.1.27-.06.07-.16.12-.29.13.06.04.12.08.16.12.04.04.1.12.17.24l.18.28h-.35l-.21-.32c-.08-.11-.13-.18-.16-.21-.03-.03-.06-.05-.09-.06-.03-.01-.08-.02-.15-.02h-.06v.61h-.3Zm.3-.84h.22c.14,0,.23,0,.26-.02.03-.01.06-.03.08-.06.02-.03.03-.07.03-.11,0-.05-.01-.09-.04-.12-.03-.03-.06-.05-.11-.06-.02,0-.1,0-.21,0h-.23v.37h0Z"/>
          </g>
          <g>
            <path class="cls-50" d="m520.93,718.3c-.06,0-.12-.02-.16-.07-.09-.09-.09-.23,0-.32l8.27-8.27c.09-.09.23-.09.32,0s.09.23,0,.32l-8.27,8.27s-.1.07-.16.07Z"/>
            <path class="cls-50" d="m529.2,718.3c-.06,0-.12-.02-.16-.07l-8.27-8.27c-.09-.09-.09-.23,0-.32s.23-.09.32,0l8.27,8.27c.09.09.09.23,0,.32-.04.04-.1.07-.16.07Z"/>
          </g>
          <path class="cls-48" d="m546.27,684.45H68.59c-6.07,0-11.01,4.94-11.01,11.01v299.93c0,6.07,4.94,11,11.01,11h477.69c6.07,0,11.01-4.93,11.01-11v-299.93c0-6.07-4.94-11.01-11.01-11.01Zm5.7,310.94c0,3.14-2.56,5.7-5.7,5.7H68.59c-3.14,0-5.7-2.55-5.7-5.7v-299.93c0-3.14,2.56-5.7,5.7-5.7h477.69c3.14,0,5.7,2.56,5.7,5.7v299.93Z"/>
        </g>
        <g>
          <rect class="cls-30" x="95.89" y="809.3" width="55.17" height="4.51"/>
          <rect class="cls-6" x="90.11" y="800.42" width="66.72" height="23.09" rx="1.72" ry="1.72"/>
          <rect class="cls-30" x="95.97" y="860.27" width="55.17" height="4.51"/>
          <rect class="cls-30" x="103.78" y="867.81" width="39.54" height="4.51"/>
          <rect class="cls-6" x="90.2" y="854.75" width="66.72" height="23.09" rx="1.72" ry="1.72"/>
          <rect class="cls-30" x="95.89" y="914.6" width="55.17" height="4.51"/>
          <rect class="cls-30" x="95.89" y="922.14" width="55.17" height="4.51"/>
          <rect class="cls-6" x="90.11" y="909.09" width="66.72" height="23.09" rx="1.72" ry="1.72"/>
          <rect class="cls-30" x="458.9" y="914.6" width="55.17" height="4.51"/>
          <rect class="cls-30" x="458.9" y="922.14" width="55.17" height="4.51"/>
          <rect class="cls-6" x="453.13" y="909.09" width="66.72" height="23.09" rx="1.72" ry="1.72"/>
          <rect class="cls-30" x="80.52" y="760.26" width="448.91" height="4.75"/>
          <rect class="cls-30" x="80.52" y="767.22" width="448.91" height="4.75"/>
          <rect class="cls-25" x="194.04" y="795.69" width="105.03" height="149.95" rx="1.22" ry="1.22"/>
          <rect class="cls-25" x="311.06" y="795.69" width="105.03" height="149.95" rx="1.22" ry="1.22"/>
          <rect class="cls-30" x="458.75" y="863.72" width="55.17" height="4.51"/>
          <rect class="cls-6" x="452.97" y="854.83" width="66.72" height="23.09" rx="1.72" ry="1.72"/>
          <rect class="cls-30" x="458.75" y="809.45" width="55.17" height="4.51"/>
          <rect class="cls-6" x="452.97" y="800.57" width="66.72" height="23.09" rx="1.72" ry="1.72"/>
          <rect class="cls-12" x="213.2" y="834.11" width="66.72" height="23.09" rx="1.72" ry="1.72"/>
          <rect class="cls-12" x="213.2" y="870.65" width="66.72" height="23.09" rx="1.72" ry="1.72"/>
          <rect class="cls-12" x="213.2" y="907.19" width="66.72" height="23.09" rx="1.72" ry="1.72"/>
          <rect class="cls-12" x="330.21" y="834.11" width="66.72" height="23.09" rx="1.72" ry="1.72"/>
          <rect class="cls-12" x="330.21" y="870.65" width="66.72" height="23.09" rx="1.72" ry="1.72"/>
          <rect class="cls-12" x="330.21" y="907.19" width="66.72" height="23.09" rx="1.72" ry="1.72"/>
          <rect class="cls-30" x="218.94" y="809.3" width="55.17" height="4.51"/>
          <rect class="cls-30" x="218.94" y="815.95" width="55.17" height="4.51"/>
          <rect class="cls-30" x="335.99" y="809.3" width="55.17" height="4.51"/>
          <rect class="cls-30" x="335.99" y="815.94" width="55.17" height="4.51"/>
        </g>
      </g>
    </g>
    <g>
      <path class="cls-12" d="m152.43,246.08h-31.54c-2.47,0-4.49-2.01-4.49-4.49v-24.54c0-2.47,2.01-4.49,4.49-4.49h31.54c2.47,0,4.49,2.01,4.49,4.49v24.54c0,2.47-2.01,4.49-4.49,4.49Zm-31.54-32.15c-1.72,0-3.12,1.4-3.12,3.12v24.54c0,1.72,1.4,3.12,3.12,3.12h31.54c1.72,0,3.12-1.4,3.12-3.12v-24.54c0-1.72-1.4-3.12-3.12-3.12h-31.54Z"/>
      <path class="cls-12" d="m148.75,221.54h-24.17c-.38,0-.68-.31-.68-.68s.31-.68.68-.68h24.17c.38,0,.68.31.68.68s-.31.68-.68.68Z"/>
      <path class="cls-12" d="m148.75,230.13h-24.17c-.38,0-.68-.31-.68-.68s.31-.68.68-.68h24.17c.38,0,.68.31.68.68s-.31.68-.68.68Z"/>
      <path class="cls-12" d="m148.75,237.86h-24.17c-.38,0-.68-.31-.68-.68s.31-.68.68-.68h24.17c.38,0,.68.31.68.68s-.31.68-.68.68Z"/>
    </g>
    <g>
      <g class="cls-53">
        <path class="cls-11" d="m1075.11,688.61c-3.88,0-7.8-.07-11.65-.22-2.76-.1-4.91-2.43-4.81-5.19.1-2.76,2.4-4.94,5.19-4.81,5.2.2,10.51.26,15.73.18.03,0,.05,0,.08,0,2.73,0,4.96,2.19,5,4.93.04,2.76-2.16,5.03-4.92,5.07-1.53.02-3.07.04-4.61.04Zm46.33-3.58c-2.42,0-4.55-1.76-4.93-4.23-.43-2.73,1.44-5.29,4.17-5.71,5.16-.81,10.36-1.76,15.46-2.84,2.7-.58,5.35,1.16,5.93,3.86s-1.15,5.35-3.86,5.93c-5.28,1.12-10.66,2.11-15.99,2.94-.26.04-.52.06-.78.06Zm-99.49-1.15c-.29,0-.59-.03-.89-.08-5.31-.96-10.67-2.07-15.92-3.31-2.69-.63-4.35-3.33-3.72-6.02.64-2.69,3.32-4.35,6.02-3.72,5.08,1.2,10.26,2.28,15.39,3.2,2.72.49,4.52,3.09,4.04,5.81-.44,2.42-2.54,4.12-4.92,4.12Zm155.55-13.32c-2.04,0-3.96-1.26-4.7-3.28-.95-2.59.39-5.46,2.98-6.41,4.89-1.79,9.8-3.74,14.58-5.78,2.54-1.08,5.48.09,6.56,2.63,1.09,2.54-.09,5.48-2.63,6.56-4.95,2.12-10.03,4.13-15.09,5.98-.57.21-1.15.3-1.72.3Zm-211.28-2.46c-.61,0-1.23-.11-1.83-.35-5.04-1.98-10.08-4.12-15-6.36-2.51-1.15-3.62-4.11-2.47-6.62,1.15-2.51,4.12-3.62,6.62-2.47,4.75,2.17,9.63,4.24,14.5,6.15,2.57,1.01,3.84,3.91,2.83,6.48-.77,1.97-2.66,3.17-4.66,3.17Zm263.41-22.6c-1.69,0-3.34-.86-4.28-2.41-1.43-2.36-.68-5.44,1.68-6.87,4.45-2.7,8.89-5.56,13.21-8.51,2.28-1.56,5.39-.97,6.95,1.31,1.56,2.28.97,5.39-1.31,6.95-4.46,3.05-9.06,6.01-13.66,8.8-.81.49-1.71.73-2.59.73Zm-315.02-3.74c-.92,0-1.86-.25-2.69-.79-4.55-2.91-9.08-5.98-13.47-9.14-2.24-1.61-2.75-4.73-1.14-6.98,1.61-2.24,4.74-2.76,6.98-1.14,4.25,3.05,8.63,6.02,13.02,8.83,2.33,1.49,3,4.58,1.52,6.91-.96,1.49-2.57,2.31-4.22,2.31Zm361.34-30.95c-1.36,0-2.71-.55-3.7-1.63-1.86-2.04-1.71-5.2.33-7.06,3.86-3.52,7.67-7.19,11.33-10.9,1.94-1.97,5.11-1.99,7.07-.05,1.97,1.94,1.99,5.1.05,7.07-3.79,3.84-7.73,7.64-11.72,11.27-.96.87-2.17,1.31-3.37,1.31Zm-406.87-4.85c-1.24,0-2.49-.46-3.46-1.39-3.9-3.73-7.75-7.61-11.45-11.55-1.89-2.01-1.79-5.18.22-7.07,2.01-1.89,5.18-1.79,7.07.22,3.58,3.8,7.3,7.56,11.08,11.17,2,1.91,2.07,5.07.16,7.07-.98,1.03-2.3,1.54-3.61,1.54Zm445.68-38.11c-1.04,0-2.08-.32-2.97-.98-2.22-1.64-2.68-4.78-1.04-6.99,3.11-4.2,6.15-8.54,9.03-12.89,1.52-2.3,4.63-2.93,6.93-1.41,2.3,1.52,2.93,4.63,1.41,6.93-2.98,4.5-6.12,8.98-9.34,13.33-.98,1.32-2.49,2.02-4.02,2.02Zm-483.45-5.75c-1.57,0-3.12-.74-4.09-2.12-3.11-4.41-6.14-8.96-9.01-13.52-1.47-2.34-.76-5.42,1.57-6.89,2.34-1.47,5.42-.76,6.89,1.57,2.78,4.42,5.71,8.82,8.71,13.08,1.59,2.26,1.05,5.38-1.2,6.97-.88.62-1.88.91-2.88.91Zm513.28-43.91c-.72,0-1.45-.16-2.14-.48-2.49-1.18-3.56-4.17-2.37-6.66,2.25-4.73,4.39-9.57,6.37-14.4,1.05-2.55,3.96-3.78,6.52-2.73,2.55,1.05,3.78,3.97,2.73,6.52-2.05,5-4.27,10.01-6.59,14.9-.86,1.8-2.65,2.86-4.52,2.86Zm-541.88-6.38c-1.91,0-3.74-1.1-4.57-2.96-2.2-4.92-4.29-9.97-6.21-14.99-.99-2.58.3-5.47,2.88-6.46,2.58-.99,5.47.3,6.46,2.88,1.86,4.86,3.88,9.74,6.01,14.5,1.12,2.52,0,5.48-2.53,6.6-.66.29-1.35.43-2.03.43Zm561.51-48.15c-.41,0-.82-.05-1.23-.15-2.68-.68-4.3-3.4-3.62-6.07,1.28-5.04,2.43-10.21,3.44-15.34.53-2.71,3.16-4.47,5.87-3.95,2.71.53,4.48,3.16,3.95,5.87-1.04,5.31-2.24,10.65-3.56,15.87-.57,2.27-2.61,3.78-4.84,3.78Zm-579.82-6.74c-2.28,0-4.34-1.57-4.87-3.89-1.2-5.25-2.27-10.62-3.18-15.95-.47-2.72,1.36-5.31,4.08-5.77,2.72-.47,5.31,1.36,5.77,4.08.88,5.15,1.92,10.34,3.08,15.42.61,2.69-1.07,5.37-3.76,5.99-.37.08-.75.13-1.12.13Zm588.46-50.5c-.09,0-.18,0-.27,0-2.76-.15-4.88-2.5-4.73-5.26.27-5.2.41-10.49.41-15.72,0-.35.04-.69.1-1.01-.07-.33-.11-.67-.11-1.01-.04-5.23-.21-10.52-.52-15.72-.17-2.76,1.94-5.12,4.69-5.29,2.76-.17,5.12,1.94,5.29,4.69.32,5.38.5,10.84.54,16.25,0,.36-.03.71-.1,1.05.07.34.11.69.11,1.05,0,5.4-.14,10.87-.43,16.25-.14,2.67-2.35,4.74-4.99,4.74Zm-595.76-6.93c-2.69,0-4.91-2.14-5-4.85-.09-3.05-.14-6.15-.14-9.21,0-2.34.03-4.72.08-7.05.06-2.72,2.29-4.89,5-4.89.04,0,.08,0,.12,0,2.76.06,4.95,2.35,4.88,5.11-.05,2.26-.08,4.56-.08,6.83,0,2.96.04,5.95.13,8.91.08,2.76-2.09,5.06-4.85,5.15-.05,0-.1,0-.15,0Zm3.83-57.76c-.27,0-.54-.02-.82-.07-2.73-.45-4.57-3.02-4.12-5.74.88-5.33,1.91-10.71,3.07-15.97.59-2.7,3.26-4.4,5.96-3.81,2.7.59,4.4,3.26,3.81,5.96-1.12,5.09-2.12,10.28-2.97,15.44-.4,2.45-2.52,4.19-4.93,4.19Zm586.37-10.94c-2.33,0-4.41-1.64-4.9-4.01-1.04-5.11-2.23-10.26-3.54-15.32-.7-2.67.91-5.4,3.58-6.1,2.67-.7,5.4.91,6.1,3.58,1.36,5.23,2.59,10.56,3.67,15.84.55,2.71-1.2,5.34-3.91,5.89-.33.07-.67.1-1,.1Zm-571.44-45.03c-.58,0-1.18-.1-1.75-.32-2.58-.97-3.9-3.85-2.93-6.44,1.9-5.06,3.96-10.14,6.13-15.1,1.11-2.53,4.05-3.68,6.59-2.57,2.53,1.11,3.68,4.06,2.57,6.59-2.1,4.79-4.09,9.7-5.93,14.6-.75,2.01-2.66,3.25-4.68,3.25Zm554.44-10.31c-1.96,0-3.81-1.15-4.61-3.07-2.01-4.8-4.18-9.62-6.45-14.31-1.2-2.49-.16-5.48,2.33-6.68,2.49-1.2,5.48-.16,6.68,2.33,2.34,4.85,4.59,9.83,6.67,14.8,1.07,2.55-.13,5.48-2.68,6.54-.63.26-1.28.39-1.93.39Zm-528.9-41.7c-.9,0-1.81-.24-2.63-.75-2.35-1.45-3.07-4.54-1.62-6.88,2.84-4.6,5.85-9.17,8.93-13.61,1.58-2.27,4.69-2.83,6.96-1.25,2.27,1.58,2.83,4.69,1.25,6.96-2.98,4.29-5.89,8.71-8.64,13.16-.95,1.53-2.58,2.37-4.26,2.37Zm501.49-9.23c-1.61,0-3.19-.78-4.16-2.22-2.91-4.33-5.97-8.64-9.1-12.81-1.66-2.21-1.21-5.34.99-7,2.21-1.66,5.34-1.21,7,.99,3.24,4.31,6.41,8.77,9.41,13.25,1.54,2.29.93,5.4-1.37,6.94-.85.57-1.82.85-2.78.85Zm-466.38-36.83c-1.22,0-2.44-.44-3.4-1.33-2.02-1.88-2.14-5.04-.26-7.07,3.67-3.96,7.5-7.87,11.38-11.62,1.98-1.92,5.15-1.87,7.07.11,1.92,1.98,1.87,5.15-.11,7.07-3.75,3.63-7.45,7.41-11,11.24-.98,1.06-2.32,1.6-3.67,1.6Zm429.63-7.89c-1.28,0-2.56-.49-3.54-1.47-3.69-3.7-7.53-7.35-11.41-10.83-2.05-1.85-2.22-5.01-.37-7.06,1.85-2.05,5.01-2.22,7.06-.37,4,3.6,7.97,7.37,11.79,11.2,1.95,1.95,1.95,5.12,0,7.07-.98.97-2.25,1.46-3.53,1.46Zm-386.34-30.55c-1.54,0-3.07-.71-4.05-2.06-1.62-2.23-1.13-5.36,1.1-6.99,4.37-3.18,8.87-6.28,13.39-9.21,2.32-1.5,5.41-.85,6.92,1.47,1.5,2.32.85,5.41-1.47,6.92-4.37,2.83-8.72,5.83-12.95,8.91-.89.65-1.92.96-2.94.96Zm341.66-6.29c-.96,0-1.93-.28-2.79-.85-4.33-2.92-8.8-5.76-13.29-8.44-2.37-1.42-3.14-4.49-1.72-6.86,1.42-2.37,4.49-3.14,6.86-1.72,4.64,2.78,9.26,5.71,13.74,8.73,2.29,1.54,2.9,4.65,1.35,6.94-.96,1.43-2.54,2.21-4.15,2.21Zm-291.81-23.07c-1.89,0-3.69-1.07-4.54-2.89-1.16-2.5-.08-5.48,2.43-6.64,4.88-2.27,9.89-4.43,14.9-6.44,2.57-1.03,5.47.22,6.5,2.78,1.03,2.56-.22,5.47-2.78,6.5-4.84,1.94-9.69,4.04-14.41,6.23-.68.32-1.4.47-2.1.47Zm240.85-4.46c-.65,0-1.3-.13-1.93-.39-4.81-2.02-9.75-3.94-14.68-5.71-2.6-.93-3.95-3.79-3.02-6.39.93-2.6,3.79-3.95,6.39-3.02,5.1,1.82,10.21,3.81,15.19,5.9,2.55,1.07,3.74,4,2.67,6.55-.8,1.91-2.66,3.06-4.61,3.06Zm-186.25-14.67c-2.25,0-4.3-1.53-4.85-3.82-.65-2.68.99-5.39,3.67-6.04,5.25-1.28,10.6-2.43,15.9-3.42,2.7-.51,5.33,1.28,5.83,4,.51,2.71-1.28,5.33-4,5.83-5.13.96-10.3,2.07-15.37,3.31-.4.1-.8.14-1.19.14Zm130.88-2.43c-.33,0-.67-.03-1.01-.1-5.12-1.04-10.32-1.96-15.48-2.73-2.73-.41-4.62-2.95-4.21-5.68.41-2.73,2.95-4.62,5.68-4.21,5.34.79,10.72,1.74,16.01,2.83,2.71.55,4.45,3.19,3.9,5.9-.48,2.37-2.57,4-4.89,4Zm-73.57-5.74c-2.66,0-4.87-2.09-4.99-4.78-.12-2.76,2.01-5.09,4.77-5.22,5.39-.24,10.87-.34,16.26-.3,2.76.02,4.98,2.28,4.96,5.04-.02,2.75-2.26,4.96-5,4.96h-.04c-5.22-.05-10.52.06-15.73.29-.08,0-.15,0-.23,0Z"/>
      </g>
      <circle class="cls-11" cx="1240.35" cy="150.75" r="82.27"/>
      <g>
        <path class="cls-75" d="m1203.94,93.29c26.48,2.53,49.9,4.77,76.46,7.31.95.09,1.64.94,1.55,1.88l-8.99,94c-.09.95-.94,1.64-1.88,1.55l-76.46-7.31c-.95-.09-1.65-.94-1.56-1.88l8.99-94c.09-.95.94-1.64,1.89-1.55Z"/>
        <path class="cls-79" d="m1203.67,93.82c25.99,2.49,50.1,4.79,76.13,7.28.95.09,1.64.94,1.55,1.88l-8.95,93.59c-.09.95-.93,1.64-1.87,1.55l-76.13-7.28c-.95-.09-1.64-.94-1.55-1.88l8.95-93.59c.09-.95.94-1.64,1.88-1.55Z"/>
        <rect class="cls-38" x="1192.92" y="110.46" width="89.99" height="70.49" transform="translate(975.01 1364.12) rotate(-84.54)"/>
        <g>
          <rect class="cls-12" x="1193.21" y="110.36" width="87.86" height="70.15" transform="translate(974.58 1363.11) rotate(-84.54)"/>
          <path class="cls-76" d="m1269.16,104.36s4.62,2.38,2.41,25.48c-1.19,12.46-1.67,57.03-16.88,61.4l13.19,1.26,8.37-87.47-7.09-.68Z"/>
        </g>
        <g>
          <path class="cls-35" d="m1250.49,124.31l-38.2-3.65c-1.33-.13-2.3-1.31-2.17-2.63s1.31-2.3,2.63-2.17l38.2,3.65c1.33.13,2.3,1.31,2.17,2.63s-1.31,2.3-2.63,2.17Z"/>
          <path class="cls-35" d="m1264.67,142.33l-53.96-5.16c-1.33-.13-2.3-1.31-2.17-2.63s1.31-2.3,2.63-2.17l53.96,5.16c1.33.13,2.3,1.31,2.17,2.63s-1.31,2.3-2.63,2.17Z"/>
          <path class="cls-35" d="m1263.09,158.85l-53.96-5.16c-1.33-.13-2.3-1.31-2.17-2.63s1.31-2.3,2.63-2.17l53.96,5.16c1.33.13,2.3,1.31,2.17,2.63s-1.31,2.3-2.63,2.17Z"/>
          <path class="cls-35" d="m1261.51,175.35l-53.96-5.16c-1.33-.13-2.3-1.31-2.17-2.63s1.31-2.3,2.63-2.17l53.96,5.16c1.33.13,2.3,1.31,2.17,2.63s-1.31,2.3-2.63,2.17Z"/>
        </g>
        <g>
          <polygon class="cls-61" points="1271.02 159.67 1276.53 153.32 1276.87 149.8 1271.32 156.55 1271.02 159.67"/>
          <polygon class="cls-55" points="1271.02 159.67 1272.11 158.41 1272.42 155.21 1271.32 156.55 1271.02 159.67"/>
          <path class="cls-71" d="m1271.02,159.67l-8.39,9.77-8.13-6.98,17.79-20.71.49-.57-1.77,18.5Zm-15.74,11.47l7.36-1.7-8.13-6.98-.65,8.55,1.42.14Z"/>
          <g>
            <path class="cls-29" d="m1304.38,110.05l.81.7c2,1.72,2.23,4.76.51,6.76l-25.74,29.95-8.13-6.97,25.71-29.92c1.73-2.03,4.82-2.25,6.84-.52Z"/>
            <polygon class="cls-56" points="1254.04 161.19 1262.16 168.17 1279.96 147.46 1271.83 140.48 1254.04 161.19"/>
            <polygon class="cls-29" points="1253.34 170.21 1257.75 169.18 1262.16 168.17 1258.09 164.69 1254.05 161.19 1253.7 165.71 1253.34 170.21"/>
            <path class="cls-33" d="m1301.02,122.95c-.7-.6-.79-1.67-.18-2.37.61-.7,1.67-.78,2.37-.18l3.8,3.26c.7.6.79,1.67.18,2.37l-12.23,14.23c-.6.7-1.67.78-2.37.18-.7-.6-.78-1.67-.18-2.37l11.13-12.95-2.52-2.17Z"/>
          </g>
          <path class="cls-9" d="m1302.84,114.17c.24-.27.64-.31.91-.07.27.24.3.64.07.91l-25.22,29.34c-.23.27-.64.31-.9.07-.28-.24-.31-.64-.07-.91l25.21-29.34Z"/>
          <polygon class="cls-73" points="1253.34 170.21 1259.63 166 1262.16 168.17 1253.34 170.21"/>
          <polygon class="cls-65" points="1258.09 164.69 1276.42 144.42 1278.03 145.81 1259.71 166.07 1258.09 164.69"/>
          <polygon class="cls-77" points="1258.09 164.69 1253.34 170.21 1259.63 166 1258.09 164.69"/>
          <polygon class="cls-34" points="1259.63 166 1277.84 145.64 1279.96 147.46 1262.16 168.17 1259.63 166"/>
          <polygon class="cls-66" points="1276.53 153.32 1277.22 152.06 1277.37 150.48 1276.73 151.21 1276.53 153.32"/>
          <path class="cls-40" d="m1294.24,140.03c-.11.13-.32.15-.46.04-.13-.12-.14-.32-.03-.46,4.03-4.71,8.19-9.41,12.14-14.16.12-.16.17-.32.15-.46-.02-.16-.13-.34-.31-.51-1.34-1.16-2.65-2.33-3.98-3.5-.13-.11-.14-.32-.03-.46s.32-.14.45-.02l4,3.51c.29.28.46.58.5.89.04.32-.05.64-.29.95-3.48,4.59-8.31,9.7-12.15,14.17Z"/>
        </g>
      </g>
      <circle class="cls-11" cx="1369.6" cy="361.53" r="82.27"/>
      <g id="Layer_1">
        <g id="_493111539136" data-name=" 493111539136">
          <g>
            <circle class="cls-32" cx="1369.13" cy="361.48" r="50.93"/>
            <polygon class="cls-13" points="1357.58 338.39 1390.01 363.36 1353.74 381.99 1357.58 338.39"/>
          </g>
        </g>
      </g>
      <circle class="cls-11" cx="1003.1" cy="98.32" r="82.27"/>
      <g>
        <g>
          <path class="cls-60" d="m986.18,63.53l-.98-.12c-1.34-10.95,1.37-18.54,5.97-23.19,9.29-9.38,28.42-7.09,34.87,4.66,2.95,5.37,3.72,12.86.61,22.49l-.98-.07.36-3.74c1.99-20.76-37.51-24.54-39.5-3.78l-.36,3.74Z"/>
          <path class="cls-64" d="m1018.13,37.28c3.31,1.76,6.12,4.3,7.93,7.6,2.95,5.37,3.72,12.86.61,22.49h-1.21c3.08-9.75,2.8-17.4-.2-22.86-1.67-3.04-4.17-5.47-7.13-7.24Z"/>
          <rect class="cls-27" x="989.92" y="81.55" width="26.31" height="28.89" transform="translate(812.01 1085.37) rotate(-84.54)"/>
          <rect class="cls-15" x="981.91" y="94.82" width="14.28" height=".78" transform="translate(800.1 1070.7) rotate(-84.54)"/>
          <path class="cls-74" d="m1003.85,98.76c6.99-.23,10.4-.75,9.23,6.99l-.31,2.43,3.99-3.74,1.29-13.44-.36-6.27-5.73-.34-7.37,8.55-.74,5.81Z"/>
          <path class="cls-63" d="m1018.05,91.05l-.18,1.92c-1.86,2.98-6.63,4.63-9.99,4.96l-3.28-4.86,6.49-4.5,6.63-1.23.33,3.71Z"/>
          <path class="cls-72" d="m988.01,101.78c-36.98,5.22-33.63,8.62-38.16,45.14l47.91,4.58,47.91,4.58c2.47-36.75,6.39-39.38-28.91-51.66-10.03,4.18-19.62,3.39-28.76-2.65Z"/>
          <path class="cls-57" d="m999.24,35.47c-3.59,1.1-6.83,3.07-9.23,5.96-3.92,4.71-6.08,11.92-4.87,21.97l1.19.22c-1.18-10.15.55-17.61,4.53-22.4,2.22-2.67,5.13-4.58,8.37-5.76Z"/>
          <path class="cls-67" d="m986.21,58.86c.25,0,.5.02.75.09.48-2.69,1.12-5.49,1.95-8.44v-.05s.02,0,.02,0l19.2-7.84h.03s17.55,11.36,17.55,11.36h.03s-.03.05-.03.05c.26,3.04.35,5.92.32,8.64.2,0,.42.01.62.06,2.29.56,3.29,4.51,2.22,8.83-.86,3.56-2.87,6.26-4.82,6.77-7.8,29.1-35.96,26.42-38.12-3.6-1.89-.79-3.4-3.88-3.59-7.63-.22-4.44,1.51-8.13,3.86-8.25Z"/>
          <path class="cls-67" d="m1023.04,52.27l2.62,1.7h.03s-.02.05-.02.05c.25,3.03.34,5.92.32,8.63.2,0,.41.02.62.07,2.28.56,3.28,4.5,2.23,8.82-.87,3.57-2.88,6.27-4.83,6.78-3,11.18-9,17.66-15.38,19.72.9-.39,2.4-1.32,4.57-3.53,3.77-3.83,3.56-1.94,6.86-12.48,3.29-10.54,1.99-16.34,1.99-16.34l-4.11-14.1,5.11.68Z"/>
          <path class="cls-24" d="m1024.72,65.4c-.59,4.51-1.8,12.6-3.55,17.39-2.56,6.99-7.07,12.89-12.44,15.26,1.87-.63,3.36-1.41,4.79-2.48,2.63-1.95,4.6-4.23,6.04-6.6,2.52-4.14,3.64-7.33,4.52-10.64,1-3.72.49-7.55.96-12.87v-5.87s-1.9-7.32-1.9-7.32l-3.54-10.32c.61,1.85.23,9.24,2.6,10.2,4.02,1.62,2.53,13.2,2.53,13.24Z"/>
          <path class="cls-16" d="m986.17,59.98s-1.49-.23-2.42,1.4c-1.46,2.56-1.48,4.62-1.15,7.43-.51-2.2-.38-6.6,1.42-8.76.6-.73,1.4-1.22,2.36-1.2l.55.52-.76.6Z"/>
          <path class="cls-16" d="m987.69,61.86c-.27,4.54-.62,12.71.2,17.75,1.19,7.35,4.49,13.99,9.32,17.34-1.72-.97-3.03-2.03-4.23-3.34-2.21-2.41-3.71-5.03-4.68-7.63-1.69-4.55-2.18-7.89-2.42-11.3-.27-3.85.95-7.51,1.5-12.82l1.1-5.76,3.27-6.82,5.43-9.46c-.95,1.7-1.97,9.03-4.49,9.52-4.25.82-4.99,12.48-4.99,12.52Z"/>
          <path class="cls-59" d="m1013.08,105.74c8.18,1.62,20.41,4.76,27.37,9.34-4.57-3.55-11.96-6.56-23.68-10.65-1.23.51-2.46.95-3.68,1.31Z"/>
          <path class="cls-60" d="m987.48,62.69l-.92-.11c-1.25-10.28,1.29-17.4,5.61-21.76,8.73-8.81,26.68-6.65,32.73,4.37,2.76,5.04,3.48,12.07.57,21.11l-.91-.06.34-3.51c1.86-19.48-35.21-23.03-37.08-3.55l-.34,3.51Z"/>
          <path class="cls-60" d="m1020.41,50.34s-4.61,5.74-17.29,8.59c-2.08.46-3.86.74-5.39.92,1.71-1.88,5.42-4.73,5.42-4.73-3.97,2.81-11.86,4.68-16.7,6.2l.72-4.98c.27-1.82,2.77-9.99,7.8-13.11,5.03-3.12,16.95-1.99,16.95-1.99l7.2,4.29,1.29,4.8Z"/>
          <path class="cls-60" d="m1017.53,49.37s2.88,4.73,3.33,7.03c.46,2.3.38,5.74,2.13,6.8,1.75,1.05,1.56,3.04,1.56,3.04,0,0,2.4-6.49,1.78-9-.63-2.51-5.03-10.67-5.03-10.67l-5.64-1.1,1.86,3.91Z"/>
          <path class="cls-57" d="m1002.53,52.6c-1.28.41-11.49,5.19-13.85,4.15-.05,3.39,12.54-3.5,13.85-4.15Z"/>
          <g>
            <path class="cls-59" d="m1030.22,154.61c.19-6.24.6-10.53.6-10.53l-3.96,10.21,3.36.32Z"/>
            <path class="cls-59" d="m965.31,148.4c.99-6.16,1.4-10.45,1.4-10.45l1.95,10.78-3.36-.32Z"/>
          </g>
          <path class="cls-16" d="m1002.62,62.34c2.94,2.74,1.62,9.4.76,13.26-.31,1.41,1.19,3.29-1.36,2.93-2.54-.36-2.25.38-2.51.6-.26.21-.36-1.23.37-2,.74-.77.99-.33,1.91-1.13.91-.81,2.12-5.14,1.7-8.23-.41-3.01-1.33-3.61-4.81-5.5,1.01-.22,3.11-.7,3.95.08Z"/>
          <g>
            <path class="cls-58" d="m1004.55,80.83s-.58-.17-1.58-.99c-1-.81-1.7-1-2.19-.93s-.33.27.26.39c.6.12,1.3.24,1.7.52.39.28.78.61,1.06.77.28.14.75.25.75.25Z"/>
            <path class="cls-58" d="m1006.82,79.95c1.72-.93,2.69.03,1.44.04-.3,0-.57-.08-.84-.04-.94.14-1.52.5-.6,0Z"/>
          </g>
          <g>
            <path class="cls-70" d="m1000.82,88.17s-2.03,1.66-.97,1.81,3.93.38,3.93.38l.23-2.41-2.69-.11-.5.33Z"/>
            <path class="cls-70" d="m1006.76,88.74s1.68,2.02.6,1.96-3.92-.37-3.92-.37l.23-2.41,2.66.41.42.42Z"/>
          </g>
          <path class="cls-24" d="m1004.53,81.17c.22.39,1.41,3.45.82,3.64-.15.04-.84.36-1.18.22-.11-.15.12-1.22.3-1.95.2-.73.06-1.91.06-1.91Z"/>
          <path class="cls-23" d="m1000.34,79.74c.46.09,1.29.25-.02.12-.45-.08-.7-.16-.86-.34-.17-.18-.22-.43-.27-.83-.12-.8.55-1.61.55-1.61-.33.86-.77,2.43.61,2.65Z"/>
          <g>
            <path class="cls-74" d="m996.43,86.07l.1-.41s.92-.05,2.59-.06c1.69-.02,3.69-.3,3.97-.04.27.26,1.04.39,1.04.39l-.29,1.11s-2.54-.36-3.01-.46c-.47-.1-1.76-.46-3.31-.49-1.56-.03-1.08-.03-1.08-.03Z"/>
            <path class="cls-74" d="m1011.46,87.51l-.02-.42s-.88-.22-2.53-.55c-1.64-.34-3.56-1-3.88-.79-.32.21-1.1.19-1.1.19l.07,1.14s2.57.13,3.04.11c.49-.01,1.82-.12,3.34.14,1.54.27,1.07.18,1.07.18Z"/>
          </g>
          <g>
            <path class="cls-24" d="m997.09,86.08s1.98,1.97,4.8,2.48c2.83.51,1.89.3,1.89.3l.79-2.14s-4.29-.77-5.43-.82c-1.13-.05-2.07.18-2.07.18Z"/>
            <path class="cls-24" d="m1010.82,87.39s-2.32,1.56-5.19,1.53c-2.87-.04-1.91-.06-1.91-.06l-.38-2.25s4.36.05,5.48.22c1.12.17,1.99.57,1.99.57Z"/>
          </g>
          <path class="cls-23" d="m1008.38,80.51c-.48,0-1.32,0,0,.13.45,0,.71-.02.91-.17.19-.15.3-.38.43-.76.27-.77-.24-1.68-.24-1.68.16.91.29,2.53-1.1,2.49Z"/>
          <path class="cls-24" d="m1008.95,64.44s.7-1.73,2.97-1.63c2.27.1,4.06.21,4.06.21-3.97,1.37-4.68,1.37-7.48,4.26l.45-2.84Z"/>
          <path class="cls-68" d="m993.56,104.79s-3.45.08-3.06.89.13.9.13.9c0,0-2.79,2.7-8.65,2.92-5.86.21-18.32.23-21.51,2.57-3.2,2.33-5.09,4.8-5.83,6.82-.75,2.03-3.88,27.84-3.88,27.84l-.02.22-.85-.11s2.04-19.53,3.5-25.99c1.46-6.45,3.21-8.41,4.61-9.71,1.41-1.31,3.64-3.81,12-6.05,8.37-2.24,15.39-2.87,15.39-2.87l2.65-.38s.61.61,2.86,1.7c2.26,1.09,2.65,1.26,2.65,1.26Z"/>
          <path class="cls-54" d="m985.21,102.19s1,1.88,6.62,4.77c5.61,2.9,8.33,3.04,8.34,3.16s-6.97-1.06-11.42-3.84c-4.45-2.79-4.6-3.94-4.65-3.93l1.11-.16Z"/>
        </g>
        <g>
          <g>
            <g>
              <ellipse class="cls-42" cx="1015.06" cy="69.46" rx="1.85" ry="1.75" transform="translate(849.27 1073.3) rotate(-84.54)"/>
              <polygon class="cls-43" points="1015.2 69.08 1016.07 70.32 1014.82 69.62 1015.2 69.08"/>
              <polygon class="cls-43" points="1015.81 68.48 1015.6 68.76 1015.38 69.04 1015.76 69.08 1016.12 69.11 1015.97 68.8 1015.81 68.48"/>
            </g>
            <g>
              <path class="cls-43" d="m1020.52,69.97s-2.91-2.11-4.6-2.44c-1.69-.33-1.69-.27-1.69-.27l.18.89s2.36.46,3.91,1.06c1.55.6,2.2.77,2.2.77Z"/>
              <path class="cls-43" d="m1010.1,69.05s2.47-1.1,3.19-1.47c.73-.37,1.05-.32,1.05-.32l.22.78-4.46,1.01Z"/>
            </g>
          </g>
          <g>
            <path class="cls-43" d="m990.88,67.14s3.25-1.52,4.97-1.52c1.72,0,1.71.05,1.71.05l-.34.84s-2.4,0-4.03.3c-1.64.29-2.31.34-2.31.34Z"/>
            <g>
              <ellipse class="cls-42" cx="996.33" cy="67.67" rx="1.85" ry="1.75" transform="translate(834.11 1053.03) rotate(-84.54)"/>
              <polygon class="cls-43" points="996.27 67.27 995.18 68.32 996.54 67.87 996.27 67.27"/>
              <polygon class="cls-43" points="995.78 66.56 995.94 66.88 996.09 67.2 995.72 67.16 995.35 67.13 995.57 66.84 995.78 66.56"/>
            </g>
            <path class="cls-43" d="m1001.27,68.21s-2.21-1.54-2.86-2.05c-.64-.5-.97-.51-.97-.51l-.36.72,4.19,1.84Z"/>
          </g>
        </g>
      </g>
      <circle class="cls-11" cx="1287.55" cy="591.19" r="82.27"/>
      <g>
        <rect class="cls-41" x="1251.91" y="530.52" width="72.66" height="106.84" transform="translate(584.29 1810.72) rotate(-84.54)"/>
        <g>
          <g>
            <polygon class="cls-78" points="1300.08 619.03 1315.01 612.22 1327.56 639.74 1317.74 637.55 1312.65 646.55 1300.08 619.03"/>
            <polygon class="cls-78" points="1300.72 619.09 1287.35 609.57 1269.79 634.21 1279.83 633.93 1283.18 643.73 1300.72 619.09"/>
          </g>
          <circle class="cls-7" cx="1301.97" cy="602.58" r="19.14"/>
          <circle class="cls-28" cx="1301.97" cy="602.58" r="10.45"/>
        </g>
        <path class="cls-12" d="m1306.08,567.98l-58.5-5.6c-1.63-.16-2.83-1.61-2.68-3.24.16-1.63,1.61-2.83,3.24-2.67l58.5,5.6c1.63.16,2.83,1.61,2.68,3.24-.16,1.63-1.61,2.83-3.24,2.67Z"/>
        <path class="cls-12" d="m1266.75,582.72l-20.93-2c-1.63-.16-2.83-1.61-2.68-3.24s1.61-2.83,3.24-2.67l20.93,2c1.63.16,2.83,1.61,2.68,3.24-.16,1.63-1.61,2.83-3.24,2.67Z"/>
      </g>
      <g>
        <rect class="cls-12" x="954.54" y="326.55" width="278.85" height="178.59" rx="4.71" ry="4.71" transform="translate(-2.86 7.6) rotate(-.4)"/>
        <g>
          <g>
            <rect class="cls-1" x="968.19" y="394.17" width="67.52" height="61.89" transform="translate(-2.93 6.96) rotate(-.4)"/>
            <rect class="cls-4" x="967.71" y="393.98" width="67.91" height="60.04" transform="translate(-2.92 6.96) rotate(-.4)"/>
            <g>
              <path class="cls-17" d="m1010.6,423.74c-3.79-1.46-6.49-5.13-6.52-9.44-.04-5.63,4.49-10.22,10.11-10.26,5.63-.04,10.22,4.49,10.26,10.11.03,4.33-2.64,8.04-6.43,9.54"/>
              <polygon class="cls-31" points="1034.72 452.5 1014.25 417.25 1000.52 441.68 989.04 427.53 968.99 452.96 994.27 452.78 994.27 452.78 1034.72 452.5"/>
            </g>
            <rect class="cls-1" x="1059.72" y="393.53" width="67.52" height="61.89" transform="translate(-2.92 7.6) rotate(-.4)"/>
            <path class="cls-50" d="m1127.47,453.27l-68.14.47-.42-60.28,68.14-.47.42,60.28Zm-67.91.23l67.67-.47-.41-59.8-67.67.47.41,59.8Z"/>
            <g>
              <path class="cls-17" d="m1102.13,423.11c-3.79-1.46-6.49-5.13-6.52-9.44-.04-5.63,4.49-10.22,10.11-10.26,5.63-.04,10.22,4.49,10.26,10.11.03,4.33-2.64,8.04-6.43,9.54"/>
              <polygon class="cls-31" points="1126.25 451.86 1105.78 416.61 1092.05 441.04 1080.57 426.9 1060.52 452.32 1085.8 452.14 1085.8 452.15 1126.25 451.86"/>
            </g>
            <rect class="cls-1" x="1151.24" y="392.9" width="67.52" height="61.89" transform="translate(-2.91 8.23) rotate(-.4)"/>
            <path class="cls-50" d="m1218.99,452.63l-68.14.47-.42-60.28,68.14-.47.42,60.28Zm-67.91.23l67.67-.47-.41-59.8-67.67.47.41,59.8Z"/>
            <g>
              <path class="cls-17" d="m1193.65,422.47c-3.79-1.46-6.49-5.13-6.52-9.44-.04-5.63,4.49-10.22,10.11-10.26,5.63-.04,10.22,4.49,10.26,10.11.03,4.33-2.64,8.04-6.43,9.54"/>
              <polygon class="cls-31" points="1217.78 451.23 1197.31 415.98 1183.57 440.41 1172.1 426.26 1152.05 451.69 1177.33 451.51 1177.33 451.51 1217.78 451.23"/>
            </g>
          </g>
          <rect class="cls-30" x="966.32" y="366.28" width="253.05" height="2.67" transform="translate(-2.52 7.59) rotate(-.4)"/>
          <rect class="cls-30" x="966.34" y="370.21" width="253.05" height="2.67" transform="translate(-2.55 7.59) rotate(-.4)"/>
          <rect class="cls-30" x="966.37" y="374.13" width="253.05" height="2.67" transform="translate(-2.58 7.59) rotate(-.4)"/>
          <rect class="cls-30" x="966.4" y="378.05" width="253.05" height="2.67" transform="translate(-2.61 7.59) rotate(-.4)"/>
          <rect class="cls-30" x="966.43" y="382.61" width="70.62" height="2.67" transform="translate(-2.64 6.96) rotate(-.4)"/>
          <g>
            <path class="cls-50" d="m1152.95,477.75l-118.59.82c-.12,0-.22-.1-.22-.22l-.06-8.89c-.02-2.67,2.14-4.85,4.8-4.87l113.97-.79c.12,0,.22.1.22.22l.09,13.51c0,.12-.1.22-.22.22Zm-118.37.38l118.15-.82-.09-13.07-113.75.79c-2.42.02-4.38,2-4.36,4.42l.06,8.67Z"/>
            <rect class="cls-30" x="1045.9" y="467.72" width="103.25" height="2.67" transform="translate(-3.23 7.63) rotate(-.4)"/>
            <rect class="cls-30" x="1045.93" y="472.71" width="103.25" height="2.67" transform="translate(-3.26 7.63) rotate(-.4)"/>
            <path class="cls-7" d="m1038.26,464.73h4.87v13.68h-8.91v-9.64c0-2.23,1.81-4.04,4.04-4.04Z" transform="translate(-3.25 7.22) rotate(-.4)"/>
          </g>
        </g>
        <path class="cls-10" d="m1227.28,327.12l-269.42,1.87c-1.77.01-3.21,1.46-3.19,3.24l.15,22.3,275.85-1.91-.15-22.3c-.01-1.77-1.46-3.21-3.24-3.19Z"/>
        <path class="cls-48" d="m1235.39,488.77l.07,10.68c.02,3.42-2.74,6.22-6.16,6.25l-269.42,1.87c-3.42.02-6.23-2.74-6.25-6.16l-.07-10.68,281.84-1.96Z"/>
        <g>
          <polygon class="cls-13" points="1092.94 493.48 1094.89 494.61 1097.62 496.29 1098.07 496.64 1094.62 498.96 1093.12 499.87 1093.04 499.21 1092.92 496.49 1092.9 493.75 1092.94 493.48 1092.94 493.48"/>
          <polygon class="cls-13" points="1112.05 493.67 1115.02 495.38 1115.01 493.65 1119.7 496.36 1115.04 499.13 1115.03 497.4 1112.09 499.15 1112.05 493.67 1112.05 493.67"/>
          <polygon class="cls-13" points="1078.9 493.69 1075.95 495.44 1075.94 493.71 1071.29 496.48 1075.98 499.2 1075.97 497.46 1078.93 499.17 1078.9 493.69 1078.9 493.69"/>
        </g>
        <rect class="cls-50" x="1047.06" y="339.2" width="92.49" height="4.99" transform="translate(-2.34 7.59) rotate(-.4)"/>
        <rect class="cls-1" x="1098.15" y="365.81" width="121.92" height="111.76" transform="translate(-2.9 8.05) rotate(-.4)"/>
        <g>
          <path class="cls-45" d="m988.2,342.74c-.05-.66-.59-.86-1-.86-.55,0-1.01.35-1,.91,0,.45.34.64.76.77.54.17.76.27.77.57,0,.25-.21.45-.49.45-.21,0-.51-.12-.53-.48h-.57c.03.68.62.95,1.1.95.6,0,1.08-.4,1.06-.98-.02-.64-.52-.77-.98-.89-.32-.09-.54-.19-.55-.43,0-.2.15-.38.43-.39.29,0,.44.17.44.4h.57Z"/>
          <path class="cls-45" d="m984.48,344.97h.57s-.01-1.62-.01-1.62c0-.59.27-.89.82-.89h.04s0-.57,0-.57c-.41,0-.72.18-.89.53v-.44s-.54,0-.54,0l.02,2.98h0Z"/>
          <path class="cls-45" d="m983.9,343.66c.05-.5-.11-.96-.46-1.32-.29-.28-.68-.43-1.11-.43-.91,0-1.58.74-1.57,1.6,0,.79.62,1.57,1.6,1.56.3,0,.6-.09.85-.26.25-.17.46-.41.6-.74h-.6c-.16.32-.46.51-.86.51-.45,0-.98-.3-1.02-.9l2.56-.02h0Zm-2.56-.43c.02-.41.4-.83.99-.83.57-.02.97.43,1,.82h-1.98Z"/>
          <polygon class="cls-45" points="979.66 345 980.23 345 980.21 342.01 979.64 342.02 979.66 345 979.66 345"/>
          <path class="cls-45" d="m977.77,345.02h.57s-.01-1.62-.01-1.62c0-.59.27-.89.82-.89h.04s0-.57,0-.57c-.41,0-.72.18-.89.53v-.44s-.54,0-.54,0l.02,2.98h0Z"/>
          <path class="cls-45" d="m975.92,345.03h.57s-.01-1.62-.01-1.62c0-.59.27-.89.82-.89h.04s0-.57,0-.57c-.41,0-.72.18-.89.53v-.44s-.54,0-.54,0l.02,2.98h0Z"/>
          <path class="cls-45" d="m975.14,342.05h-.57s0,.53,0,.53c-.14-.28-.52-.61-1.12-.61-.87,0-1.53.68-1.53,1.59,0,.83.58,1.58,1.55,1.57.47,0,.9-.21,1.11-.62v.52s.58,0,.58,0l-.02-2.98h0Zm-2.64,1.52c0-.56.4-1.06,1.03-1.06.48,0,.82.26.96.61.07.14.1.29.09.44,0,.15-.04.31-.1.45-.15.34-.47.6-.93.6-.73,0-1.05-.59-1.05-1.03h0Z"/>
          <path class="cls-45" d="m970.96,344.01c-.12.3-.43.6-.93.61-.57,0-1.03-.43-1.03-1.04,0-.3.11-.58.29-.76.21-.2.43-.3.73-.3.41,0,.78.22.94.62h.59c-.19-.72-.84-1.16-1.56-1.15-.9,0-1.57.71-1.57,1.59,0,.83.63,1.58,1.61,1.57.75,0,1.34-.5,1.51-1.15h-.59Z"/>
          <path class="cls-18" d="m992.36,348.16l2.27-.02v-.91s-1.28,0-1.28,0v-.7s1.23,0,1.23,0v-.91s-1.24,0-1.24,0v-.63s1.27,0,1.27,0v-.91s-2.28.02-2.28.02l.03,4.07h0Zm2.86-.02h1.43c1.55-.02,2.1-.96,2.09-2.07,0-.45-.1-.88-.38-1.26-.54-.76-1.35-.75-1.81-.75h-1.35s.03,4.08.03,4.08h0Zm1.02-3.16h.45c.46,0,.68.18.8.37.15.23.2.52.2.75,0,.58-.21,1.12-.99,1.12h-.45s-.02-2.24-.02-2.24h0Zm4.86.81v.83s1.23,0,1.23,0c-.11.4-.45.66-.97.66s-1.13-.36-1.13-1.21c0-.8.59-1.19,1.11-1.19.44,0,.74.24.9.52h1.17c-.23-.79-1.08-1.44-2.06-1.43-1.2,0-2.18.9-2.17,2.11s.95,2.13,2.19,2.12c1.13,0,2.18-.83,2.17-2.2,0-.08,0-.14,0-.21l-2.43.02h0Zm2.99,2.29l2.27-.02v-.91s-1.28,0-1.28,0v-.7s1.23,0,1.23,0v-.91s-1.24,0-1.24,0v-.63s1.27,0,1.27,0v-.91s-2.28.02-2.28.02l.03,4.07h0Z"/>
          <path class="cls-19" d="m979.92,340.86c.22,0,.39.17.39.39s-.17.39-.39.39-.39-.17-.39-.39.17-.39.39-.39h0Z"/>
          <path class="cls-46" d="m991.49,340.65c.52,2.65,0,5.88-1.03,7.53.84-5.8-1.61-8.22-6.39-8.84,2.16-.65,5.07-.17,7.42,1.31h0Z"/>
          <path class="cls-19" d="m980.3,340.87c3.07-3.22,5.31-4.75,9.5-3.56.79.68,1.31,1.72,1.6,2.9-3.66-2.16-7.69-2.01-11.1.66h0Z"/>
          <path class="cls-45" d="m1007.58,342.82c.23,0,.44.09.59.24.15.15.25.36.25.58s-.09.44-.24.59c-.15.15-.36.25-.58.25s-.44-.09-.59-.24c-.15-.15-.25-.36-.25-.58s.09-.44.24-.59c.15-.15.36-.25.58-.25h0Zm.49.34c-.13-.12-.3-.2-.49-.2s-.36.08-.49.21-.2.3-.2.49.08.36.21.49c.13.12.3.2.49.2s.36-.08.49-.21.2-.3.2-.49-.08-.36-.21-.49h0Z"/>
          <path class="cls-45" d="m1007.22,344.06v-.82s.34,0,.34,0c.09,0,.15,0,.19.02.04.01.07.04.1.08.02.04.04.08.04.13,0,.06-.02.11-.05.15-.04.04-.09.07-.16.08.04.02.07.04.09.07.02.02.06.07.1.13l.1.16h-.2s-.12-.18-.12-.18c-.04-.06-.07-.1-.09-.12-.02-.02-.03-.03-.05-.03-.02,0-.05,0-.08,0h-.03s0,.34,0,.34h-.17Zm.16-.48h.12c.08,0,.13,0,.15-.01.02,0,.04-.02.05-.04.01-.02.02-.04.02-.06,0-.03,0-.05-.02-.07-.01-.02-.04-.03-.06-.03-.01,0-.05,0-.12,0h-.13s0,.21,0,.21h0Z"/>
        </g>
        <g>
          <path class="cls-50" d="m1213.88,343.31s-.07-.01-.09-.04c-.05-.05-.05-.13,0-.18l4.63-4.7c.05-.05.13-.05.18,0s.05.13,0,.18l-4.63,4.7s-.06.04-.09.04Z"/>
          <path class="cls-50" d="m1218.54,343.28s-.07-.01-.09-.04l-4.7-4.63c-.05-.05-.05-.13,0-.18s.13-.05.18,0l4.7,4.63c.05.05.05.13,0,.18-.02.03-.06.04-.09.04Z"/>
        </g>
        <path class="cls-48" d="m1228.04,324.12l-269.42,1.87c-3.42.02-6.19,2.83-6.16,6.25l1.17,169.16c.02,3.42,2.83,6.18,6.25,6.16l269.42-1.87c3.42-.02,6.19-2.82,6.16-6.25l-1.17-169.16c-.02-3.42-2.83-6.19-6.25-6.16Zm4.43,175.35c.01,1.77-1.42,3.22-3.19,3.24l-269.42,1.87c-1.77.01-3.23-1.42-3.24-3.19l-1.17-169.16c-.01-1.77,1.42-3.23,3.19-3.24l269.42-1.87c1.77-.01,3.23,1.42,3.24,3.19l1.17,169.16Z"/>
      </g>
      <g>
        <path class="cls-12" d="m1013.3,295.65l-58.69-5.61c-4.58-.44-7.95-4.52-7.51-9.1l4.37-45.68c.44-4.58,4.52-7.95,9.1-7.51l58.69,5.61c4.58.44,7.95,4.52,7.51,9.1l-4.37,45.68c-.44,4.58-4.52,7.95-9.1,7.51Zm-52.97-65.45c-3.23-.31-6.1,2.07-6.41,5.29l-4.37,45.68c-.31,3.23,2.07,6.1,5.29,6.41l58.69,5.61c3.23.31,6.1-2.07,6.41-5.29l4.37-45.68c.31-3.23-2.07-6.1-5.29-6.41l-58.69-5.61Z"/>
        <path class="cls-12" d="m964.85,280.86l4.03-42.13,39.65,24.67-43.68,17.46Zm6.1-37.94l-3.27,34.15,35.4-14.15-32.14-19.99Z"/>
      </g>
    </g>
    <g>
      <g>
        <rect class="cls-39" x="76.28" y="69.96" width="762.55" height="468.47" rx="14.48" ry="14.48"/>
        <rect class="cls-12" x="93.67" y="89.4" width="725.36" height="399.36"/>
        <path class="cls-39" d="m870.02,549.43l-4.82,12.85c-2.69,7.18-9.57,11.94-17.25,11.94H61.76c-7.24,0-13.82-4.24-16.8-10.85l-5.94-13.21c-1.08-2.4-1.33-4.89-.94-7.21.97-5.69,5.9-10.43,12.34-10.43h807.88c6.4,0,11.36,4.69,12.34,10.43.36,2.08.19,4.3-.63,6.48Z"/>
        <path class="cls-22" d="m870.64,542.96H38.09c.97-5.69,5.9-10.43,12.34-10.43h807.88c6.4,0,11.36,4.69,12.34,10.43Z"/>
      </g>
      <g>
        <rect class="cls-12" x="159.85" y="100.46" width="589.04" height="377.25" rx="9.95" ry="9.95"/>
        <path class="cls-10" d="m738.94,103.62H169.8c-3.75,0-6.79,3.05-6.79,6.79v47.11h582.72v-47.11c0-3.75-3.05-6.79-6.79-6.79Z"/>
        <path class="cls-48" d="m752.05,445.2v22.55c0,7.23-5.88,13.1-13.11,13.1H169.8c-7.23,0-13.11-5.88-13.11-13.1v-22.55h595.36Z"/>
        <g>
          <polygon class="cls-13" points="451.09 453.05 455.17 455.47 460.91 459.06 461.87 459.8 454.54 464.66 451.36 466.55 451.2 465.15 450.98 459.41 450.99 453.62 451.09 453.05 451.09 453.05"/>
          <polygon class="cls-13" points="491.44 453.73 497.69 457.4 497.69 453.73 507.56 459.53 497.69 465.32 497.69 461.66 491.44 465.32 491.44 453.73 491.44 453.73"/>
          <polygon class="cls-13" points="421.41 453.29 415.17 456.96 415.17 453.29 405.29 459.09 415.17 464.88 415.17 461.22 421.41 464.88 421.41 453.29 421.41 453.29"/>
        </g>
        <rect class="cls-50" x="356.38" y="127.18" width="195.38" height="10.55"/>
        <rect class="cls-30" x="187.09" y="185.09" width="248.66" height="5.55"/>
        <rect class="cls-30" x="187.09" y="193.23" width="248.66" height="5.55"/>
        <rect class="cls-30" x="187.09" y="201.37" width="248.66" height="5.55"/>
        <rect class="cls-30" x="187.09" y="209.51" width="248.66" height="5.55"/>
        <rect class="cls-30" x="187.09" y="217.65" width="248.66" height="5.55"/>
        <g>
          <rect class="cls-30" x="193.66" y="267.39" width="241.56" height="5.55"/>
          <rect class="cls-30" x="193.66" y="275.99" width="241.56" height="5.55"/>
        </g>
        <rect class="cls-30" x="210.92" y="228.38" width="92.76" height="5.55"/>
        <circle class="cls-30" cx="203.18" cy="231.15" r="1.3"/>
        <rect class="cls-30" x="210.92" y="241.39" width="92.76" height="5.55"/>
        <rect class="cls-30" x="210.92" y="372.17" width="219.64" height="5.55"/>
        <rect class="cls-30" x="210.92" y="382.53" width="219.64" height="5.55"/>
        <circle class="cls-30" cx="203.18" cy="244.17" r="1.3"/>
        <rect class="cls-3" x="187.89" y="261.84" width="253.1" height="25.25"/>
        <rect class="cls-21" x="195.88" y="301.74" width="100.56" height="46.53" rx="4.23" ry="4.23"/>
        <rect class="cls-21" x="327.24" y="301.74" width="100.56" height="46.53" rx="4.23" ry="4.23"/>
        <g>
          <rect class="cls-12" x="212.44" y="316.34" width="67.43" height="6.89"/>
          <rect class="cls-12" x="212.44" y="326.35" width="67.43" height="6.89"/>
        </g>
        <g>
          <rect class="cls-12" x="343.99" y="316.34" width="67.43" height="6.89"/>
          <rect class="cls-12" x="343.99" y="326.35" width="67.43" height="6.89"/>
        </g>
        <rect class="cls-1" x="463.13" y="184.35" width="257.54" height="236.08"/>
        <path class="cls-2" d="m193.68,365.29h244.84v28.03h-252.27v-20.61c0-4.1,3.33-7.42,7.42-7.42Z"/>
        <path class="cls-7" d="m193.62,365.11h11.53v28.39h-18.96v-20.97c0-4.1,3.33-7.42,7.42-7.42Z"/>
        <rect class="cls-5" x="461.32" y="183.61" width="259.02" height="236.82"/>
        <g>
          <polygon class="cls-31" points="716.19 413.43 639.05 278.43 586.01 371.25 542.61 317 465.47 413.44 561.9 413.43 561.9 413.44 716.19 413.43"/>
          <polygon class="cls-1" points="716.19 413.43 639.05 278.43 586.01 371.25 542.61 317 465.47 413.44 561.9 413.43 561.9 413.44 716.19 413.43"/>
          <path class="cls-17" d="m521,344.01l21.61-27.01,15.59,19.49c8.16-7.07,13.34-17.48,13.34-29.13,0-21.3-17.27-38.57-38.57-38.57s-38.57,17.28-38.57,38.57c0,17.12,11.16,31.61,26.6,36.65Z"/>
        </g>
        <g>
          <path class="cls-45" d="m232.05,133.1c-.09-1.4-1.23-1.83-2.11-1.83-1.15,0-2.13.72-2.13,1.91.01.95.71,1.37,1.6,1.63,1.13.37,1.61.58,1.62,1.2,0,.53-.45.94-1.04.94-.45,0-1.07-.26-1.12-1.02h-1.2c.06,1.44,1.3,2,2.31,2,1.26,0,2.28-.83,2.26-2.06-.04-1.36-1.09-1.63-2.06-1.9-.68-.19-1.13-.42-1.15-.92-.01-.42.31-.81.91-.81.62-.01.92.36.92.85h1.2Z"/>
          <path class="cls-45" d="m224.14,137.76h1.21v-3.41c0-1.25.59-1.88,1.73-1.88h.08v-1.2c-.86.01-1.53.37-1.89,1.11v-.93h-1.14v6.3h0Z"/>
          <path class="cls-45" d="m222.95,134.99c.1-1.05-.21-2.04-.95-2.79-.61-.59-1.43-.93-2.34-.93-1.92,0-3.34,1.54-3.34,3.35,0,1.67,1.28,3.33,3.35,3.33.64,0,1.27-.17,1.8-.53.54-.35.98-.87,1.28-1.56h-1.26c-.35.66-.98,1.07-1.83,1.07-.95,0-2.07-.65-2.13-1.92h5.41Zm-5.39-.94c.06-.86.86-1.75,2.1-1.75,1.2-.02,2.04.91,2.1,1.75h-4.19Z"/>
          <polygon class="cls-45" points="213.96 137.76 215.17 137.76 215.17 131.46 213.96 131.46 213.96 137.76 213.96 137.76"/>
          <path class="cls-45" d="m209.98,137.76h1.21v-3.41c0-1.25.59-1.88,1.73-1.88h.08v-1.2c-.86.01-1.53.37-1.89,1.11v-.93h-1.14v6.3h0Z"/>
          <path class="cls-45" d="m206.07,137.76h1.21v-3.41c0-1.25.59-1.88,1.73-1.88h.08v-1.2c-.86.01-1.53.37-1.89,1.11v-.93h-1.14v6.3h0Z"/>
          <path class="cls-45" d="m204.47,131.46h-1.21v1.11c-.29-.6-1.09-1.3-2.35-1.3-1.84,0-3.25,1.41-3.25,3.34,0,1.76,1.21,3.34,3.25,3.34,1,0,1.91-.44,2.35-1.29v1.1h1.21v-6.3h0Zm-5.6,3.16c0-1.18.86-2.22,2.19-2.22,1.01,0,1.72.57,2.03,1.3.14.29.2.61.19.94-.01.32-.08.65-.22.94-.31.72-1,1.25-1.97,1.25-1.54,0-2.2-1.25-2.21-2.19h0Z"/>
          <path class="cls-45" d="m195.6,135.55c-.26.63-.92,1.26-1.98,1.28-1.21,0-2.17-.92-2.17-2.21,0-.64.24-1.23.62-1.6.44-.42.91-.63,1.55-.61.86,0,1.65.47,1.98,1.32h1.25c-.4-1.52-1.76-2.44-3.27-2.44-1.9,0-3.33,1.47-3.33,3.34,0,1.75,1.32,3.34,3.39,3.34,1.58,0,2.83-1.03,3.21-2.4h-1.25Z"/>
          <path class="cls-18" d="m240.75,144.63h4.8v-1.93h-2.68v-1.48h2.6v-1.93h-2.6v-1.34h2.68v-1.93h-4.8v8.6h0Zm6.05,0h3.02c3.28,0,4.45-1.98,4.45-4.32,0-.94-.2-1.86-.79-2.67-1.12-1.6-2.85-1.6-3.82-1.6h-2.86v8.6h0Zm2.21-6.67h.96c.98,0,1.42.41,1.68.79.31.49.42,1.1.42,1.59,0,1.22-.47,2.36-2.11,2.36h-.95v-4.74h0Zm10.26,1.78v1.75h2.58c-.23.84-.97,1.38-2.07,1.38s-2.37-.78-2.37-2.58c0-1.7,1.27-2.5,2.36-2.5.93,0,1.56.51,1.9,1.11h2.47c-.48-1.66-2.25-3.04-4.32-3.04-2.55,0-4.62,1.86-4.62,4.43s1.97,4.51,4.59,4.51c2.39,0,4.61-1.73,4.61-4.61,0-.17,0-.3-.01-.45h-5.13Zm6.28,4.89h4.8v-1.93h-2.69v-1.48h2.6v-1.93h-2.6v-1.34h2.69v-1.93h-4.8v8.6h0Z"/>
          <path class="cls-19" d="m214.57,129.01c.46,0,.83.37.83.82s-.37.82-.83.82-.83-.37-.83-.82.37-.82.83-.82h0Z"/>
          <path class="cls-46" d="m239.03,128.75c1.06,5.6-.08,12.41-2.29,15.88,1.87-12.23-3.29-17.39-13.37-18.76,4.58-1.33,10.7-.28,15.66,2.88h0Z"/>
          <path class="cls-19" d="m215.37,129.04c6.54-6.75,11.29-9.96,20.12-7.38,1.66,1.45,2.73,3.64,3.34,6.14-7.71-4.62-16.21-4.37-23.45,1.24h0Z"/>
          <path class="cls-45" d="m272.98,133.56c.48,0,.92.2,1.24.51.32.32.51.75.51,1.24s-.2.92-.51,1.24c-.32.32-.75.51-1.24.51s-.92-.2-1.24-.51c-.32-.32-.51-.75-.51-1.24s.2-.92.51-1.24c.32-.32.75-.51,1.24-.51h0Zm1.03.72c-.26-.26-.63-.43-1.03-.43s-.77.16-1.03.43c-.26.26-.43.63-.43,1.03s.16.77.43,1.03c.26.26.63.43,1.03.43s.77-.16,1.03-.43.43-.63.43-1.03-.16-.77-.43-1.03h0Z"/>
          <path class="cls-45" d="m272.2,136.18v-1.74h.74c.19,0,.32.02.4.05.08.03.15.09.2.17.05.08.08.17.08.27,0,.13-.04.24-.11.32-.08.09-.19.14-.34.16.08.04.14.09.19.15.05.05.12.15.2.28l.21.34h-.42l-.25-.38c-.09-.13-.15-.22-.19-.25-.03-.03-.07-.06-.11-.07-.04-.01-.1-.02-.18-.02h-.07v.73h-.35Zm.35-1h.26c.17,0,.27,0,.32-.02.04-.01.07-.04.1-.07.02-.03.04-.08.04-.13,0-.06-.02-.11-.05-.14-.03-.04-.08-.06-.13-.07-.03,0-.11,0-.26,0h-.27v.44h0Z"/>
        </g>
        <g>
          <path class="cls-50" d="m708.74,137.62c-.07,0-.14-.03-.19-.08-.11-.11-.11-.28,0-.38l9.85-9.85c.11-.11.28-.11.38,0s.11.28,0,.38l-9.85,9.85c-.05.05-.12.08-.19.08Z"/>
          <path class="cls-50" d="m718.59,137.62c-.07,0-.14-.03-.19-.08l-9.85-9.85c-.11-.11-.11-.28,0-.38s.28-.11.38,0l9.85,9.85c.11.11.11.28,0,.38-.05.05-.12.08-.19.08Z"/>
        </g>
        <g>
          <circle class="cls-8" cx="514.94" cy="353.54" r="6.29"/>
          <circle class="cls-14" cx="514.94" cy="353.54" r="5.14"/>
          <circle class="cls-20" cx="514.94" cy="353.54" r="4.03"/>
          <circle class="cls-12" cx="514.94" cy="353.54" r="2.76"/>
        </g>
        <g>
          <circle class="cls-8" cx="587.37" cy="372.96" r="6.29"/>
          <circle class="cls-14" cx="587.37" cy="372.96" r="5.14"/>
          <circle class="cls-20" cx="587.37" cy="372.96" r="4.03"/>
          <circle class="cls-12" cx="587.37" cy="372.96" r="2.76"/>
        </g>
        <g>
          <circle class="cls-8" cx="538.81" cy="293.87" r="6.29"/>
          <circle class="cls-14" cx="538.81" cy="293.87" r="5.14"/>
          <circle class="cls-20" cx="538.81" cy="293.87" r="4.03"/>
          <circle class="cls-12" cx="538.81" cy="293.87" r="2.76"/>
        </g>
        <g>
          <circle class="cls-8" cx="640.1" cy="306.91" r="6.29"/>
          <circle class="cls-14" cx="640.1" cy="306.91" r="5.14"/>
          <circle class="cls-20" cx="640.1" cy="306.91" r="4.03"/>
          <circle class="cls-12" cx="640.1" cy="306.91" r="2.76"/>
        </g>
        <g>
          <circle class="cls-8" cx="699.68" cy="405.34" r="6.29"/>
          <circle class="cls-14" cx="699.68" cy="405.34" r="5.14"/>
          <circle class="cls-20" cx="699.68" cy="405.34" r="4.03"/>
          <circle class="cls-12" cx="699.68" cy="405.34" r="2.76"/>
        </g>
        <path class="cls-48" d="m738.94,97.3H169.8c-7.23,0-13.11,5.88-13.11,13.11v357.35c0,7.23,5.88,13.1,13.11,13.1h569.14c7.23,0,13.11-5.88,13.11-13.1V110.41c0-7.23-5.88-13.11-13.11-13.11Zm6.8,370.46c0,3.75-3.05,6.79-6.8,6.79H169.8c-3.75,0-6.8-3.04-6.8-6.79V110.41c0-3.75,3.05-6.8,6.8-6.8h569.14c3.75,0,6.8,3.05,6.8,6.8v357.35Z"/>
      </g>
    </g>
    <g>
      <path class="cls-12" d="m759.32,717.02l-94.74-9.06c-6.72-.64-11.66-6.63-11.02-13.35l6.16-64.4c.64-6.72,6.63-11.66,13.35-11.02l94.74,9.06c6.72.64,11.66,6.63,11.02,13.35l-6.16,64.4c-.64,6.72-6.63,11.66-13.35,11.02Zm-86.53-94.88c-5.09-.49-9.62,3.26-10.11,8.34l-6.16,64.4c-.49,5.09,3.26,9.62,8.34,10.11l94.74,9.06c5.09.49,9.62-3.26,10.11-8.34l6.16-64.4c.49-5.09-3.26-9.62-8.34-10.11l-94.74-9.06Z"/>
      <path class="cls-12" d="m735.57,714.63c-.44-.04-.86-.28-1.12-.69l-40.41-64.34-36.92,35.26c-.59.57-1.54.55-2.1-.05-.57-.59-.55-1.54.05-2.1l39.56-37.78,42.35,67.43c.44.7.23,1.62-.47,2.05-.29.18-.62.25-.93.22Z"/>
      <path class="cls-12" d="m771.97,697.06c-.42-.04-.81-.25-1.07-.62l-24.18-34.11-25.81,26.59c-.57.59-1.52.6-2.1.03-.59-.57-.6-1.52-.03-2.1l28.31-29.16,26.25,37.03c.48.67.32,1.6-.35,2.08-.3.21-.66.3-1,.27Z"/>
      <path class="cls-12" d="m727.72,662.09c-8.15-.78-14.15-8.04-13.37-16.2.78-8.15,8.04-14.15,16.2-13.37s14.15,8.04,13.37,16.2c-.78,8.15-8.04,14.15-16.2,13.37Zm2.54-26.6c-6.52-.62-12.33,4.17-12.95,10.69-.62,6.52,4.17,12.33,10.69,12.95,6.52.62,12.33-4.17,12.95-10.69.62-6.52-4.17-12.33-10.69-12.95Z"/>
    </g>
    <g class="cls-52">
      <path class="cls-12" d="m994.65,603.97c-.26-.02-.51-.12-.73-.28l-20.62-14.69,2.4-25.07,23.02-10.27c.5-.22,1.06-.16,1.5.15.44.32.67.83.62,1.37l-4.54,47.42c-.05.54-.38,1-.88,1.23-.25.11-.51.16-.77.13Zm-19.58-15.77l19.58,13.95,4.48-46.82-21.85,9.75-2.21,23.12Z"/>
      <path class="cls-12" d="m975.04,589.45l-11.36-1.09c-3.01-.29-5.22-2.97-4.93-5.97l1.41-14.79c.29-3.01,2.97-5.22,5.97-4.93l11.36,1.09-2.46,25.69Zm-9.06-25.1c-2.08-.2-3.93,1.33-4.13,3.41l-1.41,14.79c-.2,2.08,1.33,3.93,3.41,4.13l9.68.93,2.14-22.33-9.68-.93Z"/>
      <path class="cls-12" d="m1004.82,592.98c-.26-.02-.5-.17-.65-.41-.24-.4-.11-.92.29-1.16.67-.4,6.53-4.09,7.06-11.42.52-7.21-4.62-11.7-5.2-12.19-.36-.3-.41-.83-.11-1.19.3-.36.83-.41,1.19-.11.66.54,6.39,5.56,5.81,13.61-.59,8.19-7.14,12.31-7.88,12.75-.16.09-.34.13-.51.11Z"/>
      <path class="cls-12" d="m1013.57,598.77c-.23-.02-.45-.14-.6-.33-.28-.37-.2-.9.17-1.18,1.44-1.07,8.63-6.95,9.21-17.06.53-9.19-4.72-15.45-6.34-17.15-.32-.34-.31-.87.03-1.19.34-.32.87-.31,1.19.03,1.74,1.82,7.37,8.54,6.81,18.41-.62,10.86-8.34,17.16-9.88,18.31-.17.13-.38.18-.59.16Z"/>
      <path class="cls-12" d="m982.21,571.98c-.3-.03-.58-.22-.7-.52-.17-.43.03-.92.47-1.1l10.79-4.35c.43-.17.92.03,1.1.47.17.43-.03.92-.47,1.1l-10.79,4.35c-.13.05-.26.07-.39.06Z"/>
    </g>
    <g class="cls-52">
      <path class="cls-12" d="m96.3,592.69l-6.99,63.37-61.26-5.72,6.72-62.43,61.54,4.78Zm-61.54-5.6-.68-2.63c-.73,0-1.36.48-1.43,1.12l-7.47,66.85c-.08.68.51,1.28,1.3,1.34l63.53,5.2s.09,0,.14,0c.73,0,1.36-.48,1.43-1.12l7.47-66.85c.08-.68-.5-1.28-1.29-1.34-21.72-1.78-41.84-3.43-63.53-5.2-.05,0-.09,0-.14,0h0Z"/>
      <path class="cls-12" d="m44.67,596.7c-.9,0-1.69.49-1.83,1.2-.16.8.56,1.58,1.61,1.73l30.21,4.38c.12.02.24.03.36.03.9,0,1.69-.49,1.83-1.2.16-.8-.56-1.58-1.61-1.73l-30.21-4.38c-.12-.02-.24-.03-.36-.03h0Z"/>
      <path class="cls-12" d="m38.46,629.24c-.85,0-1.55.26-1.66.65-.13.46.61.93,1.66,1.05l42.76,4.85c.17.02.33.03.49.03.85,0,1.55-.26,1.66-.65.13-.46-.61-.93-1.66-1.05l-42.76-4.85c-.17-.02-.33-.03-.49-.03h0Z"/>
      <path class="cls-12" d="m40.73,616.68c-.9,0-1.69.49-1.83,1.2-.16.8.56,1.58,1.61,1.73l42.67,6.18c.12.02.24.03.36.03.9,0,1.69-.49,1.83-1.2.16-.8-.56-1.58-1.61-1.73l-42.67-6.18c-.12-.02-.24-.03-.36-.03h0Z"/>
      <path class="cls-12" d="m42.7,606.69c-.9,0-1.69.49-1.83,1.2-.16.8.56,1.58,1.61,1.73l42.67,6.18c.12.02.24.03.36.03.9,0,1.69-.49,1.83-1.2.16-.8-.56-1.58-1.61-1.73l-42.67-6.18c-.12-.02-.24-.03-.36-.03h0Z"/>
      <path class="cls-12" d="m37.68,640.26c-.85,0-1.55,1.06-1.66,1.44-.13.46.61.93,1.66,1.05l42.77,4.85c.17.02.33.03.49.03.85,0,1.55-.26,1.66-.65.13-.46-.61-1.73-1.66-1.85l-42.77-4.85c-.17-.02-.33-.03-.49-.03h0Z"/>
    </g>
  </g>
  <g id="images-icons">
    <g>
      <rect class="cls-26" x="1139.17" y="797.42" width="141.87" height="91.01" transform="translate(-200.7 413.37) rotate(-17.93)"/>
      <polygon class="cls-69" points="1214.92 857.75 1237.86 818.21 1260.82 778.69 1196.11 799.63 1131.38 820.57 1173.16 839.15 1214.92 857.75"/>
      <polygon class="cls-62" points="1226.64 837.57 1247.07 846.68 1288.83 865.29 1224.12 886.22 1159.39 907.16 1182.36 867.61 1193.59 848.26 1214.92 857.75 1226.64 837.57"/>
    </g>
  </g>
</svg>